<svg xmlns="http://www.w3.org/2000/svg" width="60" height="70.588" viewBox="0 0 60 70.588">
  <defs>
    <style>
      .cls-1 {
        fill: #fff;
      }
    </style>
  </defs>
  <g id="contact_list_x2C__contact_log_x2C__contact_book" transform="translate(-2.5 -1)">
    <path id="Path_479" data-name="Path 479" class="cls-1" d="M56.941,71.588H7.529A3.534,3.534,0,0,1,4,68.059a1.176,1.176,0,1,1,2.353,0,1.178,1.178,0,0,0,1.176,1.176H56.941a1.178,1.178,0,0,0,1.176-1.176V4.529a1.178,1.178,0,0,0-1.176-1.176H7.529A1.178,1.178,0,0,0,6.353,4.529V6.882A1.176,1.176,0,1,1,4,6.882V4.529A3.534,3.534,0,0,1,7.529,1H56.941a3.534,3.534,0,0,1,3.529,3.529V68.059A3.534,3.534,0,0,1,56.941,71.588Z" transform="translate(2.029 0)"/>
    <g id="Group_374" data-name="Group 374" transform="translate(15.441 12.765)">
      <path id="Path_480" data-name="Path 480" class="cls-1" d="M23.995,29.752a18.652,18.652,0,0,1-13.576-5.809,1.179,1.179,0,0,1-.273-1.172,5.753,5.753,0,0,1,3.661-3.725L20,16.373a1.16,1.16,0,0,1,1.031.049l1.261.692a3.582,3.582,0,0,0,3.4,0l1.261-.694a1.166,1.166,0,0,1,1.033-.049l6.461,2.776a5.5,5.5,0,0,1,3.4,3.631,1.177,1.177,0,0,1-.273,1.167A18.659,18.659,0,0,1,23.995,29.752ZM12.663,22.858a16.412,16.412,0,0,0,22.671,0,3.061,3.061,0,0,0-1.68-1.5l-6.064-2.6-.758.419a5.986,5.986,0,0,1-5.673,0l-.755-.416-5.791,2.492A3.442,3.442,0,0,0,12.663,22.858Z" transform="translate(-5.171 7.9)"/>
      <g id="Group_367" data-name="Group 367">
        <g id="Group_366" data-name="Group 366">
          <g id="Group_365" data-name="Group 365">
            <g id="Group_364" data-name="Group 364">
              <g id="Group_363" data-name="Group 363">
                <g id="Group_362" data-name="Group 362">
                  <path id="Path_481" data-name="Path 481" class="cls-1" d="M10.948,33.647a1.17,1.17,0,0,1-1.059-.666A18.624,18.624,0,0,1,8,24.824a18.824,18.824,0,1,1,35.8,8.158,1.178,1.178,0,0,1-2.122-1.021,16.328,16.328,0,0,0,1.621-7.136,16.471,16.471,0,1,0-32.941,0,16.289,16.289,0,0,0,1.654,7.136,1.177,1.177,0,0,1-1.059,1.687Z" transform="translate(-8 -6)"/>
                </g>
              </g>
            </g>
          </g>
        </g>
      </g>
      <g id="Group_373" data-name="Group 373" transform="translate(11.765 8.238)">
        <g id="Group_372" data-name="Group 372">
          <g id="Group_371" data-name="Group 371">
            <g id="Group_370" data-name="Group 370">
              <g id="Group_369" data-name="Group 369">
                <g id="Group_368" data-name="Group 368">
                  <path id="Path_482" data-name="Path 482" class="cls-1" d="M23.588,27.828a1.177,1.177,0,0,1-1.176-1.176V24.769a1.172,1.172,0,0,1,.466-.936,4.671,4.671,0,0,0,1.887-3.744V17.736c0-3.647-.228-5.882-4.706-5.882s-4.706,2.235-4.706,5.882v2.353a4.671,4.671,0,0,0,1.887,3.744,1.176,1.176,0,0,1,.466.936v1.882a1.176,1.176,0,1,1-2.353,0V25.325A6.979,6.979,0,0,1,13,20.089V17.736c0-3.08,0-8.235,7.059-8.235s7.059,5.155,7.059,8.235v2.353a6.987,6.987,0,0,1-2.353,5.235v1.327A1.177,1.177,0,0,1,23.588,27.828Z" transform="translate(-13 -9.501)"/>
                </g>
              </g>
            </g>
          </g>
        </g>
      </g>
    </g>
    <g id="Group_382" data-name="Group 382" transform="translate(2.5 5.706)">
      <g id="Group_375" data-name="Group 375" transform="translate(0 56.471)">
        <path id="Path_483" data-name="Path 483" class="cls-1" d="M10.735,29.353H3.676a1.176,1.176,0,0,1,0-2.353h7.059a1.176,1.176,0,0,1,0,2.353Z" transform="translate(-2.5 -27)"/>
      </g>
      <g id="Group_376" data-name="Group 376" transform="translate(0 47.059)">
        <path id="Path_484" data-name="Path 484" class="cls-1" d="M10.735,25.353H3.676a1.176,1.176,0,0,1,0-2.353h7.059a1.176,1.176,0,0,1,0,2.353Z" transform="translate(-2.5 -23)"/>
      </g>
      <g id="Group_377" data-name="Group 377" transform="translate(0 37.647)">
        <path id="Path_485" data-name="Path 485" class="cls-1" d="M10.735,21.353H3.676a1.176,1.176,0,1,1,0-2.353h7.059a1.176,1.176,0,1,1,0,2.353Z" transform="translate(-2.5 -19)"/>
      </g>
      <g id="Group_378" data-name="Group 378" transform="translate(0 28.235)">
        <path id="Path_486" data-name="Path 486" class="cls-1" d="M10.735,17.353H3.676a1.176,1.176,0,1,1,0-2.353h7.059a1.176,1.176,0,0,1,0,2.353Z" transform="translate(-2.5 -15)"/>
      </g>
      <g id="Group_379" data-name="Group 379" transform="translate(0 18.824)">
        <path id="Path_487" data-name="Path 487" class="cls-1" d="M10.735,13.353H3.676a1.176,1.176,0,0,1,0-2.353h7.059a1.176,1.176,0,0,1,0,2.353Z" transform="translate(-2.5 -11)"/>
      </g>
      <g id="Group_380" data-name="Group 380" transform="translate(0 9.412)">
        <path id="Path_488" data-name="Path 488" class="cls-1" d="M10.735,9.353H3.676A1.176,1.176,0,1,1,3.676,7h7.059a1.176,1.176,0,0,1,0,2.353Z" transform="translate(-2.5 -7)"/>
      </g>
      <g id="Group_381" data-name="Group 381">
        <path id="Path_489" data-name="Path 489" class="cls-1" d="M10.735,5.353H3.676A1.176,1.176,0,1,1,3.676,3h7.059a1.176,1.176,0,0,1,0,2.353Z" transform="translate(-2.5 -3)"/>
      </g>
    </g>
    <path id="Path_490" data-name="Path 490" class="cls-1" d="M40.765,27.353H10.176a1.176,1.176,0,1,1,0-2.353H40.765a1.176,1.176,0,0,1,0,2.353Z" transform="translate(8.794 32.471)"/>
    <path id="Path_491" data-name="Path 491" class="cls-1" d="M5.176,32.059A1.177,1.177,0,0,1,4,30.882V26.176a1.176,1.176,0,0,1,2.353,0v4.706A1.177,1.177,0,0,1,5.176,32.059Z" transform="translate(2.029 32.471)"/>
    <path id="Path_492" data-name="Path 492" class="cls-1" d="M5.176,28.059A1.177,1.177,0,0,1,4,26.882V22.176a1.176,1.176,0,0,1,2.353,0v4.706A1.177,1.177,0,0,1,5.176,28.059Z" transform="translate(2.029 27.059)"/>
    <path id="Path_493" data-name="Path 493" class="cls-1" d="M5.176,24.059A1.177,1.177,0,0,1,4,22.882V18.176a1.176,1.176,0,1,1,2.353,0v4.706A1.177,1.177,0,0,1,5.176,24.059Z" transform="translate(2.029 21.647)"/>
    <path id="Path_494" data-name="Path 494" class="cls-1" d="M5.176,20.059A1.177,1.177,0,0,1,4,18.882V14.176a1.176,1.176,0,1,1,2.353,0v4.706A1.177,1.177,0,0,1,5.176,20.059Z" transform="translate(2.029 16.235)"/>
    <path id="Path_495" data-name="Path 495" class="cls-1" d="M5.176,16.059A1.177,1.177,0,0,1,4,14.882V10.176a1.176,1.176,0,1,1,2.353,0v4.706A1.177,1.177,0,0,1,5.176,16.059Z" transform="translate(2.029 10.824)"/>
    <path id="Path_496" data-name="Path 496" class="cls-1" d="M5.176,12.059A1.177,1.177,0,0,1,4,10.882V6.176a1.176,1.176,0,1,1,2.353,0v4.706A1.177,1.177,0,0,1,5.176,12.059Z" transform="translate(2.029 5.412)"/>
  </g>
</svg>
