<?xml version="1.0" encoding="utf-8"?>
<!-- Generator: Adobe Illustrator 21.0.1, SVG Export Plug-In . SVG Version: 6.00 Build 0)  -->
<svg version="1.1" id="Layer_2" xmlns="http://www.w3.org/2000/svg" xmlns:xlink="http://www.w3.org/1999/xlink" x="0px" y="0px"
	 viewBox="0 0 1920 1920" style="enable-background:new 0 0 1920 1920;" xml:space="preserve">
<style type="text/css">
	.st0{fill:#FFFFFF;}
	.st1{fill:#3C6AA8;}
	.st2{fill:#FDFAF9;stroke:#3C6AA8;stroke-width:2;stroke-linejoin:round;stroke-miterlimit:10;}
	.st3{fill:none;stroke:#3C6AA8;stroke-width:3;stroke-linejoin:round;stroke-miterlimit:10;}
</style>
<g>
	<g>
		<ellipse class="st0" cx="960" cy="960" rx="706" ry="705"/>
	</g>
	<g>
		<path class="st1" d="M1391.6,1501.3c45.2-36.5,84.9-76.4,119-122.5c-9.4-7.6-18-14.5-26.7-21.5c-10.2,12.3-19.6,23.7-29.3,35.4
			c-3.7-3.2-6.8-5.9-9.9-8.6c11.8-14.8,23.5-29.2,35.7-44.5c15.9,12.6,31.8,25.1,48.3,38.1c-40.2,53.1-85.8,100-137.9,141.5
			c-13.4-16.1-26.5-31.8-39.7-47.7c13.7-11.4,26.9-22.4,40.8-33.9c2.8,3.1,5.7,6.2,9,9.7c-10.6,9.1-20.9,17.8-31.8,27.2
			C1376.6,1483.5,1383.9,1492.2,1391.6,1501.3z"/>
		<path class="st1" d="M400.9,1390.6c16.4-13.6,32-26.6,47.7-39.7c11.4,13.7,22.4,27,33.9,40.8c-3.1,2.9-6.2,5.7-9.8,9
			c-9.1-10.7-17.9-21-27.1-31.8c-8.9,7.5-17.4,14.7-26.8,22.6c35.8,45.1,76.1,84.6,122.3,119.2c7.4-9.2,14.2-17.6,21.6-26.8
			c-12-10-23.5-19.5-35.4-29.3c3.1-3.5,5.7-6.6,8.6-9.9c14.9,11.9,29.4,23.6,44.6,35.7c-12.6,15.9-25.1,31.8-38.1,48.2
			C489.4,1488.5,442.7,1442.9,400.9,1390.6z"/>
		<path class="st1" d="M1357.2,436.4c12.4,10.2,23.7,19.4,35.7,29.2c-3.1,3.5-5.8,6.6-8.8,10c-14.8-11.9-29.4-23.6-44.5-35.8
			c12.5-15.9,25-31.7,38-48.3c53.1,40,99.8,85.7,141.6,137.9c-15.9,13.2-31.6,26.3-47.7,39.7c-11.3-13.6-22.5-26.9-33.9-40.7
			c3.1-2.8,6.1-5.5,9.8-8.9c8.9,10.4,17.6,20.6,27.1,31.7c8.6-7.2,16.9-14.3,26.1-22c-1.3-2.2-2.3-4.6-3.9-6.5
			c-18.4-22.4-37.6-44.2-59.2-63.6c-18.3-16.5-37.5-31.9-56.3-47.8c-0.6-0.5-1.3-0.7-2.6-1.5
			C1371.6,418.6,1364.6,427.2,1357.2,436.4z"/>
		<path class="st1" d="M409.8,541.5c8.8,7.1,17.3,14,26.5,21.3c9.9-12,19.4-23.5,29.4-35.5c3.5,3.1,6.6,5.8,9.8,8.7
			c-12,14.9-23.7,29.5-35.8,44.6c-16-12.7-31.9-25.2-48.2-38.1c40.1-53,85.6-99.9,137.9-141.4c13.4,16.1,26.5,31.8,39.7,47.6
			c-13.7,11.4-27,22.4-40.9,33.9c-2.9-3.1-5.7-6.2-8.9-9.8c10.7-9.1,20.8-17.7,31.9-27.1c-7.4-8.8-14.7-17.5-21.7-25.9
			C512.7,425.4,425.3,514.3,409.8,541.5z"/>
		<path class="st1" d="M1547.6,697.1c3.7-1.7,7.4-3.3,11.9-5.4c5.3,12.6,10.4,24.8,16,38.3c10.7-4.2,21.1-8.4,31.3-12.5
			c-0.3-18.6-60.6-134-79-151.3c-9,5.9-18.3,11.9-28.2,18.4c8.4,13.2,16.4,25.7,24.6,38.7c-4.1,2.6-7.6,4.8-11.1,7
			c-10.5-16-20.7-31.5-31.4-47.8c16.6-11.1,33.4-22.3,51.1-34.1c37.9,54.4,68.5,112.2,92,174.9c-19.5,7.7-38.3,15.3-57.5,22.9
			C1560.7,729.6,1554.2,713.6,1547.6,697.1z"/>
		<path class="st1" d="M696.9,372.5c-1.7-4.2-3.2-7.8-5-12.1c12.5-5.2,24.6-10.3,37.5-15.6c-2.2-11.6-8.3-21.5-12.3-33
			c-54.1,20.3-103.9,46.4-151.2,79.6c6.4,9.9,12.4,19.2,18.8,29c13.1-8.3,25.7-16.3,38.7-24.7c2.5,3.9,4.6,7.4,7,11.1
			c-15.9,10.4-31.5,20.7-47.8,31.5c-11.3-16.9-22.5-33.7-34.1-51.2c54.5-38.1,112.5-68.4,174.9-92c7.7,19.4,15.2,38.3,22.9,57.6
			C729.6,359.5,713.6,365.9,696.9,372.5z"/>
		<path class="st1" d="M391.4,1354.3c9.8-6.4,19.1-12.4,28.9-18.9c-8.5-13.4-16.3-25.7-24.5-38.8c3.9-2.3,7.3-4.4,11.2-6.8
			c10.4,15.9,20.6,31.4,31.3,47.6c-16.7,11.1-33.4,22.3-51,34.1c-38.1-54.3-68.3-112.2-92.1-174.7c19.3-7.7,38.2-15.3,57.6-23.1
			c6.6,16.3,13,32.3,19.8,49.1c-3.7,1.7-7.5,3.4-12,5.3c-5.3-12.7-10.3-24.8-15.7-37.8c-11.2,2.8-21.4,8.1-32.8,12.5
			C332,1256.8,358.3,1306.4,391.4,1354.3z"/>
		<path class="st1" d="M1612.9,1188.1c-10.6-4-21-8-32-12.2c-5.7,14.5-11.1,28.4-16.8,42.7c-4.4-1.8-7.9-3.3-12.1-5.1
			c6.7-17.8,13.3-35.2,20.1-53.4c19.1,7,38,14,57.6,21.3c-21.6,62.7-50.6,121.5-87.3,177.2c-17.7-11.2-35-22-52.6-33.1
			c9.5-15.1,18.8-29.8,28.3-44.9c3.7,2.2,7.2,4.2,11.3,6.6c-7.2,11.9-14.2,23.4-21.7,35.7c10,6.2,19.6,12.1,29,17.9
			C1552.6,1326.3,1604.2,1222.5,1612.9,1188.1z"/>
		<path class="st1" d="M759.8,1572.1c-7.2,19.3-14.2,38.3-21.4,57.7c-62.7-22-121.3-50.8-177.1-87.5c11.1-17.6,22-34.9,33.1-52.5
			c15.1,9.5,29.7,18.7,44.8,28.2c-2.1,3.6-4.2,7.3-6.6,11.4c-12.1-7.3-23.5-14.3-35.7-21.7c-6.2,10.1-12.1,19.6-18.4,29.8
			c47.9,31.7,98.4,56.6,153.1,75.6c4.2-10.8,8.2-21.4,12.4-32.3c-14.6-5.8-28.4-11.2-42.8-16.9c1.9-4.3,3.5-8,5.3-11.9
			C724.2,1558.6,741.5,1565.2,759.8,1572.1z"/>
		<path class="st1" d="M308.3,732.5c10.3,3.9,20.6,7.7,31,11.5c5.8-14.8,11.2-28.6,16.8-42.8c4.4,1.9,8.1,3.5,12,5.2
			c-6.7,17.8-13.2,35.1-20.1,53.4c-19-7-37.8-14-57.6-21.3C312,675.6,341,617,377.7,561.3c18,11.3,35.1,22.1,52.5,33.1
			c-9.5,15.1-18.8,29.8-28.2,44.8c-3.8-2.2-7.3-4.2-11.3-6.6c7.3-12,14.2-23.4,21.7-35.7c-10.2-6.3-19.7-12.2-29-17.9
			C366.3,594.6,307.8,714,308.3,732.5z"/>
		<path class="st1" d="M1174.6,1631.8c-63.6,19.7-127.9,30.3-194.8,33.6c-1.4-21-2.7-41.1-4-61.9c17.7-1.1,34.9-2.2,52.8-3.4
			c0.3,1.9,0.6,3.9,0.8,5.9c0.2,2,0.3,4,0.6,7c-13.7,1.1-27.1,2.1-41.6,3.3c0.9,11.7,1.8,22.9,2.7,35.2
			c57.1-2.4,112.5-12.2,168.2-28.7c-2.9-11.2-5.7-21.9-8.8-33.6c-15,3.9-29.5,7.6-44.5,11.5c-1.2-4.6-2.2-8.5-3.2-12.7
			c18.6-5.1,36.6-10,55.1-15C1163.4,1592.6,1168.9,1611.9,1174.6,1631.8z"/>
		<path class="st1" d="M944.5,316.5c-17.7,1.2-34.9,2.3-53,3.5c-0.4-4.1-0.8-8-1.4-12.9c13.8-1.1,27-2.2,41.4-3.3
			c-0.8-11.7-1.5-23.1-2.3-35.4c-57.7,3-113.2,12.1-168.3,29.1c3,11.4,5.8,22.2,8.8,33.6c15.2-4,29.5-7.7,44.4-11.7
			c1.1,4.5,2,8.4,3.1,12.7c-18.3,5.1-36.1,10-54.9,15.2c-5.5-19.4-11-38.8-16.7-59c63.3-19.8,127.9-30.2,194.8-33.6
			C941.7,275.6,943.1,295.8,944.5,316.5z"/>
		<path class="st1" d="M1173.8,1567.2c16.7-6.7,32.7-13.1,49.3-19.7c1.6,3.7,3.3,7.4,5.3,12c-12.8,5.3-25.2,10.5-38.6,16.1
			c4.4,10.8,8.7,21.3,12.8,31.5c19.7-1.1,134.1-61.1,151.1-79.1c-5.9-9.1-12-18.4-18.4-28.2c-13.1,8.3-25.5,16.3-38.8,24.7
			c-2.4-4.1-4.5-7.7-6.6-11.3c16-10.6,31.4-20.7,47.5-31.3c11.2,16.7,22.5,33.7,34.1,51.1c-54.6,38.1-112.4,68.5-174.9,91.9
			C1189,1605.3,1181.5,1586.5,1173.8,1567.2z"/>
		<path class="st1" d="M1600.7,814.2c-4.6,1.1-8.6,2.1-12.6,3c-5.1-18.5-10.1-36.4-15.2-54.9c19.6-5.6,39-11.1,59.1-16.8
			c19.7,63.6,30.3,128.2,33.5,194.9c-21,1.3-41.1,2.6-61.9,3.9c-1.1-17.5-2.2-34.7-3.3-52.8c4-0.5,8-1,12.9-1.5
			c1.1,13.9,2.1,27.1,3.1,41.4c12-0.8,23.3-1.5,34.3-2.2c4-23.7-16.2-143.1-28.5-168.3c-10.7,2.8-21.6,5.7-32.9,8.7
			C1593.1,785,1596.8,799.3,1600.7,814.2z"/>
		<path class="st1" d="M1175.9,339.2c14.5,5.7,28.4,11.2,42.8,16.9c-1.9,4.5-3.5,8.2-5.1,12c-18-6.8-35.3-13.4-53.3-20.2
			c7-18.9,13.9-37.7,21.2-57.6c62.8,21.7,121.5,50.6,177.3,87.4c-11.1,17.6-22,34.8-33.2,52.5c-15-9.5-29.7-18.8-44.8-28.4
			c2.1-3.6,4.1-7.1,6.5-11.3c12,7.3,23.6,14.4,35.7,21.7c6.4-10.3,12.2-19.8,18.5-29.9c-48.3-31.8-98.7-56.7-153.2-75.5
			C1184.1,317.8,1180.1,328.2,1175.9,339.2z"/>
		<path class="st1" d="M288.1,1174.5c-19.6-63.9-30.2-128.3-33.6-194.9c20.9-1.3,41.1-2.6,61.9-3.9c1.2,18,2.3,35.1,3.5,52.8
			c-4.1,0.5-7.9,1-12.7,1.6c-1.2-13.9-2.4-27.5-3.6-41.9c-11.7,0.9-22.8,1.8-35.1,2.7c2.5,57.1,12.3,112.5,28.8,168.1
			c11.4-2.9,22.1-5.7,33.6-8.7c-3.9-15.1-7.6-29.5-11.4-44.5c4.5-1.2,8.4-2.1,12.6-3.2c5,18.4,9.9,36.2,15,55
			C327.8,1163.2,308.4,1168.8,288.1,1174.5z"/>
		<path class="st1" d="M254.8,956.3c1.1-66.7,10.7-131.1,28.1-195.4c20.3,5.1,40,10,60.2,15c-4.4,17.2-8.6,33.9-13.1,51.4
			c-4.2-0.8-8.3-1.6-12.9-2.5c3.3-13.6,6.5-26.5,9.9-40.7c-11.1-2.7-22.2-5.4-34.3-8.3c-15,55.7-23.7,111.2-24.4,169
			c11.7,0.6,22.6,1.1,34.6,1.7c0.5-7.8,0.9-15.2,1.4-22.6c0.5-7.5,1-15,1.6-23.2c4.4,0.3,8.2,0.6,12.8,1
			c-0.9,18.8-1.9,37.5-2.9,56.9C295.6,957.9,275.6,957.1,254.8,956.3z"/>
		<path class="st1" d="M1593.1,1136c11.8,2.8,22.7,5.4,34.3,8.2c14.9-55.6,23.5-111.2,24.4-169c-11.6-0.6-22.7-1.2-34.6-1.9
			c-1,15.6-1.9,30.5-2.9,46.1c-4.8-0.5-8.6-0.9-12.8-1.4c0.9-19,1.7-37.3,2.6-56.7c20.2,0.8,40.4,1.6,61.5,2.5
			c-1.7,66.3-10.5,131-28.4,195.3c-20.3-5.1-40-10-60.2-15.1c4.4-17.1,8.6-33.8,13.1-51.4c4,0.8,8,1.7,12.8,2.7
			C1599.6,1109,1596.4,1122,1593.1,1136z"/>
		<path class="st1" d="M963.8,255.6c31.1-4.6,168.5,15.4,195.1,28.3c-4.9,19.4-9.8,39-14.8,59.4c-17.2-4.4-33.9-8.7-51.4-13.2
			c0.9-4.2,1.7-8.3,2.7-12.9c13.6,3.3,26.5,6.5,40.5,9.9c2.8-11.2,5.5-22.3,8.6-34.4c-55.6-14.9-111.2-23.7-169.1-24.5
			c-0.7,11.7-1.3,22.9-2,34.6c15.4,1,30.1,2,45.9,3c-0.4,4.5-0.7,8.6-1.1,12.9c-19.1-1-37.5-2-56.8-3
			C962.2,295.7,963,275.7,963.8,255.6z"/>
		<path class="st1" d="M439.3,544c-3.7-3.3-6.8-6.1-10.6-9.5c13.6-15.5,26.8-30.6,40.3-46c15.1,13.9,29.5,27.1,44.5,40.9
			c-41.6,43.9-76.5,92.2-104.7,146.2c-17.7-9.8-34.8-19.3-52.9-29.3c9.4-16.3,18.5-32,27.7-48.1c4.4,2.6,8,4.7,11.9,7.1
			c-7,12.2-13.9,24.1-21.2,36.7c10.4,5.6,19.5,10.5,29.2,15.8c25.8-46.7,55.9-88.7,91.7-127.9c-8.4-7.6-16.1-14.6-24.5-22.2
			c-5.8,6.5-11,12.1-16,17.9C449.7,531.3,444.9,537.3,439.3,544z"/>
		<path class="st1" d="M1512.7,651c10-5.8,19.1-11,29-16.7c-8.5-14.1-16.6-27.4-24.8-41.1c3.8-2.2,7.4-4.3,12.1-7.1
			c10.6,17.7,20.8,34.8,31.4,52.5c-18.1,10.2-35.1,19.7-51.3,28.9c-16.6-25.2-32.5-50.5-49.5-74.9c-17.1-24.6-36.9-47-58.5-69
			c14.5-13.6,28.9-27,44.1-41.2c12.6,13.8,24.7,27.3,37.4,41.2c-3.9,3.4-7.2,6.3-10.6,9.3c-9.4-10.5-18.4-20.6-28.1-31.4
			c-8.3,7.7-15.9,14.6-24.4,22.4C1455.4,562.7,1486.7,604.6,1512.7,651z"/>
		<path class="st1" d="M1545.8,1278.2c-10-5.5-19.3-10.6-28.2-15.6c-14.8,22.8-28.2,45.3-43.4,66.5c-15.1,21-31.9,40.7-48.5,61.7
			c7.5,7,15.1,14,23.6,21.9c10.7-12.4,20.9-24.3,31.5-36.7c3.3,3,6.5,5.9,10.5,9.4c-13.4,15.3-26.5,30.4-40.3,46.1
			c-15.2-14-29.6-27.3-44.4-41.1c41.7-43.8,76.4-92,104.6-146c17.5,9.7,34.5,19.1,52.5,29c-8.4,16.6-17.5,32.4-27.6,48.1
			c-4-2.4-7.6-4.4-11.6-6.8C1531.5,1302.8,1538.4,1291,1545.8,1278.2z"/>
		<path class="st1" d="M760.9,1637c5.1-20.2,10-39.8,15.1-60.1c17.1,4.3,33.7,8.5,51.2,12.9c-0.8,4-1.5,8.1-2.4,13
			c-13.5-3.3-26.4-6.4-40.5-9.9c-2.8,11.2-5.6,22.2-8.3,32.8c13.8,10.5,145.8,30,168.9,25c0.6-10.7,1.1-21.7,1.7-33.6
			c-15.4-1-30.4-1.9-46-2.9c0.5-4.6,0.8-8.3,1.3-12.8c18.8,0.8,37.4,1.6,56.7,2.5c-0.8,20.3-1.6,40.3-2.4,61.4
			C889.8,1663.9,825.4,1654.7,760.9,1637z"/>
		<path class="st1" d="M501.4,476.4c7.9,8.5,14.8,16.1,21.8,23.6c20.7-16.8,40.4-34,61.4-49.4c21-15.5,43.3-29.2,65.8-44.2
			c-4.9-8.6-10.2-17.8-16-28c-13.9,8.4-27.1,16.5-41.1,24.9c-2.2-3.8-4.3-7.4-7-12.1c17.7-10.6,34.8-20.8,52.5-31.4
			c10.1,17.9,19.6,34.9,29.6,52.7c-53.1,28.8-101.1,64-144.7,106.6c-13.7-14.6-27-28.8-41.2-44c13.6-12.4,27-24.6,41-37.3
			c3.3,3.6,6.2,6.7,9.5,10.3C522.5,457.4,512.3,466.6,501.4,476.4z"/>
		<path class="st1" d="M1281.4,1560.2c-10.1-18-19.7-35-29.6-52.7c53.2-28.7,101.1-64.1,144.7-106.6c13.7,14.6,27.1,29,41.2,44.2
			c-14,12.6-27.4,24.8-41.2,37.3c-3.5-3.9-6.3-7.1-9.3-10.5c10.5-9.4,20.7-18.4,31.5-28.1c-7.7-8.4-14.7-16.1-22.5-24.6
			c-38.6,36.1-80.3,67.1-126.9,93.3c5.4,9.6,10.5,18.7,16.3,29.1c14-8.4,27.5-16.5,41.2-24.7c2.2,3.7,4.4,7.3,7.2,11.9
			C1316.6,1539.2,1299.4,1549.5,1281.4,1560.2z"/>
		<path class="st1" d="M347.8,859.7c-20.2-3.9-39.4-7.6-59.4-11.4c4-18.6,7.7-36.3,11.5-54.4c5.2,1.2,9.2,2.1,13.5,3.1
			c-2.9,13.6-5.7,26.9-8.8,41.2c11,2.2,21.3,4.2,32.6,6.4c10.1-52.2,25.7-102,47.7-150.2c-10.5-4.7-19.9-8.9-30.4-13.6
			c-6.4,15-12.4,29.3-18.7,44c-4-1.7-7.9-3.3-12.8-5.4c8.1-18.9,15.9-37.3,24-56.2c18.7,8.6,36.6,16.7,53.5,24.5
			c-10.7,28.4-21.8,56.1-31.7,84.3C359.3,800.3,353,829.5,347.8,859.7z"/>
		<path class="st1" d="M529.1,1425.7c-6.9,7.6-13.8,15.2-21.6,23.7c12.3,10.7,24,20.9,36.3,31.5c-3,3.3-5.8,6.5-9.4,10.4
			c-15.4-13.5-30.4-26.7-45.9-40.3c13.9-15.1,27-29.5,40.8-44.5c43.9,41.4,92,76.6,146.2,104.6c-9.7,17.6-19.2,34.7-29.3,52.9
			c-16.2-9.3-31.9-18.4-48.1-27.7c2.6-4.4,4.7-8.1,7-12.1c12.2,7.2,24,14,36.6,21.4c5.5-9.8,10.7-19,15.8-28.1
			c-22.4-14.5-44.8-27.9-66-43C570.3,1459.4,550.4,1442.5,529.1,1425.7z"/>
		<path class="st1" d="M1278.3,374.3c-5.5,9.9-10.7,19.1-15.6,28.1c22.8,14.8,45.3,28.2,66.5,43.4c21,15,40.8,31.9,61.9,48.5
			c7-7.6,14-15.2,21.7-23.7c-12.3-10.6-24-20.7-36.3-31.4c2.8-3.2,5.5-6.3,9.2-10.5c15.5,13.5,30.5,26.6,46.1,40.2
			c-13.9,15.1-27.1,29.4-40.9,44.4c-43.8-41.6-92.2-76.5-146.2-104.7c9.8-17.6,19.2-34.7,29.3-52.7c16,9.1,31.8,18.1,48.1,27.5
			c-2.5,4.3-4.7,8-7.1,12.1C1302.7,388.5,1290.9,381.6,1278.3,374.3z"/>
		<path class="st1" d="M848.4,1631.5c-18.5-3.9-36.1-7.6-54.5-11.5c1.2-4.8,2.2-8.9,3.3-13.4c13.7,2.9,26.8,5.7,41.1,8.7
			c2.2-11,4.3-21.5,6.5-32.5c-52.3-10.3-101.9-25.9-150.1-47.8c-4.7,10.4-9,19.9-13.8,30.3c15,6.4,29.3,12.4,44.2,18.8
			c-1.7,4-3.4,7.8-5.6,12.7c-18.8-8.1-37.2-15.9-56.1-24c8.6-18.8,16.8-36.6,25.2-54.9c54.6,26.2,111.5,44.3,171.3,54.4
			C856,1592,852.3,1611.1,848.4,1631.5z"/>
		<path class="st1" d="M411,1252.4c16.9,25.7,32.3,51.4,50,75.4c17.6,23.9,37.5,46,56.9,69.6c-13.4,12.5-27.6,25.8-42.9,40
			c-12.4-13.6-24.6-27-37.2-41c3.6-3.3,6.7-6.2,10.2-9.4c9.4,10.4,18.5,20.5,28.3,31.4c8.2-7.6,15.9-14.6,24.4-22.4
			c-36.2-38.9-67.2-80.7-93.4-126.9c-9.8,5.6-18.9,10.7-28.9,16.4c8.3,13.8,16.4,27.1,24.7,41c-3.7,2.2-7.3,4.4-12,7.2
			c-10.4-17.4-20.6-34.4-31.3-52.4C377.6,1271.3,394.7,1261.7,411,1252.4z"/>
		<path class="st1" d="M1046.8,1620.8c-1.3-11.3-2.6-21.8-3.9-33.1c-52.8,6.6-104.9,7.2-157.8,0.9c-1.2,11.3-2.2,21.6-3.4,33.3
			c16.2,1.4,31.6,2.8,47.5,4.2c-0.3,4.3-0.5,8.2-0.8,12.6c-20.6,0.4-40.2-2.2-61.2-5c2.3-19.7,4.6-39.2,6.9-59.3
			c60.2,7.9,119.8,7.7,179.8-1.3c2.5,20.1,4.9,39.5,7.4,59.9c-18.7,2-36.6,4-54.9,5.9c-0.7-4.8-1.3-8.8-2-13.7
			C1018.4,1623.8,1031.9,1622.4,1046.8,1620.8z"/>
		<path class="st1" d="M1200.5,323.2c19,8.1,37.3,15.9,56.3,24.1c-8.5,18.6-16.7,36.4-25.1,54.9c-54.6-25.9-111.2-44.4-171.3-54.2
			c3.8-19.9,7.5-39.3,11.4-59.4c18.2,3.8,35.8,7.6,54.3,11.5c-1.1,5-2,9.3-3,13.5c-14-2.9-27.1-5.7-41.3-8.6
			c-2.2,11.1-4.3,21.2-6.6,32.5c52,10.1,101.9,25.7,150.3,47.8c4.7-10.4,8.9-19.7,13.7-30.3c-14.7-6.3-29-12.3-44.1-18.8
			C1196.7,332,1198.4,328.2,1200.5,323.2z"/>
		<path class="st1" d="M1561.8,673.2c-10.6,4.9-20.1,9.3-30.2,14c22.6,48,38.9,97.3,49.7,149.5c10.9-2.2,21-4.2,32.6-6.5
			c-3.7-16-7.2-31.1-10.8-46.9c4-0.9,8.1-1.8,13.4-3c4.5,19.7,9,39,13.7,59.5c-19.8,4.1-39,8-59.3,12.2
			c-10.8-59.4-29.6-115.9-56.7-170.6c18-8.4,35.7-16.7,54.6-25.6c7.6,16.9,15,33.4,22.6,50.4c-4.4,2.1-8.2,4-12.6,6.1
			C1573.2,699.2,1567.7,686.7,1561.8,673.2z"/>
		<path class="st1" d="M1083.2,1581.2c2.3,11,4.3,21,6.5,31.8c16.1-1.6,31.1-6.6,46.9-10.2c1,4.4,1.8,8.4,3,13.7
			c-19.8,4.6-39.2,9.1-59.4,13.8c-4.1-20.2-7.9-39.4-12-59.4c59.8-10.9,116.3-29.8,170.6-56.7c8.5,18.1,16.7,35.8,25.6,54.6
			c-16.9,7.6-33.4,15-50.6,22.7c-2-4.4-3.8-8.3-5.8-12.8c12.8-5.6,25.4-11.1,38.9-17.1c-4.8-10.2-9.3-19.8-14.2-30.2
			C1184.8,1554.1,1135.4,1570.3,1083.2,1581.2z"/>
		<path class="st1" d="M1572.3,1060.3c20,3.8,39.1,7.5,59.3,11.4c-3.8,18.2-7.5,35.7-11.3,54.1c-4.8-0.9-8.7-1.6-13.6-2.5
			c2.9-13.8,5.7-27.1,8.8-41.4c-10.9-2.2-21.4-4.3-32.6-6.5c-10.3,52-25.6,101.7-47.8,150.1c10.2,4.6,19.7,9,30.3,13.8
			c6.3-14.8,12.4-29.1,18.8-44.2c3.9,1.7,7.7,3.4,12.6,5.5c-8.1,18.9-15.9,37.3-23.9,56.2c-18.7-8.6-36.4-16.7-54.9-25.1
			C1543.9,1177,1562.3,1120.4,1572.3,1060.3z"/>
		<path class="st1" d="M289.9,1080.1c20.5-4.1,39.7-8,59.3-12c10.9,60.2,29.8,116.5,56.6,170.6c-18.1,8.5-35.7,16.7-54.6,25.5
			c-7.6-17-15-33.5-22.7-50.6c4.6-2,8.4-3.8,12.7-5.7c5.7,12.9,11.2,25.4,17.2,38.8c10.2-4.7,19.6-9.1,30.1-14
			c-22.2-48-39.1-97.2-49.5-149.6c-10.9,2.2-21.2,4.2-32.8,6.5c3.6,15.9,7.1,31,10.8,46.8c-4,0.9-8.1,1.9-13.5,3.1
			C298.9,1119.9,294.5,1100.5,289.9,1080.1z"/>
		<path class="st1" d="M839.8,289.8c4.1,20.4,8,39.5,12.1,59.3c-59.6,10.8-116,29.6-170.6,56.6c-8.4-18-16.8-35.8-25.6-54.6
			c17-7.6,33.5-15,50.6-22.6c2.2,4.7,4,8.6,5.9,12.7c-12.8,5.6-25,10.8-38.4,16.7c3.4,10.3,8.5,19.5,13,29.6
			c24.6-9.5,48.5-19.9,73.2-28c24.7-8.2,50.2-14.3,76.5-21.7c-1.9-9.8-3.9-20.1-6.2-31.7c-15.9,3.7-31.1,7.2-46.8,10.9
			c-1-4.2-1.9-8.2-3.1-13.5C800.1,299,819.5,294.5,839.8,289.8z"/>
		<path class="st1" d="M1574.6,1045.8c7.7-60.1,7.9-119.5-1.5-179.7c19.9-2.4,39.3-4.8,60-7.3c2,18.3,3.9,36.3,6,54.9
			c-5,0.6-9,1.1-13.7,1.6c-1.5-14.1-3-27.7-4.5-42.1c-11,1.3-21.5,2.6-33,3.9c6.4,52.4,7.3,104.5,0.8,157.5
			c11.2,1.3,21.7,2.6,33.3,3.9c1.4-16.2,2.8-31.7,4.2-47.9c4.3,0.4,8.3,0.8,13.6,1.3c-1.8,20.3-3.5,40.3-5.3,60.9
			C1614,1050.5,1594.6,1048.2,1574.6,1045.8z"/>
		<path class="st1" d="M1052.9,285.5c-2.4,20.3-4.7,39.6-7.2,60.1c-60-8.2-119.6-7.8-179.6,1.2c-2.5-20.2-4.8-39.5-7.3-59.9
			c18.4-1.9,36.4-3.8,55-5.8c0.6,5.2,1,9.2,1.5,13.6c-13.9,1.5-27.1,2.9-41.2,4.3c-0.6,11,2.3,21.3,3.1,33.1
			c52.5-6.4,104.8-6.9,157.8-1c1.2-11.3,2.4-21.7,3.6-33.1c-16.1-1.4-31.5-2.8-47.7-4.2c0.4-4.2,0.7-8.2,1.2-13.7
			C1012.3,282,1032,283.7,1052.9,285.5z"/>
		<path class="st1" d="M346.8,1053.9c-20.2,2.5-39.5,4.9-59.8,7.4c-2-18.6-3.9-36.5-5.9-55c5-0.6,9.2-1.1,13.7-1.6
			c1.4,14,2.8,27.4,4.3,41.9c11.1-1.2,21.6-2.4,33.1-3.6c-6.5-52.7-7-104.8-1-157.7c-11.2-1.3-21.6-2.4-33.3-3.7
			c-1.4,16.1-2.7,31.5-4.1,47.8c-4-0.3-8-0.7-11.8-1c-2.1-6.1,0.1-38.3,4.3-61c19.4,2.3,38.8,4.5,59.2,6.9
			C337.5,934.3,337.7,993.7,346.8,1053.9z"/>
		<g>
			<g>
				<path class="st2" d="M993.3,717.3c0,0-24,9-36,31c19-3,64,6,76-4l-11-14L993.3,717.3z"/>
				<g>
					<path class="st1" d="M966.2,744.2c1-1.8,2.6-3.1,4.1-4.3l1.2-0.9c0.4-0.3,0.9-0.5,1.3-0.8c0.8-0.5,1.7-1,2.6-1.4
						c3.6-1.7,7.4-2.9,11.2-3.9c1-0.3,1.9-0.4,2.9-0.7c1-0.2,1.9-0.5,2.9-0.6c2-0.3,3.9-0.7,5.9-0.8c2-0.1,4-0.2,5.9-0.2
						c2,0,4,0.2,5.9,0.3l0,0.2c-2,0.4-3.9,0.7-5.8,0.9c-1,0.1-1.9,0.3-2.9,0.4l-2.9,0.4c-1,0.1-1.9,0.3-2.9,0.4l-2.9,0.3
						c-1.9,0.2-3.9,0.5-5.8,0.9c-3.8,0.8-7.6,1.8-11.2,3.2c-0.9,0.4-1.8,0.7-2.7,1.2c-0.4,0.2-0.9,0.4-1.3,0.7l-1.2,0.7
						c-1.6,1.1-3.2,2.2-4.3,3.9L966.2,744.2z"/>
				</g>
				<g>
					<path class="st1" d="M991.2,742.2c1-0.8,2-1.7,2.9-2.5c0.9-0.9,1.8-1.7,2.7-2.7c0.9-0.9,1.5-2,2.3-2.9c0.8-0.9,1.6-1.7,2.3-2.9
						l0.2,0c0.1,0.3,0.1,0.7,0.1,1.1c0,0.3-0.1,0.7-0.2,1.1c-0.2,0.7-0.5,1.3-0.8,1.9c-0.7,1.2-1.8,2-2.8,2.8
						c-2.1,1.7-4.2,3.1-6.6,4.2L991.2,742.2z"/>
				</g>
				<g>
					<path class="st1" d="M1006.2,742.2c0.6-0.8,1.3-1.5,1.8-2.3c0.6-0.8,1.2-1.5,1.8-2.3c0.6-0.8,0.9-1.6,1.6-2.3
						c0.6-0.7,1.2-1.2,1.8-2.1h0.2c0.3,0.5,0.3,1.1,0.2,1.7c-0.1,0.5-0.3,1.1-0.5,1.5c-0.5,0.9-1.3,1.6-2,2.3
						c-0.7,0.7-1.5,1.3-2.3,1.9c-0.8,0.6-1.6,1.2-2.4,1.7L1006.2,742.2z"/>
				</g>
			</g>
			<g>
				<path class="st2" d="M970.3,688.3c38,81,88,50,131,71.9l5-7.9c0,0-8.2-0.4-17.8-5.2c-7.6-3.8-13.8-9.9-18.3-17
					c-7.5-11.8-16.9-19.9-26.6-25.5c-13.3-8-33.9-9.1-46.9-10.2c-4.7-0.4-9.3-1.2-13.8-2.5L970.3,688.3z"/>
				<g>
					<path class="st1" d="M978.3,693.3c1.9,2.3,4.1,4.2,6.3,6c2.3,1.8,4.6,3.6,7,5.2c4.8,3.3,9.9,6.2,15.1,9
						c10.3,5.6,21,10.6,31.7,15.5c10.7,4.9,21.6,9.4,32.5,13.8c10.9,4.4,21.9,8.7,32.9,12.7l-1,2.8c-11.1-4-22.1-8.3-33-12.8
						c-10.9-4.5-21.7-9.2-32.5-14.2c-10.7-5-21.3-10.3-31.6-16.1c-5.1-2.9-10.2-6-15.1-9.4c-2.4-1.7-4.8-3.5-7-5.5
						c-0.5-0.5-1.1-1-1.6-1.6c-0.5-0.5-1-1.1-1.5-1.7c-0.5-0.6-0.9-1.2-1.3-1.9C978.9,694.7,978.6,694,978.3,693.3z"/>
				</g>
				<g>
					<g>
						<path class="st1" d="M1002.4,701.2c1.1,1.1,2.1,2.2,3,3.3c1,1.2,1.9,2.4,2.7,3.6c0.9,1.2,1.8,2.5,2.3,4
							c0.1,0.4,0.2,0.7,0.3,1.1c0.1,0.4,0.1,0.8,0.2,1.2c0,0.4,0,0.8,0,1.2c-0.1,0.4-0.2,0.8-0.3,1.2l-0.2,0
							c-0.5-1.5-1.2-2.7-1.8-3.9c-0.7-1.2-1.1-2.6-1.8-3.9c-0.7-1.3-1.4-2.6-2.2-3.9c-0.8-1.3-1.6-2.5-2.4-3.8L1002.4,701.2z"/>
					</g>
					<g>
						<path class="st1" d="M1002.3,718.2c1,0,2,0.1,3,0.1c1,0,2,0.1,3,0.1c1,0,2-0.2,2.9-0.1c1,0.1,1.8,0.3,2.9,0.4l0.1,0.2
							c-0.3,0.5-0.9,0.9-1.4,1.1c-0.5,0.2-1.1,0.3-1.6,0.4c-1.1,0.2-2.1-0.2-3.1-0.4c-1-0.2-2-0.4-3-0.7c-1-0.3-2-0.6-2.9-0.9
							L1002.3,718.2z"/>
					</g>
					<g>
						<path class="st1" d="M1016.4,705.2c1.2,1.1,2.2,2.4,3.1,3.7c0.9,1.3,1.8,2.7,2.5,4.3c0.7,1.5,1.4,3.1,1.5,4.8
							c0.1,1.7-0.2,3.5-1.1,4.9l-0.2,0c-0.2-1.7-0.4-3.1-0.7-4.6c-0.4-1.5-0.5-3-1-4.5c-0.5-1.5-1.1-2.9-1.9-4.3
							c-0.7-1.4-1.5-2.8-2.4-4.1L1016.4,705.2z"/>
					</g>
					<g>
						<path class="st1" d="M1016.3,728.2l2.8-0.8l2.8-0.8c0.9-0.3,1.8-0.7,2.7-0.9c0.4-0.1,0.9-0.1,1.3-0.2c0.2,0,0.4-0.1,0.6-0.1
							c0.2-0.1,0.4,0,0.4-0.3l0.2-0.1c0.3,0.2,0.2,0.8,0,1c-0.2,0.3-0.4,0.5-0.6,0.7c-0.4,0.4-0.9,0.6-1.4,0.9
							c-0.9,0.4-2,0.4-2.9,0.5c-1,0.1-2,0.2-2.9,0.2c-1,0-2,0-2.9,0L1016.3,728.2z"/>
					</g>
					<g>
						<path class="st1" d="M1033.4,709.2c1.4,1.5,2.6,3.2,3.8,4.8c1.2,1.7,2.2,3.5,3.1,5.4c0.9,1.9,1.8,3.8,2,6
							c0.2,2.1-0.1,4.5-1.4,6.2l-0.2-0.1c0.2-2.1,0-3.9-0.4-5.8c-0.4-1.9-0.8-3.8-1.5-5.7c-0.7-1.9-1.5-3.7-2.5-5.5
							c-0.9-1.8-2-3.5-3.1-5.2L1033.4,709.2z"/>
					</g>
					<g>
						<path class="st1" d="M1025.3,738.2c1.7-0.2,3.4-0.4,5-0.7c1.7-0.2,3.3-0.6,4.9-0.9c1.6-0.4,3.2-1,4.7-1.4c1.5-0.5,3-0.9,4.4-2
							l0.2,0.1c-0.2,0.9-0.8,1.7-1.5,2.3c-0.7,0.6-1.5,1.1-2.3,1.4c-1.6,0.8-3.4,0.9-5.1,1.1c-3.4,0.4-6.8,0.5-10.3,0.2
							L1025.3,738.2z"/>
					</g>
					<g>
						<path class="st1" d="M1047.3,743.2c3.4,0.3,6.8,0.4,10,0c1.6-0.2,3.3-0.6,4.5-1.5c1.1-0.8,1-2.4,0.5-3.9
							c-0.5-1.5-1.3-2.9-2.3-4.3c-0.9-1.4-1.9-2.7-2.9-4c-1.9-2.7-4-5.3-6-8.1l0.1-0.1c2.8,2,5.2,4.4,7.4,7c1.1,1.3,2.1,2.7,3,4.2
							c0.9,1.5,1.6,3.1,2.1,4.9c0.2,0.9,0.4,1.8,0.2,2.8c-0.1,0.5-0.2,1-0.5,1.4c-0.3,0.5-0.6,0.8-1.1,1.1c-0.8,0.6-1.7,0.8-2.5,1.1
							c-0.9,0.2-1.7,0.3-2.6,0.4c-3.4,0.2-6.8-0.2-10.2-0.8L1047.3,743.2z"/>
					</g>
				</g>
			</g>
			<circle class="st1" cx="1088.8" cy="761.8" r="6.5"/>
			<circle class="st1" cx="1086.8" cy="745.8" r="6.5"/>
			<g>
				<g>
					<path class="st2" d="M1097.3,730.3c31.4,13,49.4,31.4,60.2,52.3c10.8,20.9,12.8,49.7,16.8,66.7l8,23l-3,14
						c-3-9.1-6.6-15.8-10.3-22.5c-3.8-6.7-8.3-13-13.6-18.7C1131.3,819.6,1104.3,811.8,1097.3,730.3z"/>
					<g>
						<path class="st1" d="M1103.3,740.3c2.5,2.3,4.7,4.9,6.7,7.5c2,2.7,3.9,5.5,5.8,8.2c3.8,5.5,7.6,11,11.3,16.6
							c7.4,11.1,14.7,22.4,21.5,34c6.8,11.6,13.1,23.4,18.9,35.5c5.7,12.2,10.8,24.7,14.6,37.6l-2.9,0.9c-4-12.6-9.1-25-14.8-37
							c-5.7-12-12-23.8-18.7-35.3c-6.7-11.5-13.7-22.9-21-34.1c-3.6-5.6-7.3-11.2-11.1-16.7C1110,751.9,1105.9,746.6,1103.3,740.3z"
							/>
					</g>
					<g>
						<path class="st1" d="M1165.4,828.3c0.6,2.3,1,4.5,1.3,6.9c0.2,1.2,0.3,2.3,0.3,3.5c0,1.2,0.1,2.4-0.3,3.7l-0.2,0.5
							c-0.1,0.2-0.2,0.4-0.4,0.6c-0.4,0.4-0.9,0.5-1.3,0.5c-0.8,0.1-1.5-0.1-2.1-0.3c-1.2-0.4-2.3-0.9-3.3-1.6
							c-2-1.3-3.8-2.9-5.3-4.7l0.1-0.2c2.2,1,4.1,2.1,6.1,3.2c1,0.5,2,1,2.9,1.5c0.5,0.2,1,0.4,1.3,0.4c0.2,0,0.3,0,0.3,0
							c0,0,0,0,0.1-0.1l0.1-0.3c0.3-0.9,0.4-2.1,0.5-3.2c0.1-1.1,0-2.3,0-3.4c-0.1-2.3-0.3-4.6-0.5-6.9L1165.4,828.3z"/>
					</g>
					<g>
						<path class="st1" d="M1159.4,799.3c-0.1,1.8-0.3,3.6-0.5,5.4c-0.2,1.8-0.4,3.6-0.7,5.3c-0.3,1.8-0.6,3.6-1,5.3
							c-0.2,0.9-0.5,1.8-0.8,2.7c-0.4,0.9-0.6,1.8-1.6,2.7l0,0l0,0c-0.7,0.5-1.5,0.8-2.4,0.9c-0.8,0.1-1.6,0.1-2.4-0.1
							c-1.5-0.3-2.9-0.9-4.2-1.6c-1.3-0.7-2.5-1.6-3.6-2.5c-1.1-0.9-2.1-1.9-3-3.1l0.1-0.1c2.4,1.5,4.8,2.9,7.3,4
							c1.2,0.5,2.5,1,3.7,1.3c1.2,0.3,2.4,0.3,3.4-0.3l-0.1,0c0.4-0.3,0.9-1.1,1.2-1.9c0.3-0.8,0.6-1.6,0.9-2.4
							c0.5-1.7,1-3.4,1.3-5.1c0.8-3.5,1.5-7,2-10.5L1159.4,799.3z"/>
					</g>
					<g>
						<path class="st1" d="M1148.4,781.3c0.4,3.8,0.6,7.6,0.5,11.4c-0.1,1.9-0.1,3.9-0.7,5.8c-0.3,0.9-0.7,1.9-1.2,2.8
							c-0.5,0.9-1.2,1.7-2.2,2.1l-0.1-0.2c0.6-0.8,0.8-1.6,1-2.5c0.2-0.9,0.4-1.8,0.5-2.7c0.3-1.8,0.8-3.6,1-5.5
							c0.3-1.9,0.4-3.7,0.6-5.6c0.2-1.9,0.3-3.8,0.3-5.7L1148.4,781.3z"/>
					</g>
					<g>
						<path class="st1" d="M1120.4,794.2c1.7,1.1,3.5,2,5.4,2.8c1.8,0.8,3.8,1.4,5.7,1.9c1.9,0.5,3.9,0.6,5.8,0.9
							c1.9,0.4,3.9,0.5,6,0.9l0,0.2c-2,0.7-4.1,1-6.2,0.9c-1.1,0-2.1-0.2-3.1-0.4c-1-0.3-2-0.6-3-0.9c-2-0.7-3.9-1.5-5.7-2.5
							c-1.8-1-3.5-2.1-5.1-3.5L1120.4,794.2z"/>
					</g>
					<g>
						<path class="st1" d="M1136.4,773.2c0.5,1.1,0.8,2.2,1.1,3.3c0.3,1.1,0.5,2.3,0.5,3.5c0,1.2,0.1,2.6-0.7,3.8
							c-0.7,1.2-2.1,2.1-3.4,1.8l-0.1-0.2c0.9-0.9,1.4-1.6,1.7-2.5c0.3-0.9,0.7-1.8,0.8-2.9c0.1-1.1,0.2-2.2,0.1-3.3
							c0-1.1-0.2-2.3-0.3-3.4L1136.4,773.2z"/>
					</g>
					<g>
						<path class="st1" d="M1114.4,777.2c1.3,0.8,2.7,1.5,4,2c1.4,0.6,2.8,1.1,4.2,1.5c1.4,0.4,2.9,0.5,4.2,0.6
							c1.4,0.1,2.7,0.1,4.3-0.2l0.1,0.2c-1,1.3-2.8,1.9-4.4,2c-0.8,0.1-1.7-0.1-2.4-0.3c-0.8-0.3-1.5-0.5-2.2-0.8
							c-1.5-0.6-2.8-1.3-4.1-2.1c-1.3-0.9-2.5-1.7-3.7-2.8L1114.4,777.2z"/>
					</g>
					<g>
						<path class="st1" d="M1125.4,761.3c0.4,0.9,0.7,1.8,1,2.7c0.3,0.9,0.5,1.9,0.6,2.8c0.1,1,0.4,2,0.1,3c-0.3,1-0.7,2-1.7,2.6
							l-0.2-0.1c-0.1-1.1-0.1-1.9-0.1-2.8c0-0.9,0.2-1.7,0.3-2.6c0-0.9,0-1.8,0-2.8c0-0.9-0.1-1.9-0.2-2.8L1125.4,761.3z"/>
					</g>
					<g>
						<path class="st1" d="M1108.3,763.2c1.2,0.6,2.4,1.3,3.6,1.8c1.2,0.6,2.4,1.2,3.6,1.6c1.2,0.5,2.5,0.8,3.6,1.2
							c0.6,0.2,1.1,0.4,1.7,0.6c0.6,0.1,1.1,0.2,1.7-0.1l0.2,0.1c-0.2,0.8-1.1,1.2-1.9,1.4c-0.8,0.1-1.5,0.1-2.3,0
							c-1.4-0.2-2.6-1.1-3.8-1.7c-2.4-1.4-4.6-3-6.6-4.7L1108.3,763.2z"/>
					</g>
				</g>
				<circle class="st1" cx="1175.8" cy="848.8" r="6.5"/>
				<circle class="st1" cx="1166.8" cy="864.8" r="6.5"/>
			</g>
			<g>
				<path class="st2" d="M946.4,688.3c-38,81-88,50-131,71.9l-5-7.9c0,0,8.2-0.4,17.8-5.2c7.6-3.8,13.8-9.9,18.3-17
					c7.5-11.8,16.9-19.9,26.6-25.5c13.3-8,33.9-9.1,46.9-10.2c4.7-0.4,9.3-1.2,13.8-2.5L946.4,688.3z"/>
				<g>
					<path class="st1" d="M938.4,693.3c-0.3,0.7-0.6,1.4-1,2c-0.4,0.6-0.8,1.3-1.3,1.9c-0.5,0.6-0.9,1.2-1.5,1.7
						c-0.5,0.5-1.1,1.1-1.6,1.6c-2.2,2-4.6,3.8-7,5.5c-4.9,3.4-9.9,6.5-15.1,9.4c-10.3,5.8-20.9,11.1-31.6,16.1
						c-10.7,5-21.5,9.7-32.5,14.2c-10.9,4.5-21.9,8.8-33,12.8l-1-2.8c11-4.1,22-8.3,32.9-12.7c10.9-4.4,21.8-9,32.5-13.8
						c10.7-4.9,21.4-9.9,31.7-15.5c5.2-2.8,10.2-5.8,15.1-9c2.4-1.6,4.8-3.4,7-5.2C934.3,697.5,936.5,695.6,938.4,693.3z"/>
				</g>
				<g>
					<g>
						<path class="st1" d="M914.4,701.3c-0.8,1.2-1.6,2.5-2.4,3.8c-0.8,1.3-1.5,2.5-2.2,3.9c-0.7,1.3-1.1,2.7-1.8,3.9
							c-0.7,1.3-1.3,2.5-1.8,3.9l-0.2,0c-0.1-0.4-0.2-0.8-0.3-1.2c0-0.4,0-0.8,0-1.2c0-0.4,0.1-0.8,0.2-1.2c0.1-0.4,0.2-0.8,0.3-1.1
							c0.5-1.5,1.4-2.7,2.3-4c0.9-1.2,1.8-2.4,2.7-3.6c1-1.1,2-2.3,3-3.3L914.4,701.3z"/>
					</g>
					<g>
						<path class="st1" d="M914.4,718.4c-1,0.3-1.9,0.6-2.9,0.9c-1,0.3-2,0.5-3,0.7c-1,0.2-2,0.5-3.1,0.4c-0.5-0.1-1.1-0.2-1.6-0.4
							c-0.5-0.2-1.1-0.5-1.4-1.1l0.1-0.2c1.1,0,1.9-0.3,2.9-0.4c0.9-0.1,1.9,0.1,2.9,0.1c1,0,2,0,3-0.1c1,0,2-0.1,3-0.1L914.4,718.4
							z"/>
					</g>
					<g>
						<path class="st1" d="M900.4,705.3c-0.9,1.3-1.7,2.7-2.4,4.1c-0.7,1.4-1.4,2.8-1.9,4.3c-0.5,1.5-0.7,3-1,4.5
							c-0.3,1.5-0.5,2.9-0.7,4.6l-0.2,0c-0.9-1.5-1.2-3.2-1.1-4.9c0.1-1.7,0.8-3.3,1.5-4.8c0.7-1.5,1.6-2.9,2.5-4.3
							c1-1.3,2-2.6,3.1-3.7L900.4,705.3z"/>
					</g>
					<g>
						<path class="st1" d="M900.4,728.4c-1,0.1-1.9,0-2.9,0c-1,0-2-0.1-2.9-0.2c-1-0.1-2-0.1-2.9-0.5c-0.5-0.2-0.9-0.5-1.4-0.9
							c-0.2-0.2-0.4-0.4-0.6-0.7c-0.2-0.2-0.3-0.8,0-1l0.2,0.1c0.1,0.2,0.3,0.2,0.4,0.3c0.2,0,0.4,0.1,0.6,0.1
							c0.4,0.1,0.9,0.1,1.3,0.2c0.9,0.1,1.8,0.6,2.7,0.9l2.8,0.8l2.8,0.8L900.4,728.4z"/>
					</g>
					<g>
						<path class="st1" d="M883.4,709.3c-1.1,1.7-2.2,3.4-3.1,5.2c-1,1.8-1.8,3.6-2.5,5.5c-0.7,1.9-1.1,3.8-1.5,5.7
							c-0.4,1.9-0.6,3.8-0.4,5.8l-0.2,0.1c-1.3-1.7-1.6-4.1-1.4-6.2c0.2-2.2,1.1-4.1,2-6c0.9-1.9,2-3.7,3.1-5.4
							c1.2-1.7,2.4-3.3,3.8-4.8L883.4,709.3z"/>
					</g>
					<g>
						<path class="st1" d="M891.4,738.4c-3.4,0.2-6.8,0.2-10.3-0.2c-1.7-0.2-3.5-0.4-5.1-1.1c-0.8-0.4-1.6-0.8-2.3-1.4
							c-0.7-0.6-1.3-1.4-1.5-2.3l0.2-0.1c1.3,1.1,2.8,1.5,4.4,2c1.5,0.4,3.1,1,4.7,1.4c1.6,0.4,3.3,0.7,4.9,0.9
							c1.7,0.3,3.3,0.5,5,0.7L891.4,738.4z"/>
					</g>
					<g>
						<path class="st1" d="M869.4,743.4c-3.3,0.6-6.7,0.9-10.2,0.8c-0.9-0.1-1.7-0.2-2.6-0.4c-0.9-0.2-1.7-0.5-2.5-1.1
							c-0.4-0.3-0.8-0.7-1.1-1.1c-0.2-0.5-0.4-1-0.5-1.4c-0.1-1,0-1.9,0.2-2.8c0.5-1.8,1.3-3.3,2.1-4.9c0.9-1.5,1.9-2.9,3-4.2
							c2.2-2.6,4.7-5,7.4-7l0.1,0.1c-2,2.8-4.1,5.4-6,8.1c-1,1.4-2,2.7-2.9,4c-0.9,1.4-1.8,2.8-2.3,4.3c-0.5,1.5-0.6,3.1,0.5,3.9
							c1.1,0.9,2.8,1.2,4.5,1.5c3.3,0.4,6.7,0.3,10,0L869.4,743.4z"/>
					</g>
				</g>
			</g>
			<circle class="st1" cx="829.9" cy="759.8" r="6.5"/>
			<circle class="st1" cx="826.8" cy="744.8" r="6.5"/>
			<g>
				<g>
					<path class="st2" d="M819.4,730.3c-31.4,13-49.4,31.4-60.2,52.3c-10.8,20.9-12.8,49.7-16.8,66.7l-8,23l3,14
						c3-9.1,6.6-15.8,10.3-22.5c3.8-6.7,8.3-13,13.6-18.7C785.4,819.6,812.4,811.8,819.4,730.3z"/>
					<g>
						<path class="st1" d="M813.4,740.3c-2.6,6.3-6.7,11.6-10.4,17.2c-3.7,5.5-7.4,11.1-11.1,16.7c-7.3,11.2-14.3,22.5-21,34.1
							c-6.7,11.5-13,23.3-18.7,35.3c-5.7,12-10.7,24.3-14.8,37l-2.9-0.9c3.8-12.9,8.9-25.4,14.6-37.6c5.7-12.1,12.1-24,18.9-35.5
							c6.8-11.6,14-22.8,21.5-34c3.7-5.6,7.5-11.1,11.3-16.6c1.9-2.7,3.8-5.5,5.8-8.2C808.7,745.2,810.8,742.6,813.4,740.3z"/>
					</g>
					<g>
						<path class="st1" d="M751.5,828.3c-0.2,2.3-0.5,4.6-0.5,6.9c-0.1,1.1-0.1,2.3,0,3.4c0.1,1.1,0.1,2.3,0.5,3.2l0.1,0.3
							c0.1,0.1,0.1,0.1,0.1,0.1c0,0,0.1,0,0.3,0c0.3,0,0.8-0.2,1.3-0.4c1-0.4,1.9-0.9,2.9-1.5c2-1,4-2.2,6.1-3.2l0.1,0.2
							c-1.5,1.9-3.3,3.4-5.3,4.7c-1,0.7-2.1,1.2-3.3,1.6c-0.6,0.2-1.3,0.3-2.1,0.3c-0.4,0-0.9-0.2-1.3-0.5c-0.2-0.2-0.4-0.4-0.4-0.6
							l-0.2-0.5c-0.4-1.3-0.3-2.5-0.3-3.7c0.1-1.2,0.2-2.3,0.3-3.5c0.3-2.3,0.8-4.6,1.3-6.9L751.5,828.3z"/>
					</g>
					<g>
						<path class="st1" d="M757.5,799.3c0.6,3.5,1.2,7,2,10.5c0.4,1.7,0.8,3.5,1.3,5.1c0.3,0.8,0.6,1.7,0.9,2.4
							c0.3,0.8,0.8,1.6,1.2,1.9l-0.1,0c1,0.6,2.2,0.6,3.4,0.3c1.2-0.3,2.5-0.7,3.7-1.3c2.5-1.1,4.9-2.6,7.3-4l0.1,0.1
							c-0.9,1.1-1.9,2.1-3,3.1c-1.1,0.9-2.3,1.8-3.6,2.5c-1.3,0.7-2.7,1.4-4.2,1.6c-0.8,0.1-1.6,0.2-2.4,0.1
							c-0.8-0.1-1.7-0.4-2.4-0.9l0,0l0,0c-0.9-0.9-1.2-1.8-1.6-2.7c-0.3-0.9-0.6-1.8-0.8-2.7c-0.4-1.8-0.8-3.5-1-5.3
							c-0.3-1.8-0.5-3.6-0.7-5.3c-0.2-1.8-0.4-3.6-0.5-5.4L757.5,799.3z"/>
					</g>
					<g>
						<path class="st1" d="M768.5,781.3c0.1,1.9,0.2,3.8,0.3,5.7c0.1,1.9,0.3,3.8,0.6,5.6c0.3,1.9,0.7,3.7,1,5.5
							c0.1,0.9,0.3,1.8,0.5,2.7c0.2,0.9,0.5,1.7,1,2.5l-0.1,0.2c-1-0.4-1.7-1.2-2.2-2.1c-0.5-0.9-0.9-1.8-1.2-2.8
							c-0.6-1.9-0.6-3.9-0.7-5.8c-0.1-3.8,0-7.6,0.5-11.4L768.5,781.3z"/>
					</g>
					<g>
						<path class="st1" d="M796.4,794.4c-1.5,1.4-3.3,2.5-5.1,3.5c-1.8,1-3.7,1.8-5.7,2.5c-1,0.4-2,0.6-3,0.9
							c-1,0.2-2.1,0.4-3.1,0.4c-2.1,0.1-4.2-0.2-6.2-0.9l0-0.2c2.1-0.4,4-0.5,6-0.9c1.9-0.3,3.9-0.4,5.8-0.9
							c1.9-0.5,3.8-1.1,5.7-1.9c1.9-0.8,3.7-1.7,5.4-2.8L796.4,794.4z"/>
					</g>
					<g>
						<path class="st1" d="M780.5,773.3c-0.2,1.1-0.3,2.3-0.3,3.4c0,1.1,0,2.3,0.1,3.3c0.1,1.1,0.6,2,0.8,2.9
							c0.3,0.9,0.8,1.7,1.7,2.5l-0.1,0.2c-1.3,0.2-2.7-0.6-3.4-1.8c-0.7-1.2-0.7-2.6-0.7-3.8c0-1.2,0.2-2.4,0.5-3.5
							c0.3-1.1,0.6-2.3,1.1-3.3L780.5,773.3z"/>
					</g>
					<g>
						<path class="st1" d="M802.4,777.4c-1.1,1-2.4,1.9-3.7,2.8c-1.3,0.8-2.7,1.5-4.1,2.1c-0.7,0.3-1.5,0.6-2.2,0.8
							c-0.8,0.2-1.6,0.3-2.4,0.3c-1.6-0.1-3.4-0.7-4.4-2l0.1-0.2c1.6,0.3,2.9,0.3,4.3,0.2c1.4-0.2,2.8-0.2,4.2-0.6
							c1.4-0.4,2.8-0.9,4.2-1.5c1.4-0.6,2.7-1.3,4-2L802.4,777.4z"/>
					</g>
					<g>
						<path class="st1" d="M791.5,761.3c-0.1,0.9-0.2,1.9-0.2,2.8c0,0.9,0,1.9,0,2.8c0.1,0.9,0.3,1.8,0.3,2.6c0,0.9,0,1.7-0.1,2.8
							l-0.2,0.1c-0.9-0.6-1.4-1.6-1.7-2.6c-0.3-1,0-2,0.1-3c0.1-1,0.3-1.9,0.6-2.8c0.3-0.9,0.6-1.8,1-2.7L791.5,761.3z"/>
					</g>
					<g>
						<path class="st1" d="M808.4,763.4c-2,1.8-4.2,3.4-6.6,4.7c-1.2,0.7-2.4,1.5-3.8,1.7c-0.7,0.1-1.5,0.2-2.3,0
							c-0.8-0.1-1.6-0.6-1.9-1.4l0.2-0.1c0.6,0.3,1.2,0.2,1.7,0.1c0.6-0.1,1.1-0.3,1.7-0.6c1.1-0.5,2.4-0.7,3.6-1.2
							c1.2-0.5,2.4-1,3.6-1.6c1.2-0.6,2.4-1.2,3.6-1.8L808.4,763.4z"/>
					</g>
				</g>
				<circle class="st1" cx="740.9" cy="848.8" r="6.5"/>
				<circle class="st1" cx="749.9" cy="864.8" r="6.5"/>
			</g>
			<path class="st0" d="M1106.2,1074.2c0,3.8-0.4,7.5-0.8,11.3c-1.4,11-8.2,18.4-19.3,19.8c-10.4,1.2-21,1.1-31.5,1.9
				c-14.8,1.2-29.6,2.6-44.5,4c-18,1.6-34.4,6.7-47.2,21.4c-13.1-14.4-29.5-19.6-47.4-21.1c-21.9-1.8-43.9-3.8-65.9-4.7
				c-23.2-1-31.2-8.5-31.2-31.7c-0.1-87.2,0-174.4,0-261.6c0-2,0.3-4,0.5-6.3h286.9c0.2,2.2,0.5,4.2,0.5,6.2
				C1106.3,900.2,1106.3,987.2,1106.2,1074.2z"/>
			<path class="st1" d="M1108.7,804.5c-2.9-0.1-4.9-0.3-6.9-0.3c-27.3,0-54.6,0-81.9,0c-66.1,0-132.2,0-198.3,0.1
				c-3,0-6,0.9-9.5,1.4v20.7c-0.1,84.4-0.1,168.8-0.2,253.1c0,20.6,10.1,30.6,30.5,31.5c21,0.9,42,2.7,63,4.3
				c20.3,1.6,39.6,5.9,53.5,23.9c2.3-1.8,4.6-3,6.2-4.8c6.8-8.2,15.3-14.6,25.6-16.6c15.4-3.1,31.1-5.2,46.8-6.8
				c15-1.5,30.1-1.6,45.1-2.4c13.9-0.8,22.4-7.8,25.3-21.4c0.9-4.3,0.8-9,0.8-13.5c0-86.6,0-173.3,0-259.9V804.5z M1106.2,1074.2
				c0,3.8-0.4,7.5-0.8,11.3c-1.4,11-8.2,18.4-19.3,19.8c-10.4,1.2-21,1.1-31.5,1.9c-14.8,1.2-29.6,2.6-44.5,4
				c-18,1.6-34.4,6.7-47.2,21.4c-13.1-14.4-29.5-19.6-47.4-21.1c-21.9-1.8-43.9-3.8-65.9-4.7c-23.2-1-31.2-8.5-31.2-31.7
				c-0.1-87.2,0-174.4,0-261.6c0-2,0.3-4,0.5-6.3h286.9c0.2,2.2,0.5,4.2,0.5,6.2C1106.3,900.2,1106.3,987.2,1106.2,1074.2z"/>
			<path class="st0" d="M1106.2,1074.2c0,3.8-0.4,7.5-0.8,11.3c-1.4,11-8.2,18.4-19.3,19.8c-10.4,1.2-21,1.1-31.5,1.9
				c-14.8,1.2-29.6,2.6-44.5,4c-18,1.6-34.4,6.7-47.2,21.4c-13.1-14.4-29.5-19.6-47.4-21.1c-21.9-1.8-43.9-3.8-65.9-4.7
				c-23.2-1-31.2-8.5-31.2-31.7c-0.1-87.2,0-174.4,0-261.6c0-2,0.3-4,0.5-6.3h286.9c0.2,2.2,0.5,4.2,0.5,6.2
				C1106.3,900.2,1106.3,987.2,1106.2,1074.2z"/>
			<path class="st1" d="M914.8,1003.9c0,34.3,0,68.1,0,102.3c-1.8,0-3.3,0.1-4.7,0c-19.2-1.2-38.3-2.4-57.5-3.7
				c-2.4-0.2-4.9-0.3-7.3-0.7c-14.9-2.3-22.5-10.4-22.7-25.4c-0.3-22.8-0.1-45.6-0.1-68.4c0-1.3,0.3-2.5,0.5-4.2
				C853.6,1003.9,883.8,1003.9,914.8,1003.9z"/>
			<path class="st1" d="M1009.6,1003.9c30.9,0,61.3,0,91.9,0c0.2,1.7,0.6,2.9,0.6,4.2c0,22.4,0,44.8-0.1,67.2c0,3.3-0.6,6.8-1.5,10
				c-2.2,7.9-7.3,13.3-15.2,15.1c-5.8,1.4-11.9,1.8-17.8,2.3c-17.6,1.3-35.3,2.4-52.9,3.5c-1.5,0.1-3,0-4.9,0
				C1009.6,1072.2,1009.6,1038.4,1009.6,1003.9z"/>
			<path class="st1" d="M823,811.3c30.9,0,61.1,0,91.8,0c0,32.3,0,64.2,0,96.5c-30.6,0-61,0-91.8,0C823,875.7,823,843.8,823,811.3z"
				/>
			<path class="st1" d="M1101.6,811.6c0,32.2,0,64.1,0,96.3c-30.7,0-60.9,0-91.8,0c0-31.9,0-63.8,0-96.3
				C1040.2,811.6,1070.7,811.6,1101.6,811.6z"/>
			<path class="st2" d="M709.4,975.3c-32-48-19-105,14-157l2.9,16.7c0.7,3.9,1.8,7.6,3.4,11.2c20,43.7,10.6,65.8,8.7,85.1
				L709.4,975.3z"/>
			<g>
				<g>
					<path class="st1" d="M721.4,832.3c0,10.4-0.6,20.7-0.6,31.1c-0.1,10.3,0,20.7,0.1,31.1c0,10.4,0,20.7-0.3,31.1
						c-0.2,5.2-0.5,10.4-1,15.6L719,945c-0.1,1.3-0.4,2.6-0.6,3.9c-0.3,2.6-1,5.2-1.6,7.8l-2.9-0.8c0.6-2.5,1.2-4.9,1.6-7.4
						c0.2-1.3,0.5-2.5,0.6-3.8l0.4-3.8c0.2-1.3,0.3-2.6,0.3-3.8l0.3-3.8c0.2-2.6,0.3-5.2,0.4-7.7c0.5-10.3,0.6-20.7,0.7-31
						c0.1-10.4,0.3-20.7,0.6-31.1C719.2,852.9,719.3,842.5,721.4,832.3z"/>
				</g>
				<g>
					<path class="st1" d="M703.5,937.2c1,1.4,1.9,2.7,2.9,4c1,1.3,2,2.6,3.1,3.8c1.1,1.2,2.3,2.3,3.4,3.4c0.5,0.6,1.1,1.1,1.7,1.5
						c0.6,0.4,1.2,0.8,2.1,0.9l0.1,0.2c-0.8,0.6-1.9,0.5-2.7,0.2c-0.9-0.3-1.7-0.8-2.4-1.3c-1.4-1.1-2.4-2.5-3.3-3.9
						c-1.9-2.8-3.6-5.7-4.9-8.7L703.5,937.2z"/>
				</g>
				<g>
					<path class="st1" d="M734.5,911.3c-1.8,3.2-3.9,6.4-6.1,9.4c-1.2,1.5-2.4,2.9-3.8,4.2c-0.7,0.7-1.4,1.3-2.2,1.8
						c-0.8,0.5-1.7,1-2.8,1.3c-0.1,0-0.1,0-0.2,0l0,0c-2.1-0.2-4.1-1.1-5.8-2.2c-1.7-1.1-3.2-2.6-4.5-4.1c-1.3-1.6-2.4-3.2-3.3-5
						c-1-1.7-1.8-3.6-2.4-5.4l0.2-0.1c1.1,1.6,2.2,3.2,3.4,4.8c1.2,1.5,2.4,3,3.6,4.4c1.3,1.4,2.6,2.8,4.1,3.8
						c1.5,1.1,3.1,2,4.9,2.3l-0.2,0c1.5-0.3,3.1-1.4,4.4-2.5c1.4-1.2,2.6-2.5,3.9-3.9c2.4-2.8,4.7-5.8,6.7-8.9L734.5,911.3z"/>
				</g>
				<g>
					<path class="st1" d="M732.5,892.3c-0.7,1.5-1.4,2.9-2.2,4.4c-0.8,1.4-1.7,2.8-2.7,4.1c-1,1.3-2,2.7-3.4,3.7
						c-1.4,1-3,1.7-4.7,1.8l-0.1-0.2c1.3-1.1,2.4-2.1,3.5-3.2c1.1-1.1,2.4-2,3.4-3.2c1.1-1.1,2.1-2.4,3.1-3.7c1-1.3,1.9-2.6,2.9-3.9
						L732.5,892.3z"/>
				</g>
				<g>
					<path class="st1" d="M703.5,886.2c0.9,1.8,1.8,3.6,2.9,5.2c1,1.7,2.2,3.3,3.5,4.7c1.3,1.5,2.8,2.6,4.3,3.7
						c1.5,1.1,3.2,1.9,5.1,2.5l0,0.2c-2,0.6-4.4,0.1-6.2-1c-1.9-1-3.3-2.8-4.5-4.4c-1.2-1.7-2.3-3.4-3.2-5.3
						c-0.9-1.8-1.6-3.7-2.2-5.7L703.5,886.2z"/>
				</g>
				<g>
					<path class="st1" d="M727.5,877.3c-0.3,1-0.7,2-1.1,3c-0.4,1-0.9,1.9-1.5,2.8c-0.6,0.9-1.1,1.9-2.1,2.6
						c-0.3,0.2-0.5,0.3-0.8,0.4c-0.3,0.1-0.6,0.2-0.9,0.3c-0.3,0.1-0.6,0.1-0.9,0.1c-0.3,0-0.6-0.1-0.9-0.2v-0.2
						c1-0.6,1.5-1.2,2.1-1.9c0.6-0.7,1.4-1.3,2.1-2c0.7-0.8,1.3-1.6,1.9-2.4c0.6-0.8,1.2-1.7,1.8-2.6L727.5,877.3z"/>
				</g>
				<g>
					<path class="st1" d="M708.5,868.3c0.4,1.5,0.8,3,1.4,4.3c0.6,1.4,1.3,2.7,2.2,3.8c0.9,1.1,2.1,1.8,3.3,2.3
						c1.2,0.6,2.6,0.8,4.2,0.9l0,0.2c-1.4,0.9-3.2,1.2-4.9,0.7c-0.9-0.2-1.6-0.7-2.3-1.3c-0.6-0.6-1.2-1.3-1.6-2
						c-0.9-1.4-1.5-2.9-1.9-4.4c-0.4-1.5-0.6-3.1-0.7-4.6L708.5,868.3z"/>
				</g>
				<g>
					<path class="st1" d="M725.5,862.3c-0.1,0.8-0.4,1.6-0.6,2.5c-0.3,0.8-0.6,1.6-1.1,2.3c-0.4,0.7-0.8,1.6-1.6,2.1
						c-0.8,0.5-1.7,0.8-2.7,0.6l-0.1-0.2c0.5-0.8,1-1.4,1.5-2c0.4-0.6,1.1-1,1.7-1.6c0.5-0.6,1-1.2,1.5-1.9c0.5-0.7,0.9-1.3,1.3-2.1
						L725.5,862.3z"/>
				</g>
				<g>
					<path class="st1" d="M711.5,853.3c0,1.4,0.2,2.7,0.7,4c0.4,1.3,1,2.5,1.8,3.5c0.8,1,1.8,1.8,2.7,2.6c0.4,0.5,1,0.8,1.5,1.3
						c0.5,0.4,1.1,0.8,1.6,1.3l-0.1,0.2c-1.5,0-2.9-0.4-4.2-1.2c-1.3-0.7-2.2-2.1-2.9-3.3c-0.7-1.3-1.2-2.7-1.4-4.1
						c-0.2-1.4-0.2-2.9,0.1-4.2L711.5,853.3z"/>
				</g>
			</g>
			<g>
				<path class="st2" d="M774.4,892.3c-2.1,79.5-21.3,110.1-45,128l-23-40c1-26,32.2-61.3,57-87l4,6L774.4,892.3z"/>
				<g>
					<path class="st1" d="M764.4,906.3c-1,9.7-3.9,18.9-7.1,27.9c-0.8,2.3-1.6,4.5-2.5,6.8c-0.8,2.2-1.7,4.5-2.6,6.7
						c-1.8,4.5-3.6,8.9-5.5,13.3l-2.9,6.6l-3.1,6.5l-3.2,6.5c-1.1,2.1-2.2,4.3-3.3,6.4c-4.6,8.5-9.4,16.8-15.5,24.4l-2.4-1.9
						c5.4-7.6,10-16,14.3-24.4c4.3-8.5,8.4-17,12.2-25.7c1.9-4.4,3.8-8.7,5.6-13.1c0.9-2.2,1.8-4.4,2.7-6.6c0.9-2.2,1.8-4.4,2.6-6.6
						C756.9,923.9,760.1,915,764.4,906.3z"/>
				</g>
				<g>
					<g>
						<path class="st1" d="M741.4,998.4c-1,0.7-2,1.4-3,2.1c-1,0.7-2,1.3-3.1,1.9c-1.1,0.6-2.1,1.4-3.3,1.7
							c-0.6,0.2-1.2,0.3-1.9,0.4c-0.3,0-0.7,0-1,0c-0.2,0-0.4-0.1-0.5-0.2c-0.2-0.1-0.4-0.2-0.4-0.4l0.2-0.1c0.4,0,0.9-0.4,1.4-0.6
							c0.5-0.3,1-0.6,1.5-0.9c1-0.6,2.2-0.8,3.3-1.3l6.7-2.8L741.4,998.4z"/>
					</g>
					<g>
						<path class="st1" d="M724.5,965.3c0.6,3.7,1.5,7.3,2.7,10.8c0.6,1.7,1.3,3.5,2.2,5c0.9,1.6,2,3.1,3.4,3.7
							c1.4,0.6,3.2,0.3,4.9-0.3c1.7-0.5,3.3-1.3,5-2.1c3.3-1.6,6.5-3.4,9.8-5.2l0.1,0.2c-1.3,1.4-2.7,2.6-4.2,3.7
							c-1.5,1.1-3.1,2.2-4.7,3.1c-1.7,0.9-3.4,1.7-5.3,2.2c-1,0.2-1.9,0.4-3,0.4c-1,0-2.1-0.1-3.1-0.6c-1-0.5-1.7-1.3-2.4-2
							c-0.6-0.8-1.1-1.6-1.5-2.5c-0.8-1.7-1.4-3.5-2-5.3c-1-3.6-1.6-7.3-1.9-11.1L724.5,965.3z"/>
					</g>
					<g>
						<path class="st1" d="M734.5,942.3c0.3,1.9,0.6,3.9,1.1,5.8c0.4,1.9,0.9,3.8,1.6,5.6c0.6,1.8,1.6,3.5,2.4,5.1
							c0.9,1.6,1.8,3.2,3.4,4.4l-0.1,0.2c-1-0.1-2-0.6-2.9-1.3c-0.8-0.7-1.5-1.5-2.1-2.3c-1.2-1.7-1.7-3.8-2.2-5.7
							c-0.5-1.9-0.8-3.9-1.1-5.9c-0.2-2-0.3-3.9-0.3-5.9L734.5,942.3z"/>
					</g>
					<g>
						<path class="st1" d="M759.4,958.4c-1.2,1.2-2.5,2.3-3.9,3.3c-1.4,1-2.8,2-4.2,2.9c-1.5,0.9-2.9,1.9-4.7,2.4
							c-0.4,0.1-0.9,0.2-1.3,0.3c-0.5,0-0.9,0.1-1.4,0.1c-0.5,0-0.9-0.1-1.4-0.1c-0.5-0.1-0.9-0.3-1.3-0.5l0-0.2
							c1.7-0.2,3.1-0.8,4.6-1.5c1.5-0.7,3-1.1,4.5-1.9c1.5-0.7,3-1.5,4.4-2.4c1.5-0.8,2.9-1.7,4.3-2.7L759.4,958.4z"/>
					</g>
					<g>
						<path class="st1" d="M746.5,927.3c-0.1,1.5-0.1,2.9,0,4.4c0.1,1.4,0.2,2.9,0.6,4.2c0.3,1.4,1,2.6,1.6,3.6
							c0.6,1.1,1.5,1.9,2.9,2.6l0,0.2c-1.5,0.4-3.4-0.3-4.5-1.7c-1.1-1.3-1.4-3-1.6-4.5c-0.2-1.5-0.1-3.1,0-4.5
							c0.2-1.5,0.4-3,0.8-4.4L746.5,927.3z"/>
					</g>
					<g>
						<path class="st1" d="M760.4,944.4c-0.7,0.8-1.6,1.5-2.4,2.3c-0.8,0.7-1.8,1.4-2.7,2c-0.9,0.6-1.9,1.3-3.1,1.5
							c-1.1,0.2-2.5,0.2-3.5-0.6l0-0.2c1.1-0.3,2-0.7,2.9-1.1c0.9-0.4,1.9-0.6,2.9-1c1.9-0.8,3.9-1.8,5.7-3L760.4,944.4z"/>
					</g>
					<g>
						<path class="st1" d="M754.5,915.3c0.1,1.2,0.2,2.5,0.3,3.7c0.1,1.2,0.2,2.4,0.4,3.6c0.1,1.2,0.5,2.4,0.6,3.5
							c0,0.6,0.1,1.1,0.2,1.7c0,0.3,0.1,0.5,0.2,0.8c0.1,0.2,0.2,0.5,0.4,0.6l0,0.2c-0.4,0.2-0.8,0-1.1-0.2
							c-0.3-0.2-0.6-0.5-0.8-0.8c-0.4-0.6-0.6-1.2-0.8-1.9c-0.4-1.3-0.2-2.6-0.2-3.8c0-1.3,0.1-2.5,0.2-3.7c0.1-1.2,0.3-2.5,0.5-3.7
							L754.5,915.3z"/>
					</g>
					<g>
						<path class="st1" d="M766.4,927.3c-0.7,1-1.4,2-2.2,2.9c-0.8,0.9-1.7,1.8-2.6,2.6c-0.9,0.8-1.9,1.7-3.2,2
							c-1.2,0.4-2.8,0.4-3.9-0.4l0-0.2c1.2-0.3,2.2-0.8,3.1-1.3c0.9-0.5,2-0.9,3-1.5c1-0.6,1.9-1.3,2.9-2c0.9-0.7,1.8-1.5,2.7-2.3
							L766.4,927.3z"/>
					</g>
				</g>
			</g>
			<g>
				<g>
					<path class="st2" d="M683.4,962.3c-1.9,93,31.5,121.6,53.8,135.5c2.8,1.8,5.3,3.9,7.5,6.5l11.3,13.5l-0.6-31.4
						c1-56-29.2-87.3-61-122l-5,6L683.4,962.3z"/>
					<g>
						<path class="st1" d="M691.4,973.3c4.1,11.2,8.4,22.2,13,33.2c4.5,11,9.3,21.8,14.4,32.5c2.5,5.4,5.2,10.6,7.9,15.9
							c1.4,2.6,2.7,5.2,4.2,7.8c1.5,2.6,2.9,5.2,4.4,7.7c6,10.1,12.5,20.1,20.5,28.5l-2.6,2.6c-2.1-2.2-4.3-4.4-6.1-6.8
							c-0.9-1.2-1.9-2.3-2.8-3.5l-2.6-3.7c-3.5-4.9-6.7-10-9.7-15.2c-1.5-2.6-2.9-5.2-4.4-7.8c-1.4-2.6-2.8-5.3-4.2-7.9
							c-2.7-5.3-5.3-10.7-7.8-16.1c-4.9-10.9-9.5-21.9-13.5-33.1C697.8,996.2,694.2,984.9,691.4,973.3z"/>
					</g>
					<g>
						<g>
							<path class="st1" d="M740.5,1055.3c0.3,1.7,0.5,3.4,0.5,5.1c0.1,1.7,0,3.4-0.3,5.1c-0.3,1.7-0.8,3.4-1.7,5
								c-0.9,1.6-2.4,2.9-4.1,3.6c-0.1,0-0.2,0.1-0.3,0c-1,0-1.9-0.2-2.8-0.5c-0.9-0.2-1.7-0.5-2.6-0.8c-1.7-0.6-3.3-1.3-4.9-2
								c-3.1-1.6-6.2-3.3-9-5.4l0.1-0.2c3.3,1.1,6.5,2.5,9.7,3.8c1.6,0.6,3.2,1.4,4.7,2c1.5,0.7,3.2,1.3,4.7,1.5l-0.3,0
								c1.4-0.5,2.7-1.5,3.6-2.8c0.9-1.3,1.5-2.9,1.9-4.5c0.4-1.6,0.6-3.3,0.7-4.9c0.1-1.7,0-3.4-0.1-5L740.5,1055.3z"/>
						</g>
						<g>
							<path class="st1" d="M703.4,1042.2c3,2.6,6.2,5,9.7,6.8c1.7,0.9,3.5,1.7,5.4,2.1c0.5,0.1,0.9,0.2,1.4,0.3l1.4,0.1l1.4-0.1
								c0.4-0.1,0.8-0.2,1.2-0.3c1.6-0.7,2.7-2.2,3.5-3.9c0.8-1.7,1.3-3.5,1.8-5.4c1-3.8,1.5-7.7,2-11.6l0.2,0c0.3,2,0.4,4,0.3,6
								c0,2-0.2,4-0.6,6.1c-0.4,2-1,4-2,5.9c-1,1.8-2.5,3.7-4.7,4.5c-2.2,0.7-4.4,0.3-6.3-0.2c-2-0.6-3.8-1.5-5.6-2.5
								c-3.4-2.1-6.5-4.7-9.3-7.6L703.4,1042.2z"/>
						</g>
						<g>
							<path class="st1" d="M721.5,1008.3c0,3.6-0.3,7.2-0.9,10.8c-0.3,1.8-0.8,3.6-1.4,5.3c-0.6,1.7-1.4,3.5-2.5,5
								c-0.6,0.8-1.3,1.5-2.1,2.1c-0.9,0.6-1.8,0.9-2.8,1.2c-2,0.5-4,0.2-5.8-0.4c-1.8-0.7-3.4-1.6-4.9-2.8c-1.4-1.2-2.7-2.5-3.7-4
								l0.1-0.1c2.8,2.2,5.9,4.1,9.1,5.1c1.6,0.4,3.2,0.7,4.8,0.4c0.8-0.2,1.6-0.3,2.2-0.7c0.7-0.4,1.3-0.9,1.8-1.6
								c1.1-1.3,1.9-2.8,2.6-4.4c0.7-1.6,1.2-3.3,1.6-5.1c0.9-3.4,1.4-7,1.7-10.6L721.5,1008.3z"/>
						</g>
						<g>
							<path class="st1" d="M709.5,994.3c0.4,1.5,0.6,3,0.7,4.5c0.1,1.5,0,3.1-0.2,4.6c-0.3,1.5-0.6,3.1-1.6,4.5
								c-1,1.3-2.3,2.4-3.9,2.8l-0.1-0.2c0.9-1.3,1.6-2.4,2.3-3.7c0.6-1.2,1.3-2.4,1.7-3.8c0.4-1.4,0.7-2.8,0.8-4.3
								c0.2-1.5,0.2-2.9,0.1-4.4L709.5,994.3z"/>
						</g>
						<g>
							<path class="st1" d="M695.4,1010.2c0.9,0.6,1.7,1.2,2.7,1.8c0.9,0.6,1.8,1.1,2.7,1.6c0.9,0.5,1.9,0.7,2.7,1.1
								c0.9,0.3,1.6,0.7,2.7,0.4l0.1,0.1c-0.2,0.6-0.8,1.1-1.4,1.3c-0.6,0.2-1.3,0.2-1.9,0.1c-1.2-0.2-2.2-1-3-1.7
								c-0.9-0.7-1.7-1.4-2.5-2.2c-0.8-0.8-1.5-1.6-2.2-2.4L695.4,1010.2z"/>
						</g>
						<g>
							<path class="st1" d="M702.5,982.3c0.2,1.2,0.3,2.4,0.4,3.6c0.1,1.2,0.1,2.5,0,3.7c-0.1,1.2-0.1,2.6-0.8,3.8
								c-0.3,0.6-0.7,1.2-1.3,1.6c-0.6,0.5-1.3,0.7-2,0.6l0-0.2c1-0.8,1.2-1.7,1.5-2.8c0.3-1,0.8-2.1,1-3.2c0.3-1.1,0.4-2.3,0.6-3.5
								c0.2-1.2,0.3-2.4,0.4-3.6L702.5,982.3z"/>
						</g>
						<g>
							<path class="st1" d="M691.4,994.2c1.5,1.2,3,2.4,4.5,3.4c0.8,0.5,1.7,0.8,2.3,1.3c0.7,0.5,1.3,1,2.3,1.5l0,0.2
								c-1,0.6-2.2,0.4-3.2,0.1c-1-0.3-1.7-1.1-2.4-1.8c-0.7-0.7-1.4-1.4-2-2.1c-0.6-0.8-1.2-1.5-1.7-2.4L691.4,994.2z"/>
						</g>
					</g>
				</g>
				<circle class="st1" cx="738.9" cy="1102.8" r="6.5"/>
			</g>
			<g>
				<path class="st2" d="M762.4,1024.3c-10.9,13-20,92-2,104l43,3c1.3-23.4-16.3-62.9-31-100l-7,3L762.4,1024.3z"/>
				<g>
					<path class="st1" d="M764.4,1037.3c1.9,8.1,3.3,16.2,4.7,24.4c1.4,8.1,3,16.3,4.7,24.3c1.7,8.1,3.6,16.1,5.8,24
						c1.1,3.9,2.4,7.8,3.8,11.6l1.1,2.8l1.3,2.7c0.4,0.9,0.9,1.7,1.4,2.6c0.5,0.8,1.1,1.6,1.6,2.4l-2.9,2.3
						c-0.6-0.9-1.3-1.8-1.9-2.8c-0.5-1-1.1-1.9-1.5-2.9l-1.3-2.9l-1.2-3c-1.5-4-2.7-8-3.8-12c-2.1-8.1-3.9-16.2-5.4-24.4
						c-1.5-8.2-2.8-16.4-3.9-24.6C765.7,1053.8,764.8,1045.6,764.4,1037.3z"/>
				</g>
				<g>
					<g>
						<path class="st1" d="M793.5,1109.3c-0.6,1.3-1.3,2.6-2,3.8c-0.8,1.2-1.6,2.4-2.7,3.5c-1,1.1-2.1,2.1-3.5,2.8
							c-1.3,0.8-2.8,1.3-4.4,1.4l-0.8-1c0,0.1,0,0.2,0,0.3c0,0.1,0,0.1,0,0.1c0,0.1,0,0.1,0,0c0,0-0.2-0.1-0.3-0.1
							c-0.2-0.1-0.5-0.2-0.8-0.3c-0.6-0.2-1.2-0.3-1.8-0.5c-1.2-0.3-2.5-0.8-3.7-1.3c-1.2-0.5-2.4-1.1-3.5-1.8
							c-1.1-0.7-2.2-1.7-2.8-2.9l0.2-0.1c1,0.8,2.1,1.3,3.3,1.8c1.2,0.4,2.3,0.8,3.5,1.2c1.2,0.4,2.4,0.7,3.6,1.2
							c0.6,0.2,1.2,0.5,1.8,0.7c0.3,0.1,0.6,0.3,1,0.5c0.2,0.1,0.3,0.2,0.5,0.4c0.1,0.1,0.2,0.2,0.3,0.4c0.1,0.1,0.1,0.2,0.1,0.4
							c0,0.2,0,0.3,0,0.5l-0.8-1c1.3,0,2.6-0.4,3.8-0.9c1.2-0.6,2.3-1.4,3.4-2.4c1-0.9,2-2,2.9-3.1c0.9-1.1,1.7-2.3,2.4-3.5
							L793.5,1109.3z"/>
					</g>
					<g>
						<path class="st1" d="M784.5,1085.3c0,1.4-0.1,2.9-0.4,4.3c-0.3,1.4-0.8,2.8-1.7,4.1c-0.8,1.3-2,2.5-3.4,3.1
							c-1.4,0.6-2.7,0.9-4.2,1.1l-0.1-0.2c1-1.2,2.2-2,3.3-2.7c1.1-0.8,2.2-1.3,3.1-2.3c0.9-1,1.5-2.2,2-3.4c0.5-1.3,0.8-2.6,1.2-4
							L784.5,1085.3z"/>
					</g>
					<g>
						<path class="st1" d="M762.5,1089.2c0.9,1.1,1.9,2.1,2.8,3.2c1,1,2,2,3,2.9c1,0.9,2.2,1.6,3.2,2.4c1.1,0.7,2,1.5,3.4,1.3
							l0.1,0.2c-0.5,0.7-1.4,1-2.2,0.9c-0.9,0-1.6-0.3-2.3-0.6c-1.4-0.7-2.4-1.9-3.3-3c-1.9-2.2-3.5-4.6-4.9-7.1L762.5,1089.2z"/>
					</g>
					<g>
						<path class="st1" d="M776.4,1066.2c0.9,0.8,1.5,1.8,1.7,3.1c0.1,0.6,0,1.3-0.2,1.9c-0.1,0.3-0.3,0.6-0.5,0.9
							c-0.2,0.3-0.4,0.5-0.6,0.7c-0.2,0.3-0.5,0.4-0.7,0.6c-0.2,0.2-0.5,0.4-0.7,0.6c-0.5,0.3-1.1,0.6-1.6,0.7
							c-1.2,0.3-2.3,0.4-3.6,0.1l0-0.2c0.5-0.4,1-0.7,1.5-1c0.5-0.2,0.9-0.6,1.4-0.8c0.9-0.5,1.9-0.7,2.7-1.3
							c0.8-0.6,1.3-1.3,1.4-2.3c0.1-1-0.3-2-0.9-3L776.4,1066.2z"/>
					</g>
					<g>
						<path class="st1" d="M761.4,1073.2c0.8,0.8,1.6,1.6,2.4,2.4c0.8,0.8,1.6,1.6,2.4,2.3c0.8,0.7,1.8,1.3,2.5,1.9
							c0.4,0.3,0.8,0.6,1.1,0.8c0.2,0.1,0.3,0.2,0.5,0.2c0.2,0,0.4-0.1,0.7-0.2l0.2,0.1c0,0.3-0.2,0.7-0.5,0.9
							c-0.2,0.1-0.3,0.2-0.5,0.3c-0.2,0-0.4,0.1-0.6,0.1c-0.8,0-1.4-0.2-2-0.5c-1.1-0.6-1.8-1.6-2.6-2.5c-0.8-0.9-1.4-1.8-2.1-2.8
							c-0.6-1-1.2-1.9-1.8-2.9L761.4,1073.2z"/>
					</g>
					<g>
						<path class="st1" d="M774.5,1052.3c-0.2,0.9-0.4,1.8-0.7,2.7c-0.3,0.9-0.7,1.8-1.1,2.6c-0.4,0.8-0.8,1.8-1.8,2.4
							c-0.5,0.3-1,0.5-1.6,0.6c-0.6,0-1.3-0.2-1.6-0.7l0.1-0.2c1-0.2,1.3-0.7,1.8-1.3c0.5-0.6,1.2-1.1,1.7-1.8
							c0.5-0.7,1.1-1.4,1.6-2.2c0.5-0.7,1-1.5,1.4-2.3L774.5,1052.3z"/>
					</g>
					<g>
						<path class="st1" d="M759.5,1057.2c0.7,0.8,1.4,1.6,2.2,2.4c0.7,0.8,1.5,1.5,2.3,2.2c0.8,0.7,1.7,1.2,2.4,1.8
							c0.4,0.3,0.7,0.6,1.1,0.8c0.4,0.2,0.8,0.4,1.4,0.5l0.1,0.2c-0.4,0.5-1.1,0.8-1.8,0.7c-0.7,0-1.3-0.2-1.8-0.5
							c-1.1-0.5-1.8-1.5-2.5-2.4c-0.7-0.9-1.3-1.8-1.9-2.7c-0.6-1-1.1-1.9-1.6-2.9L759.5,1057.2z"/>
					</g>
				</g>
			</g>
			<g>
				<path class="st2" d="M740.3,1113.3c14.8,21.7,54.1,81.5,124.5,78.1c2.1-0.1,4.2-0.2,6.3,0c18.9,1.4,38.4,13.2,55.2,17.9l6-13
					c-21.9-2.2-42.2-6.6-58-17c-28.9-19.3-24.4-51.6-106.6-60.2c-6.8-0.7-13.5-2-20.1-3.8L740.3,1113.3z"/>
				<circle class="st1" cx="869.8" cy="1196.8" r="6.5"/>
				<circle class="st1" cx="886.8" cy="1187.8" r="6.5"/>
				<g>
					<path class="st1" d="M751.3,1123.3c3.1,0.6,6.2,1.3,9.3,2.1c3.1,0.8,6.1,1.7,9.1,2.8l9,3.2c3,1.1,5.9,2.4,8.8,3.6
						c11.7,4.9,23.1,10.9,33.7,17.9l4,2.7c1.3,0.9,2.6,1.8,3.9,2.7c2.6,1.8,5.2,3.7,7.7,5.6l7.7,5.5l3.9,2.6c0.7,0.4,1.3,0.9,2,1.3
						l2,1.2l4,2.4l4.1,2.1l2.1,1.1c0.7,0.3,1.4,0.6,2.1,0.9l4.3,1.8c0.7,0.3,1.4,0.6,2.2,0.8l2.2,0.7l4.4,1.5l9.1,2.2l0.2,0
						c1.2,0.3,1.9,1.5,1.6,2.7c-0.3,1.2-1.5,1.9-2.7,1.6l0,0l-9.4-2.4l-4.6-1.6l-2.3-0.8c-0.8-0.3-1.5-0.5-2.3-0.9l-4.4-1.9
						c-0.7-0.3-1.5-0.6-2.2-1l-2.1-1.1l-4.3-2.3l-4.1-2.6l-2-1.3c-0.7-0.4-1.3-0.9-2-1.4l-3.9-2.7l-7.6-5.7c-2.5-1.9-5-3.8-7.6-5.7
						c-1.3-0.9-2.5-1.9-3.8-2.8l-3.9-2.7c-10.3-7.2-21.3-13.3-32.8-18.5c-2.9-1.2-5.7-2.6-8.7-3.8l-8.8-3.4
						c-2.9-1.2-5.9-2.1-8.9-3.2C757.1,1125.8,754.2,1124.6,751.3,1123.3z"/>
				</g>
				<g>
					<g>
						<path class="st1" d="M823.4,1141.2c1.4,3,2.6,6.1,3.7,9.3c0.5,1.6,0.9,3.2,1.2,4.9c0.1,0.8,0.2,1.7,0.2,2.6
							c0,0.4-0.1,0.9-0.1,1.4c-0.1,0.5-0.3,0.9-0.5,1.4c-0.8,1.7-2.1,2.9-3.4,4.1c-1.3,1.1-2.8,2.1-4.3,2.8
							c-1.5,0.7-3.2,1.4-4.9,1.7c-1.7,0.4-3.5,0.5-5.1-0.1l0-0.2c1.7,0,3.2-0.5,4.7-1.1c1.5-0.6,2.9-1.3,4.3-2.1
							c1.4-0.8,2.7-1.6,4-2.6c1.3-0.9,2.4-2,3.2-3.3c0.7-1.2,0.6-2.8,0.5-4.4c-0.2-1.6-0.5-3.2-0.9-4.8c-0.8-3.2-1.8-6.4-2.9-9.5
							L823.4,1141.2z"/>
					</g>
					<g>
						<path class="st1" d="M842.4,1159.2c1.8,2.7,3.5,5.6,4.8,8.7c0.6,1.6,1.1,3.2,1.2,5c0,0.2,0,0.5-0.1,0.7c0,0.2-0.1,0.5-0.1,0.7
							c-0.1,0.5-0.3,0.9-0.6,1.3c-0.5,0.8-1.1,1.4-1.8,2c-2.8,2.2-6.2,3.2-9.5,3.7c-3.3,0.5-6.7,0.5-10,0v-0.2
							c3.3-0.6,6.5-1.1,9.6-1.8c1.6-0.4,3.1-0.7,4.6-1.2c1.5-0.4,3-1,4.2-1.9c1.2-0.9,2.2-2.1,2.3-3.5c0.1-1.5-0.3-3.1-0.8-4.6
							c-1-3.1-2.4-6.1-4-8.9L842.4,1159.2z"/>
					</g>
					<g>
						<path class="st1" d="M803.4,1133.2c1.2,0.8,2.3,1.8,3.3,2.8c1,1,2,2.2,2.8,3.4c0.8,1.2,1.7,2.6,1.9,4.1c0.2,1.5,0,3.2-0.9,4.5
							l-0.2-0.1c-0.2-1.5-0.4-2.7-0.8-4c-0.4-1.2-0.7-2.5-1.3-3.8c-0.6-1.2-1.3-2.4-2.2-3.6c-0.8-1.1-1.7-2.2-2.7-3.3L803.4,1133.2z
							"/>
					</g>
					<g>
						<path class="st1" d="M788.3,1155.2c1.8-0.3,3.6-0.7,5.4-1.2c1.8-0.5,3.5-1,5.1-1.7c1.7-0.7,3.1-1.7,4.6-2.6
							c1.5-0.9,2.7-2,3.9-3.5l0.2,0.1c-0.1,2-1.4,3.8-2.9,5c-1.5,1.3-3.4,1.9-5.2,2.5c-1.8,0.6-3.6,0.9-5.5,1.2
							c-1.9,0.2-3.7,0.4-5.6,0.4L788.3,1155.2z"/>
					</g>
					<g>
						<path class="st1" d="M789.4,1128.2c0.6,0.7,1.2,1.4,1.8,2.2c0.5,0.8,1,1.6,1.5,2.5c0.4,0.9,1,1.7,1,2.8c0,1-0.1,2.2-1,2.9
							l-0.2-0.1c-0.3-1-0.5-1.7-0.8-2.5c-0.3-0.8-0.3-1.7-0.5-2.5c-0.5-1.7-1.1-3.4-1.9-5.1L789.4,1128.2z"/>
					</g>
					<g>
						<path class="st1" d="M778.3,1143.2c1.1,0.3,2.3,0.4,3.4,0.2c1.1-0.1,2.1-0.6,2.7-1.3c0.7-0.7,0.9-1.8,1.3-2.7
							c0.2-0.5,0.4-1,0.6-1.6c0.2-0.5,0.4-1.1,0.7-1.7l0.2,0c0.3,0.6,0.4,1.2,0.5,1.8c0,0.6,0,1.3-0.1,1.9c-0.2,1.3-1.1,2.5-2.2,3.4
							c-1.1,0.9-2.5,1.2-3.8,1.1c-1.3-0.1-2.5-0.4-3.5-1L778.3,1143.2z"/>
					</g>
					<g>
						<path class="st1" d="M773.4,1123.2c0.7,0.6,1.4,1.2,2,1.8c0.6,0.6,1.2,1.3,1.8,2.1c0.5,0.7,1.2,1.4,1.5,2.4
							c0.2,0.9,0.3,2-0.2,2.9h-0.2c-0.6-0.8-1-1.5-1.4-2.2c-0.4-0.7-0.6-1.5-1-2.3c-0.4-0.8-0.8-1.5-1.2-2.3
							c-0.4-0.8-0.9-1.5-1.4-2.3L773.4,1123.2z"/>
					</g>
					<g>
						<path class="st1" d="M773.4,1130.6c0,1.2-0.5,2.2-1.2,3.1c-0.7,0.9-1.9,1.3-3,1.5c-1.1,0.2-2.3,0.1-3.2-0.3
							c-0.5-0.1-1-0.4-1.4-0.6c-0.4-0.3-0.9-0.6-1.3-0.8l0.1-0.2l1.4,0.5c0.5,0.1,0.9,0.2,1.4,0.2l0.7,0c0.2,0,0.5,0,0.7-0.1
							c0.2,0,0.4-0.1,0.6-0.1c0.2-0.1,0.4-0.1,0.6-0.2c0.8-0.3,1.4-0.9,2.1-1.4c0.7-0.5,1.4-1.1,2.3-1.7L773.4,1130.6z"/>
					</g>
				</g>
			</g>
			<path class="st2" d="M1207.3,975.3c32-48,19-105-14-157l-2.9,16.7c-0.7,3.9-1.8,7.6-3.4,11.2c-20,43.7-10.6,65.8-8.7,85.1
				L1207.3,975.3z"/>
			<g>
				<g>
					<path class="st1" d="M1195.3,832.3c2.1,10.2,2.2,20.7,2.6,31c0.3,10.4,0.4,20.7,0.6,31.1c0.1,10.4,0.2,20.7,0.7,31
						c0.2,2.6,0.2,5.2,0.4,7.7l0.3,3.8c0.1,1.3,0.2,2.6,0.3,3.8l0.4,3.8c0.1,1.3,0.4,2.5,0.6,3.8c0.3,2.5,1,5,1.6,7.4l-2.9,0.8
						c-0.6-2.6-1.3-5.2-1.6-7.8c-0.2-1.3-0.5-2.6-0.6-3.9l-0.4-3.9c-0.5-5.2-0.8-10.4-1-15.6c-0.3-10.4-0.3-20.8-0.3-31.1
						c0.1-10.4,0.2-20.7,0.1-31.1C1195.9,853,1195.3,842.7,1195.3,832.3z"/>
				</g>
				<g>
					<path class="st1" d="M1213.4,937.3c-1.4,3-3,5.9-4.9,8.7c-1,1.4-1.9,2.8-3.3,3.9c-0.7,0.5-1.5,1-2.4,1.3
						c-0.9,0.3-2,0.3-2.7-0.2l0.1-0.2c0.8,0,1.5-0.4,2.1-0.9c0.6-0.5,1.1-1,1.7-1.5c1.1-1.1,2.3-2.2,3.4-3.4
						c1.1-1.2,2.1-2.5,3.1-3.8c1-1.3,2-2.6,2.9-4L1213.4,937.3z"/>
				</g>
				<g>
					<path class="st1" d="M1182.4,911.2c2.1,3.1,4.3,6.1,6.7,8.9c1.2,1.4,2.5,2.7,3.9,3.9c1.4,1.2,2.9,2.3,4.4,2.5l-0.2,0
						c1.8-0.3,3.4-1.1,4.9-2.3c1.5-1.1,2.8-2.5,4.1-3.8c1.3-1.4,2.5-2.9,3.6-4.4c1.1-1.5,2.3-3.1,3.4-4.8l0.2,0.1
						c-0.6,1.9-1.4,3.7-2.4,5.4c-0.9,1.7-2.1,3.4-3.3,5c-1.3,1.6-2.7,3-4.5,4.1c-1.7,1.1-3.7,2-5.8,2.2l0,0c-0.1,0-0.1,0-0.2,0
						c-1.1-0.2-2-0.7-2.8-1.3c-0.8-0.6-1.6-1.2-2.2-1.8c-1.4-1.3-2.6-2.8-3.8-4.2c-2.3-3-4.3-6.1-6.1-9.4L1182.4,911.2z"/>
				</g>
				<g>
					<path class="st1" d="M1184.4,892.2c0.9,1.3,1.9,2.7,2.9,3.9c1,1.3,2,2.5,3.1,3.7c1.1,1.2,2.4,2.1,3.4,3.2
						c1.1,1.1,2.3,2.1,3.5,3.2l-0.1,0.2c-1.7-0.1-3.4-0.9-4.7-1.8c-1.4-1-2.4-2.4-3.4-3.7c-1-1.3-1.9-2.7-2.7-4.1
						c-0.8-1.4-1.5-2.9-2.2-4.4L1184.4,892.2z"/>
				</g>
				<g>
					<path class="st1" d="M1213.4,886.3c-0.6,1.9-1.4,3.8-2.2,5.7c-0.9,1.8-1.9,3.6-3.2,5.3c-1.2,1.6-2.6,3.4-4.5,4.4
						c-1.9,1.1-4.2,1.6-6.2,1l0-0.2c2-0.5,3.6-1.3,5.1-2.5c1.5-1.1,3-2.3,4.3-3.7c1.3-1.5,2.5-3.1,3.5-4.7c1.1-1.7,2-3.4,2.9-5.2
						L1213.4,886.3z"/>
				</g>
				<g>
					<path class="st1" d="M1189.4,877.2c0.6,0.9,1.1,1.7,1.8,2.6c0.6,0.8,1.2,1.6,1.9,2.4c0.7,0.8,1.5,1.3,2.1,2
						c0.6,0.7,1.2,1.4,2.1,1.9v0.2c-0.3,0.1-0.6,0.2-0.9,0.2c-0.3,0-0.6,0-0.9-0.1c-0.3-0.1-0.6-0.2-0.9-0.3
						c-0.3-0.1-0.5-0.3-0.8-0.4c-1-0.7-1.5-1.7-2.1-2.6c-0.6-0.9-1.1-1.9-1.5-2.8c-0.4-1-0.8-2-1.1-3L1189.4,877.2z"/>
				</g>
				<g>
					<path class="st1" d="M1208.4,868.3c0,1.6-0.3,3.1-0.7,4.6c-0.4,1.5-1,3-1.9,4.4c-0.4,0.7-1,1.4-1.6,2c-0.6,0.6-1.4,1.1-2.3,1.3
						c-1.7,0.5-3.6,0.2-4.9-0.7l0-0.2c1.6-0.2,3-0.4,4.2-0.9c1.1-0.6,2.3-1.2,3.3-2.3c0.9-1.1,1.7-2.4,2.2-3.8
						c0.6-1.4,1.1-2.8,1.4-4.3L1208.4,868.3z"/>
				</g>
				<g>
					<path class="st1" d="M1191.4,862.2c0.4,0.7,0.9,1.4,1.3,2.1c0.5,0.7,1,1.3,1.5,1.9c0.5,0.6,1.2,1,1.7,1.6
						c0.5,0.6,0.9,1.1,1.5,2l-0.1,0.2c-1,0.2-1.9-0.1-2.7-0.6c-0.8-0.5-1.2-1.4-1.6-2.1c-0.4-0.8-0.8-1.5-1.1-2.3
						c-0.3-0.8-0.5-1.6-0.6-2.5L1191.4,862.2z"/>
				</g>
				<g>
					<path class="st1" d="M1205.4,853.3c0.3,1.4,0.3,2.8,0.1,4.2c-0.2,1.4-0.7,2.8-1.4,4.1c-0.7,1.3-1.6,2.6-2.9,3.3
						c-1.3,0.8-2.7,1.2-4.2,1.2l-0.1-0.2c0.5-0.5,1.1-0.9,1.6-1.3c0.5-0.5,1-0.8,1.5-1.3c0.9-0.8,2-1.6,2.7-2.6
						c0.8-1,1.4-2.2,1.8-3.5c0.4-1.3,0.6-2.6,0.7-4L1205.4,853.3z"/>
				</g>
			</g>
			<g>
				<path class="st2" d="M1142.3,892.3c2.1,79.5,21.3,110.1,45,128l23-40c-1-26-32.2-61.3-57-87l-4,6L1142.3,892.3z"/>
				<g>
					<path class="st1" d="M1152.3,906.3c4.2,8.7,7.4,17.6,10.8,26.5c0.8,2.2,1.7,4.4,2.6,6.6c0.9,2.2,1.8,4.4,2.7,6.6
						c1.8,4.4,3.7,8.8,5.6,13.1c3.8,8.7,7.9,17.3,12.2,25.7c4.3,8.4,8.9,16.8,14.3,24.4l-2.4,1.9c-6.1-7.6-11-16-15.5-24.4
						c-1.1-2.1-2.2-4.2-3.3-6.4l-3.2-6.5l-3.1-6.5l-2.9-6.6c-1.9-4.4-3.8-8.8-5.5-13.3c-0.9-2.2-1.7-4.5-2.6-6.7
						c-0.9-2.2-1.7-4.5-2.5-6.8C1156.2,925.2,1153.3,915.9,1152.3,906.3z"/>
				</g>
				<g>
					<g>
						<path class="st1" d="M1175.3,998.2l6.7,2.8c1.1,0.5,2.3,0.7,3.3,1.3c0.5,0.3,1,0.6,1.5,0.9c0.5,0.3,1,0.7,1.4,0.6l0.2,0.1
							c0,0.2-0.3,0.4-0.4,0.4c-0.2,0.1-0.4,0.1-0.5,0.2c-0.3,0-0.7,0.1-1,0c-0.7,0-1.3-0.2-1.9-0.4c-1.2-0.3-2.2-1.1-3.3-1.7
							c-1.1-0.6-2.1-1.3-3.1-1.9c-1-0.7-2-1.4-3-2.1L1175.3,998.2z"/>
					</g>
					<g>
						<path class="st1" d="M1192.4,965.3c-0.4,3.7-0.9,7.4-1.9,11.1c-0.5,1.8-1.1,3.6-2,5.3c-0.4,0.9-0.9,1.7-1.5,2.5
							c-0.6,0.8-1.4,1.5-2.4,2c-1,0.5-2.1,0.6-3.1,0.6c-1,0-2-0.2-3-0.4c-1.9-0.5-3.7-1.3-5.3-2.2c-1.7-0.9-3.2-2-4.7-3.1
							c-1.5-1.1-2.9-2.4-4.2-3.7l0.1-0.2c3.3,1.8,6.5,3.7,9.8,5.2c1.6,0.8,3.3,1.5,5,2.1c1.6,0.6,3.5,0.9,4.9,0.3
							c1.4-0.6,2.5-2.1,3.4-3.7c0.9-1.6,1.6-3.3,2.2-5c1.2-3.5,2.1-7.1,2.7-10.8L1192.4,965.3z"/>
					</g>
					<g>
						<path class="st1" d="M1182.4,942.3c0,2-0.1,3.9-0.3,5.9c-0.2,2-0.6,3.9-1.1,5.9c-0.5,1.9-1,4-2.2,5.7
							c-0.6,0.9-1.3,1.7-2.1,2.3c-0.8,0.7-1.8,1.2-2.9,1.3l-0.1-0.2c1.6-1.2,2.5-2.8,3.4-4.4c0.8-1.6,1.7-3.3,2.4-5.1
							c0.7-1.8,1.2-3.7,1.6-5.6c0.5-1.9,0.8-3.8,1.1-5.8L1182.4,942.3z"/>
					</g>
					<g>
						<path class="st1" d="M1157.4,958.2c1.4,0.9,2.8,1.8,4.3,2.7c1.4,0.9,2.9,1.7,4.4,2.4c1.5,0.7,3.1,1.2,4.5,1.9
							c1.5,0.6,2.9,1.2,4.6,1.5l0,0.2c-0.4,0.2-0.8,0.4-1.3,0.5c-0.4,0.1-0.9,0.1-1.4,0.1c-0.4,0-0.9-0.1-1.4-0.1
							c-0.4-0.1-0.9-0.2-1.3-0.3c-1.7-0.5-3.2-1.4-4.7-2.4c-1.5-0.9-2.9-1.9-4.2-2.9c-1.3-1.1-2.6-2.2-3.9-3.3L1157.4,958.2z"/>
					</g>
					<g>
						<path class="st1" d="M1170.4,927.3c0.4,1.4,0.7,2.9,0.8,4.4c0.1,1.5,0.2,3,0,4.5c-0.2,1.5-0.4,3.2-1.6,4.5
							c-1.1,1.3-3,2-4.5,1.7l0-0.2c1.4-0.8,2.3-1.6,2.9-2.6c0.6-1.1,1.3-2.2,1.6-3.6c0.3-1.4,0.5-2.8,0.6-4.2c0.1-1.4,0.1-2.9,0-4.4
							L1170.4,927.3z"/>
					</g>
					<g>
						<path class="st1" d="M1156.4,944.2c1.9,1.1,3.8,2.1,5.7,3c1,0.4,2,0.6,2.9,1c0.9,0.4,1.8,0.8,2.9,1.1l0,0.2
							c-1,0.8-2.4,0.8-3.5,0.6c-1.2-0.2-2.2-0.9-3.1-1.5c-1-0.6-1.9-1.2-2.7-2c-0.8-0.7-1.7-1.5-2.4-2.3L1156.4,944.2z"/>
					</g>
					<g>
						<path class="st1" d="M1162.4,915.3c0.2,1.2,0.4,2.5,0.5,3.7c0.1,1.2,0.2,2.5,0.2,3.7c0,1.2,0.2,2.5-0.2,3.8
							c-0.2,0.6-0.4,1.3-0.8,1.9c-0.2,0.3-0.4,0.6-0.8,0.8c-0.3,0.2-0.8,0.4-1.1,0.2l0-0.2c0.3-0.2,0.4-0.4,0.4-0.6
							c0.1-0.2,0.1-0.5,0.2-0.8c0.1-0.5,0.1-1.1,0.2-1.7c0.1-1.2,0.4-2.3,0.6-3.5c0.1-1.2,0.3-2.4,0.4-3.6c0.1-1.2,0.2-2.5,0.3-3.7
							L1162.4,915.3z"/>
					</g>
					<g>
						<path class="st1" d="M1150.4,927.2c0.9,0.8,1.8,1.6,2.7,2.3c0.9,0.7,1.9,1.4,2.9,2c1,0.6,2.1,0.9,3,1.5c1,0.5,1.9,0.9,3.1,1.3
							l0,0.2c-1.1,0.8-2.6,0.7-3.9,0.4c-1.3-0.3-2.3-1.2-3.2-2c-1-0.8-1.8-1.7-2.6-2.6c-0.8-0.9-1.5-1.9-2.2-2.9L1150.4,927.2z"/>
					</g>
				</g>
			</g>
			<g>
				<g>
					<path class="st2" d="M1233.3,962.3c1.9,93-31.5,121.6-53.8,135.5c-2.8,1.8-5.3,3.9-7.5,6.5l-11.3,13.5l0.6-31.4
						c-1-56,29.2-87.3,61-122l5,6L1233.3,962.3z"/>
					<g>
						<path class="st1" d="M1225.3,973.3c-2.8,11.6-6.4,23-10.4,34.2c-4.1,11.2-8.6,22.2-13.5,33.1c-2.5,5.4-5.1,10.8-7.8,16.1
							c-1.4,2.6-2.7,5.3-4.2,7.9c-1.5,2.6-2.9,5.2-4.4,7.8c-3.1,5.2-6.2,10.3-9.7,15.2l-2.6,3.7c-0.9,1.2-1.9,2.4-2.8,3.5
							c-1.8,2.4-4,4.5-6.1,6.8l-2.6-2.6c7.9-8.5,14.4-18.4,20.5-28.5c1.5-2.5,2.9-5.1,4.4-7.7c1.4-2.6,2.8-5.2,4.2-7.8
							c2.7-5.2,5.4-10.5,7.9-15.9c5.1-10.7,9.8-21.6,14.4-32.5C1216.8,995.5,1221.2,984.5,1225.3,973.3z"/>
					</g>
					<g>
						<g>
							<path class="st1" d="M1176.4,1055.3c-0.2,1.7-0.2,3.4-0.1,5c0.1,1.7,0.3,3.3,0.7,4.9c0.4,1.6,1,3.2,1.9,4.5
								c0.9,1.3,2.1,2.3,3.6,2.8l-0.3,0c1.5-0.2,3.1-0.8,4.7-1.5c1.6-0.7,3.1-1.4,4.7-2c3.2-1.3,6.4-2.7,9.7-3.8l0.1,0.2
								c-2.8,2.1-5.9,3.9-9,5.4c-1.6,0.8-3.2,1.5-4.9,2c-0.8,0.3-1.7,0.6-2.6,0.8c-0.9,0.2-1.8,0.4-2.8,0.5c-0.1,0-0.2,0-0.3,0
								c-1.7-0.7-3.2-2-4.1-3.6c-0.9-1.5-1.4-3.3-1.7-5c-0.3-1.7-0.4-3.4-0.3-5.1c0.1-1.7,0.2-3.4,0.5-5.1L1176.4,1055.3z"/>
						</g>
						<g>
							<path class="st1" d="M1213.4,1042.3c-2.8,2.9-5.9,5.4-9.3,7.6c-1.7,1-3.6,1.9-5.6,2.5c-2,0.6-4.1,1-6.3,0.2
								c-2.2-0.8-3.7-2.6-4.7-4.5c-1-1.9-1.6-3.9-2-5.9c-0.4-2-0.6-4-0.6-6.1c-0.1-2,0.1-4,0.3-6l0.2,0c0.5,4,1.1,7.9,2,11.6
								c0.5,1.9,1,3.7,1.8,5.4c0.8,1.7,1.9,3.2,3.5,3.9c0.4,0.2,0.8,0.3,1.2,0.3l1.4,0.1l1.4-0.1c0.5-0.1,0.9-0.2,1.4-0.3
								c1.9-0.5,3.7-1.2,5.4-2.1c3.5-1.8,6.7-4.2,9.7-6.8L1213.4,1042.3z"/>
						</g>
						<g>
							<path class="st1" d="M1195.4,1008.3c0.3,3.6,0.9,7.1,1.7,10.6c0.4,1.7,0.9,3.4,1.6,5.1c0.7,1.6,1.5,3.2,2.6,4.4
								c0.5,0.6,1.2,1.2,1.8,1.6c0.6,0.4,1.5,0.6,2.2,0.7c1.6,0.3,3.2,0.1,4.8-0.4c3.2-0.9,6.2-2.9,9.1-5.1l0.1,0.1
								c-1,1.5-2.3,2.9-3.7,4c-1.4,1.2-3.1,2.2-4.9,2.8c-1.8,0.7-3.9,0.9-5.8,0.4c-0.9-0.3-1.9-0.6-2.8-1.2
								c-0.9-0.6-1.6-1.3-2.1-2.1c-1.2-1.5-1.9-3.3-2.5-5c-0.6-1.7-1-3.5-1.4-5.3c-0.6-3.6-0.9-7.2-0.9-10.8L1195.4,1008.3z"/>
						</g>
						<g>
							<path class="st1" d="M1207.4,994.3c-0.1,1.5-0.1,3,0.1,4.4c0.1,1.5,0.4,2.9,0.8,4.3c0.4,1.4,1.2,2.6,1.7,3.8
								c0.6,1.2,1.4,2.3,2.3,3.7l-0.1,0.2c-1.5-0.4-2.9-1.5-3.9-2.8c-1-1.3-1.3-3-1.6-4.5c-0.3-1.5-0.3-3.1-0.2-4.6
								c0.1-1.5,0.3-3,0.7-4.5L1207.4,994.3z"/>
						</g>
						<g>
							<path class="st1" d="M1221.4,1010.3c-0.7,0.9-1.4,1.7-2.2,2.4c-0.8,0.8-1.6,1.5-2.5,2.2c-0.9,0.7-1.8,1.4-3,1.7
								c-0.6,0.1-1.3,0.1-1.9-0.1c-0.6-0.2-1.2-0.7-1.4-1.3l0.1-0.1c1.1,0.3,1.8-0.1,2.7-0.4c0.8-0.4,1.8-0.6,2.7-1.1
								c0.9-0.5,1.8-1,2.7-1.6c0.9-0.6,1.8-1.2,2.7-1.8L1221.4,1010.3z"/>
						</g>
						<g>
							<path class="st1" d="M1214.4,982.3c0.1,1.2,0.2,2.4,0.4,3.6c0.2,1.2,0.3,2.4,0.6,3.5c0.3,1.1,0.8,2.2,1,3.2
								c0.3,1,0.5,2,1.5,2.8l0,0.2c-0.7,0.2-1.5-0.1-2-0.6c-0.6-0.4-1-1-1.3-1.6c-0.7-1.2-0.7-2.5-0.8-3.8c-0.1-1.2-0.1-2.5,0-3.7
								c0.1-1.2,0.2-2.4,0.4-3.6L1214.4,982.3z"/>
						</g>
						<g>
							<path class="st1" d="M1225.4,994.3c-0.5,0.8-1.1,1.6-1.7,2.4c-0.6,0.8-1.3,1.5-2,2.1c-0.7,0.7-1.4,1.5-2.4,1.8
								c-1,0.3-2.2,0.5-3.2-0.1l0-0.2c0.9-0.5,1.5-1,2.3-1.5c0.7-0.5,1.6-0.8,2.3-1.3c1.5-1,3.1-2.1,4.5-3.4L1225.4,994.3z"/>
						</g>
					</g>
				</g>
				<circle class="st1" cx="1177.8" cy="1102.8" r="6.5"/>
			</g>
			<g>
				<path class="st2" d="M1154.3,1024.3c10.9,13,20,92,2,104l-43,3c-1.3-23.4,16.3-62.9,31-100l7,3L1154.3,1024.3z"/>
				<g>
					<path class="st1" d="M1152.3,1037.3c-0.4,8.3-1.4,16.5-2.6,24.7c-1.2,8.2-2.5,16.4-3.9,24.6c-1.5,8.2-3.2,16.3-5.4,24.4
						c-1.1,4-2.3,8-3.8,12l-1.2,3l-1.3,2.9c-0.5,1-1,1.9-1.5,2.9c-0.5,0.9-1.2,1.9-1.9,2.8l-2.9-2.3c0.5-0.8,1.1-1.5,1.6-2.4
						c0.5-0.9,1-1.7,1.4-2.6l1.3-2.7l1.1-2.8c1.4-3.8,2.7-7.7,3.8-11.6c2.3-7.9,4.1-15.9,5.8-24c1.7-8.1,3.3-16.2,4.7-24.3
						C1149,1053.5,1150.4,1045.4,1152.3,1037.3z"/>
				</g>
				<g>
					<g>
						<path class="st1" d="M1123.4,1109.2c0.7,1.2,1.5,2.4,2.4,3.5c0.9,1.1,1.8,2.2,2.9,3.1c1,0.9,2.1,1.8,3.4,2.4
							c1.2,0.6,2.5,0.9,3.8,0.9l-0.8,1c0-0.2,0-0.3,0-0.5c0-0.1,0.1-0.3,0.1-0.4c0.1-0.2,0.2-0.3,0.3-0.4c0.2-0.2,0.4-0.3,0.5-0.4
							c0.3-0.2,0.6-0.3,1-0.5c0.6-0.3,1.2-0.5,1.8-0.7c1.2-0.4,2.4-0.8,3.6-1.2c1.2-0.4,2.4-0.8,3.5-1.2c1.1-0.5,2.3-1,3.3-1.8
							l0.2,0.1c-0.6,1.2-1.7,2.1-2.8,2.9c-1.1,0.7-2.3,1.3-3.5,1.8c-1.2,0.5-2.4,0.9-3.7,1.3c-0.6,0.2-1.2,0.3-1.8,0.5
							c-0.3,0.1-0.6,0.2-0.8,0.3c-0.1,0.1-0.2,0.1-0.3,0.1c0,0,0,0,0,0c0,0,0-0.1,0-0.1c0-0.1,0-0.2,0-0.3l-0.8,1
							c-1.6-0.2-3.1-0.7-4.4-1.4c-1.3-0.8-2.4-1.8-3.5-2.8c-1-1.1-1.9-2.3-2.7-3.5c-0.8-1.2-1.5-2.5-2-3.8L1123.4,1109.2z"/>
					</g>
					<g>
						<path class="st1" d="M1132.4,1085.3c0.3,1.4,0.6,2.7,1.2,4c0.5,1.3,1.1,2.5,2,3.4c0.9,1,2,1.5,3.1,2.3
							c1.1,0.8,2.4,1.5,3.3,2.7l-0.1,0.2c-1.5-0.2-2.8-0.5-4.2-1.1c-1.4-0.6-2.5-1.8-3.4-3.1c-0.9-1.3-1.4-2.7-1.7-4.1
							c-0.3-1.4-0.4-2.9-0.4-4.3L1132.4,1085.3z"/>
					</g>
					<g>
						<path class="st1" d="M1154.4,1089.3c-1.4,2.5-3,4.9-4.9,7.1c-1,1.1-1.9,2.3-3.3,3c-0.7,0.3-1.5,0.6-2.3,0.6
							c-0.8,0-1.8-0.3-2.2-0.9l0.1-0.2c1.5,0.2,2.4-0.5,3.4-1.3c1-0.8,2.2-1.5,3.2-2.4c1-0.9,2-1.9,3-2.9c1-1,1.9-2.1,2.8-3.2
							L1154.4,1089.3z"/>
					</g>
					<g>
						<path class="st1" d="M1140.4,1066.3c-0.6,0.9-1,2-0.9,3c0.1,1,0.6,1.7,1.4,2.3c0.8,0.6,1.8,0.8,2.7,1.3
							c0.5,0.2,0.9,0.5,1.4,0.8c0.5,0.3,1,0.6,1.5,1l0,0.2c-1.2,0.3-2.4,0.2-3.6-0.1c-0.6-0.1-1.1-0.4-1.6-0.7
							c-0.3-0.1-0.5-0.4-0.7-0.6c-0.2-0.2-0.5-0.4-0.7-0.6c-0.2-0.2-0.4-0.5-0.6-0.7c-0.2-0.3-0.3-0.6-0.5-0.9
							c-0.2-0.6-0.3-1.3-0.2-1.9c0.2-1.3,0.9-2.3,1.7-3.1L1140.4,1066.3z"/>
					</g>
					<g>
						<path class="st1" d="M1155.4,1073.3c-0.5,1-1.2,2-1.8,2.9c-0.6,1-1.3,1.9-2.1,2.8c-0.8,0.9-1.4,1.9-2.6,2.5
							c-0.6,0.3-1.2,0.5-2,0.5c-0.2,0-0.4,0-0.6-0.1c-0.2-0.1-0.4-0.1-0.5-0.3c-0.3-0.2-0.5-0.6-0.5-0.9l0.2-0.1
							c0.3,0.1,0.5,0.2,0.7,0.2c0.2,0,0.4-0.1,0.5-0.2c0.4-0.2,0.7-0.5,1.1-0.8c0.7-0.7,1.7-1.2,2.5-1.9c0.8-0.7,1.6-1.5,2.4-2.3
							c0.8-0.8,1.6-1.6,2.4-2.4L1155.4,1073.3z"/>
					</g>
					<g>
						<path class="st1" d="M1142.4,1052.2c0.5,0.8,0.9,1.6,1.4,2.3c0.5,0.8,1,1.5,1.6,2.2c0.5,0.7,1.3,1.2,1.7,1.8
							c0.5,0.5,0.8,1.1,1.8,1.3l0.1,0.2c-0.3,0.5-1,0.7-1.6,0.7c-0.6,0-1.2-0.3-1.6-0.6c-0.9-0.6-1.3-1.6-1.8-2.4
							c-0.5-0.8-0.8-1.7-1.1-2.6c-0.3-0.9-0.6-1.8-0.7-2.7L1142.4,1052.2z"/>
					</g>
					<g>
						<path class="st1" d="M1157.4,1057.3c-0.5,1-1,1.9-1.6,2.9c-0.6,0.9-1.2,1.9-1.9,2.7c-0.7,0.9-1.4,1.9-2.5,2.4
							c-0.5,0.3-1.2,0.5-1.8,0.5c-0.7,0-1.4-0.2-1.8-0.7l0.1-0.2c0.6,0,1-0.2,1.4-0.5c0.4-0.2,0.7-0.5,1.1-0.8
							c0.7-0.6,1.6-1.1,2.4-1.8c0.8-0.7,1.5-1.4,2.3-2.2c0.8-0.8,1.5-1.6,2.2-2.4L1157.4,1057.3z"/>
					</g>
				</g>
			</g>
			<g>
				<path class="st2" d="M1175.8,1113.8c-14.8,21.7-54.1,81.5-124.5,78.1c-2.1-0.1-4.2-0.2-6.3,0c-18.9,1.4-38.4,13.2-55.2,17.9
					l-6-13c21.9-2.2,42.2-6.6,58-17c28.9-19.3,24.4-51.6,106.6-60.2c6.8-0.7,13.5-2,20.1-3.8L1175.8,1113.8z"/>
				<circle class="st1" cx="1046.3" cy="1197.3" r="6.5"/>
				<circle class="st1" cx="1029.3" cy="1188.3" r="6.5"/>
				<g>
					<path class="st1" d="M1164.8,1123.8c-2.9,1.3-5.8,2.5-8.8,3.6c-3,1.1-6,2.1-8.9,3.2l-8.8,3.4c-2.9,1.2-5.8,2.5-8.7,3.8
						c-11.5,5.2-22.5,11.3-32.8,18.5l-3.9,2.7c-1.3,0.9-2.5,1.9-3.8,2.8c-2.5,1.9-5.1,3.8-7.6,5.7l-7.6,5.7l-3.9,2.7
						c-0.7,0.5-1.3,0.9-2,1.4l-2,1.3l-4.1,2.6l-4.3,2.3l-2.1,1.1c-0.7,0.4-1.5,0.7-2.2,1l-4.4,1.9c-0.7,0.3-1.5,0.6-2.3,0.9
						l-2.3,0.8l-4.6,1.6l-9.4,2.4c-1.2,0.3-2.4-0.4-2.7-1.6c-0.3-1.2,0.4-2.4,1.6-2.7l0,0l0.2,0l9.1-2.2l4.4-1.5l2.2-0.7
						c0.7-0.2,1.5-0.5,2.2-0.8l4.3-1.8c0.7-0.3,1.4-0.6,2.1-0.9l2.1-1.1l4.1-2.1l4-2.4l2-1.2c0.7-0.4,1.3-0.9,2-1.3l3.9-2.6l7.7-5.5
						c2.6-1.9,5.1-3.7,7.7-5.6c1.3-0.9,2.6-1.9,3.9-2.7l4-2.7c10.6-7,22-13,33.7-17.9c2.9-1.2,5.9-2.5,8.8-3.6l9-3.2
						c3-1.1,6-2,9.1-2.8C1158.6,1125.1,1161.7,1124.4,1164.8,1123.8z"/>
				</g>
				<g>
					<g>
						<path class="st1" d="M1092.9,1141.8c-1.1,3.1-2.1,6.3-2.9,9.5c-0.4,1.6-0.7,3.2-0.9,4.8c-0.1,1.6-0.2,3.2,0.5,4.4
							c0.7,1.3,1.9,2.4,3.2,3.3c1.3,1,2.6,1.8,4,2.6c1.4,0.8,2.8,1.5,4.3,2.1c1.5,0.6,3,1.1,4.7,1.1l0,0.2c-1.6,0.5-3.5,0.4-5.1,0.1
							c-1.7-0.3-3.3-1-4.9-1.7c-1.5-0.8-3-1.7-4.3-2.8c-1.3-1.2-2.5-2.4-3.4-4.1c-0.2-0.4-0.4-0.9-0.5-1.4c-0.1-0.5-0.2-0.9-0.1-1.4
							c0-0.9,0.1-1.8,0.2-2.6c0.3-1.7,0.7-3.3,1.2-4.9c1-3.2,2.3-6.3,3.7-9.3L1092.9,1141.8z"/>
					</g>
					<g>
						<path class="st1" d="M1073.9,1159.8c-1.6,2.9-3,5.8-4,8.9c-0.5,1.5-0.9,3.1-0.8,4.6c0.1,1.4,1.1,2.6,2.3,3.5
							c1.2,0.9,2.7,1.5,4.2,1.9c1.5,0.5,3.1,0.8,4.6,1.2c3.1,0.7,6.4,1.2,9.6,1.8v0.2c-3.3,0.5-6.7,0.4-10,0
							c-3.3-0.5-6.6-1.6-9.5-3.7c-0.7-0.6-1.3-1.2-1.8-2c-0.2-0.4-0.4-0.8-0.6-1.3c-0.1-0.2-0.1-0.5-0.1-0.7c0-0.2-0.1-0.5-0.1-0.7
							c0-1.8,0.6-3.4,1.2-5c1.3-3.1,3-5.9,4.8-8.7L1073.9,1159.8z"/>
					</g>
					<g>
						<path class="st1" d="M1112.9,1133.9c-1,1-1.9,2.1-2.7,3.3c-0.8,1.1-1.6,2.3-2.2,3.6c-0.6,1.2-0.9,2.5-1.3,3.8
							c-0.4,1.2-0.6,2.5-0.8,4l-0.2,0.1c-0.9-1.3-1.1-2.9-0.9-4.5c0.2-1.6,1.1-2.9,1.9-4.1c0.8-1.2,1.8-2.4,2.8-3.4
							c1-1,2.1-2,3.3-2.8L1112.9,1133.9z"/>
					</g>
					<g>
						<path class="st1" d="M1127.8,1155.9c-1.9,0-3.7-0.2-5.6-0.4c-1.8-0.3-3.7-0.7-5.5-1.2c-1.8-0.6-3.7-1.2-5.2-2.5
							c-1.5-1.2-2.8-3-2.9-5l0.2-0.1c1.2,1.5,2.4,2.6,3.9,3.5c1.5,0.9,2.9,1.9,4.6,2.6c1.6,0.7,3.4,1.3,5.1,1.7
							c1.8,0.5,3.6,0.9,5.4,1.2L1127.8,1155.9z"/>
					</g>
					<g>
						<path class="st1" d="M1126.9,1128.8c-0.8,1.7-1.4,3.4-1.9,5.1c-0.2,0.9-0.2,1.8-0.5,2.5c-0.3,0.8-0.5,1.5-0.8,2.5l-0.2,0.1
							c-0.8-0.8-1-1.9-1-2.9c0-1,0.6-1.9,1-2.8c0.4-0.9,0.9-1.7,1.5-2.5c0.6-0.8,1.1-1.5,1.8-2.2L1126.9,1128.8z"/>
					</g>
					<g>
						<path class="st1" d="M1137.8,1143.9c-1.1,0.6-2.3,0.9-3.5,1c-1.3,0.1-2.7-0.2-3.8-1.1c-1.1-0.9-1.9-2.1-2.2-3.4
							c-0.1-0.6-0.1-1.3-0.1-1.9c0.1-0.6,0.2-1.3,0.5-1.8l0.2,0c0.3,0.6,0.5,1.1,0.7,1.7c0.2,0.5,0.4,1,0.6,1.6
							c0.4,0.9,0.6,1.9,1.3,2.7c0.7,0.7,1.7,1.2,2.7,1.3c1.1,0.2,2.3,0.1,3.4-0.2L1137.8,1143.9z"/>
					</g>
					<g>
						<path class="st1" d="M1142.9,1123.8c-0.5,0.8-0.9,1.5-1.4,2.3c-0.4,0.8-0.8,1.5-1.2,2.3c-0.4,0.8-0.5,1.6-1,2.3
							c-0.4,0.7-0.9,1.4-1.4,2.2h-0.2c-0.5-0.9-0.5-2-0.2-2.9c0.2-1,0.9-1.7,1.5-2.4c0.5-0.7,1.1-1.4,1.8-2.1c0.7-0.6,1.3-1.3,2-1.8
							L1142.9,1123.8z"/>
					</g>
					<g>
						<path class="st1" d="M1142.9,1131c0.9,0.6,1.6,1.2,2.3,1.7c0.7,0.5,1.3,1.1,2.1,1.4c0.2,0.1,0.4,0.1,0.6,0.2
							c0.2,0.1,0.4,0.1,0.6,0.1c0.2,0,0.4,0.1,0.7,0.1l0.7,0c0.5,0,0.9-0.2,1.4-0.2l1.4-0.5l0.1,0.2c-0.4,0.3-0.8,0.6-1.3,0.8
							c-0.5,0.2-0.9,0.5-1.4,0.6c-1,0.4-2.1,0.4-3.2,0.3c-1.1-0.2-2.3-0.6-3-1.5c-0.7-0.9-1.2-1.9-1.2-3.1L1142.9,1131z"/>
					</g>
				</g>
			</g>
			<g>
				<path class="st2" d="M1045.8,1218.3c-11.1,1.2-20.4,1.2-28.1,0c-10.2-1.5-19.6-6.5-27-13.7c-16.2-16-28.1-34.1-60.1-42.2
					c-1.5-0.4-3.1-0.8-4.6-1.3c-23.5-7.3-45.3-14.9-61.7-23.3v5l-5,3c28,36,66,65,89,66c19.3,1.6,36.6,1.1,64.8,13.1
					c1.7,0.7,3.5,1.4,5.3,2C1032,1230.9,1041.2,1228.1,1045.8,1218.3z"/>
				<g>
					<path class="st1" d="M872.3,1146.8c9.6,6.7,19,13.4,28.9,19.5c9.9,6.1,20,11.7,30.3,17.2c10.3,5.4,20.7,10.5,31.3,15.2
						c10.6,4.8,21.2,9.3,32,13.7l0,0c0.8,0.3,1.1,1.2,0.8,2c-0.3,0.7-1.1,1.1-1.8,0.9c-11.2-3.3-22.1-7.7-32.8-12.6
						c-10.6-4.9-21.1-10.1-31.3-15.9c-10.2-5.7-20.2-11.9-29.9-18.4C890.2,1161.8,880.6,1155,872.3,1146.8z"/>
				</g>
				<g>
					<path class="st1" d="M962.4,1185.7c1.2,1,2.2,2.2,3.1,3.4c0.9,1.3,1.6,2.7,2.1,4.2c0.5,1.5,0.8,3.1,0.8,4.8
						c-0.1,1.7-0.5,3.4-1.2,5l0,0c-0.2,0.3-0.4,0.6-0.7,0.7c-1.6,0.8-3,1.2-4.4,1.4c-1.4,0.2-2.9,0.4-4.3,0.4
						c-1.4,0.1-2.8,0-4.2-0.1c-1.4-0.1-2.8-0.3-4.2-0.7v-0.2c2.8,0,5.5-0.2,8.3-0.5c1.4-0.2,2.7-0.4,4.1-0.7
						c1.3-0.3,2.7-0.7,3.8-1.3l-0.1,0.1c0.6-1.3,1-2.7,1.1-4.2c0.1-1.4-0.1-2.9-0.5-4.3c-0.4-1.4-0.9-2.8-1.5-4.1
						c-0.6-1.3-1.4-2.6-2.2-3.8L962.4,1185.7z"/>
				</g>
				<g>
					<path class="st1" d="M943.4,1175.7c2.1,2,3.7,4.6,4.3,7.6c0.2,0.7,0.2,1.5,0.2,2.3c0,0.8-0.1,1.6-0.2,2.4
						c-0.1,0.4-0.2,0.8-0.3,1.2c-0.1,0.4-0.2,0.8-0.4,1.1c-0.4,0.7-0.7,1.5-1.2,2.1l-0.8,0.9c-0.3,0.3-0.6,0.6-0.9,0.8
						c-0.3,0.3-0.6,0.6-0.9,0.8c-0.3,0.2-0.7,0.4-1,0.6c-0.7,0.4-1.4,0.7-2.1,1c-0.7,0.3-1.5,0.5-2.2,0.7c-2.9,0.6-5.9,0.4-8.7-0.4
						l0-0.2c2.8,0.1,5.6-0.1,8.2-0.9c2.6-0.8,5.1-2.3,6.7-4.5c0.5-0.5,0.7-1.2,1.1-1.7c0.3-0.6,0.5-1.3,0.7-1.9
						c0.1-0.7,0.3-1.3,0.3-2l0-1c0-0.3,0-0.7-0.1-1c-0.3-2.7-1.4-5.3-2.9-7.7L943.4,1175.7z"/>
				</g>
				<g>
					<path class="st1" d="M921.4,1165.7c1.3,0.8,2.3,1.9,3,3.1c0.2,0.3,0.4,0.6,0.5,0.9c0.2,0.3,0.3,0.7,0.4,1
						c0.3,0.7,0.4,1.4,0.6,2.1c0.1,0.7,0.2,1.5,0.1,2.2c0,0.4-0.1,0.7-0.1,1.1c-0.1,0.4-0.1,0.7-0.3,1.1c-0.4,1.4-1.3,2.8-2.5,3.6
						l-0.2-0.1c0.6-1.2,1-2.4,1.1-3.7c0.1-1.3,0.1-2.6-0.1-3.9c-0.2-1.3-0.5-2.6-1-3.8c-0.5-1.2-1-2.4-1.7-3.6L921.4,1165.7z"/>
				</g>
				<g>
					<path class="st1" d="M909.3,1185.7c1.4-0.7,2.8-1,4.2-1.3c0.7-0.2,1.4-0.3,2-0.4l2-0.3l3.9-0.4c0.6-0.1,1.3-0.2,1.9-0.3
						c0.6-0.1,1.2-0.3,1.7-0.9l0.2,0.1c-0.2,0.7-0.7,1.3-1.3,1.7c-0.6,0.4-1.3,0.7-1.9,0.9c-1.4,0.5-2.8,0.7-4.2,0.9
						c-2.8,0.3-5.7,0.4-8.5,0.2L909.3,1185.7z"/>
				</g>
				<g>
					<path class="st1" d="M904.4,1157.7c1.2,0.6,2,1.5,2.7,2.5c0.7,1,1.1,2.3,1.1,3.6c0.1,1.3-0.4,2.9-1.4,4c-1,1.1-2.4,1.4-3.7,1.3
						l-0.1-0.2c0.9-0.5,1.9-1.1,2.5-2c0.6-0.9,0.8-2,0.7-3c0-1.1-0.3-2.1-0.6-3.1c-0.4-1-0.8-2-1.4-2.9L904.4,1157.7z"/>
				</g>
				<g>
					<path class="st1" d="M909.4,1172.9c-0.5,1.2-1.3,2.1-2.2,2.8c-0.9,0.7-2,1.2-3.1,1.5c-1.1,0.3-2.3,0.4-3.5,0.1
						c-1.2-0.2-2.3-0.6-3.2-1.4l0-0.2c1,0.1,2.1,0.1,3.1,0.1c1-0.1,2.1-0.2,3.1-0.5c1-0.2,2-0.6,3-1c1-0.4,1.9-0.9,2.7-1.5
						L909.4,1172.9z"/>
				</g>
				<g>
					<path class="st1" d="M894.6,1163.4c-0.1,1.1-0.7,2-1.3,2.7c-0.7,0.7-1.5,1.2-2.5,1.5c-1,0.3-2.1,0.3-3.1,0
						c-1-0.2-1.9-0.9-2.5-1.8l0.1-0.2c0.8,0.2,1.6,0.4,2.4,0.4c0.8,0,1.6-0.1,2.4-0.4c0.8-0.2,1.6-0.6,2.3-1c0.7-0.4,1.4-0.9,2-1.5
						L894.6,1163.4z"/>
				</g>
				<g>
					<path class="st1" d="M890.4,1152.7c1,0.3,1.8,0.8,2.3,1.5c0.6,0.7,1,1.5,1.2,2.4c0.2,0.9,0.2,1.9-0.1,2.8
						c-0.3,0.9-0.9,1.8-1.8,2.3l-0.2-0.1c0.2-0.7,0.4-1.5,0.4-2.2c0-0.8-0.1-1.5-0.3-2.3c-0.2-0.7-0.4-1.5-0.7-2.2
						c-0.3-0.7-0.7-1.4-1.1-2.1L890.4,1152.7z"/>
				</g>
				<path class="st3" d="M997,1209.9c0,0-2.3,6.2-4.2,7.8"/>
			</g>
			<g>
				<path class="st2" d="M871.3,1218.3c11.1,1.2,20.4,1.2,28.1,0c10.2-1.5,19.6-6.5,27-13.7c16.2-16,28.1-34.1,60.1-42.2
					c1.5-0.4,3.1-0.8,4.6-1.3c23.5-7.3,45.3-14.9,61.7-23.3v5l5,3c-28,36-66,65-89,66c-19.3,1.6-36.6,1.1-64.8,13.1
					c-1.7,0.7-3.5,1.4-5.3,2C885.1,1230.9,875.9,1228.1,871.3,1218.3z"/>
				<g>
					<path class="st1" d="M1044.8,1146.8c-8.3,8.3-17.9,15-27.6,21.6c-9.7,6.5-19.6,12.7-29.9,18.4c-10.2,5.7-20.7,11-31.3,15.9
						c-10.7,4.8-21.5,9.2-32.8,12.6c-0.8,0.2-1.6-0.2-1.9-1c-0.2-0.7,0.2-1.5,0.9-1.8l0,0c10.7-4.4,21.4-9,32-13.7
						c10.6-4.7,21-9.8,31.3-15.2c10.3-5.4,20.4-11,30.3-17.2C1025.8,1160.2,1035.2,1153.4,1044.8,1146.8z"/>
				</g>
				<g>
					<path class="st1" d="M954.9,1185.8c-0.6,1.4-1.1,2.8-1.5,4.1c-0.2,0.7-0.4,1.4-0.6,2c-0.2,0.7-0.3,1.3-0.4,2
						c-0.2,1.3-0.3,2.7-0.2,3.9c0.1,1.3,0.5,2.4,1,3.5l-0.7-0.7c0.9,0.5,2.1,0.9,3.4,1.2c1.3,0.4,2.6,0.6,3.9,0.9l4,0.8
						c1.4,0.3,2.7,0.6,4.1,0.9v0.2c-2.8,0-5.5-0.1-8.3-0.4c-1.4-0.1-2.8-0.4-4.1-0.6c-1.4-0.3-2.7-0.6-4-1.3c0,0-0.1,0-0.1-0.1
						c-0.6-1.4-1-2.8-1.1-4.3c0-1.5,0.2-3,0.5-4.4c0.4-1.4,0.9-2.8,1.6-4.1c0.7-1.3,1.4-2.6,2.3-3.8L954.9,1185.8z"/>
				</g>
				<g>
					<path class="st1" d="M973.9,1175.8c-0.9,2.7-1.6,5.3-1.6,7.8c-0.1,2.5,0.6,4.8,2,6.7l0.5,0.7c0.2,0.2,0.4,0.4,0.6,0.6
						c0.2,0.2,0.4,0.4,0.6,0.6c0.2,0.2,0.5,0.3,0.7,0.5c0.4,0.4,1,0.7,1.5,1c0.5,0.3,1.1,0.5,1.7,0.8c2.4,1,5,1.5,7.8,2.1l0,0.2
						c-2.8,0.2-5.6,0-8.3-0.8c-2.7-0.8-5.2-2.3-6.9-4.6c-0.5-0.5-0.7-1.2-1.1-1.8c-0.3-0.6-0.5-1.3-0.7-2c-0.1-0.7-0.2-1.4-0.3-2.1
						l0-1.1c0-0.4,0-0.7,0.1-1c0.3-2.8,1.5-5.4,3-7.7L973.9,1175.8z"/>
				</g>
				<g>
					<path class="st1" d="M995.9,1165.8c-0.1,1.5-0.3,2.8-0.5,4c-0.1,0.6-0.2,1.2-0.3,1.8c-0.1,0.6-0.2,1.2-0.3,1.8
						c-0.1,0.6-0.2,1.2-0.2,1.7c-0.1,0.6-0.1,1.2-0.2,1.8c-0.1,1.2-0.1,2.4-0.1,3.9l-0.2,0.1c-0.6-1.2-1.1-2.5-1.2-3.8
						c-0.2-1.3-0.2-2.7,0-4c0.2-1.3,0.6-2.6,1.1-3.8c0.5-1.2,1.1-2.4,1.8-3.6L995.9,1165.8z"/>
				</g>
				<g>
					<path class="st1" d="M1007.8,1185.9c-1.4,0.8-2.8,1.1-4.3,1.3c-0.7,0.1-1.5,0.1-2.2,0.2c-0.7,0-1.5-0.1-2.2-0.1
						c-1.5-0.2-3-0.6-4.4-1.3c-0.7-0.4-1.4-0.8-2-1.5c-0.6-0.6-1.1-1.5-0.9-2.4l0.2-0.1c0.2,0.7,0.7,1.2,1.3,1.5
						c0.6,0.4,1.2,0.6,1.9,0.8c1.3,0.4,2.7,0.6,4.1,0.8c2.8,0.4,5.6,0.5,8.4,0.4L1007.8,1185.9z"/>
				</g>
				<g>
					<path class="st1" d="M1012.9,1157.8c0,1.3-0.1,2.4-0.2,3.4c-0.1,1-0.2,1.9-0.2,2.7c0,0.8,0,1.5,0.2,2.3
						c0.2,0.8,0.7,1.6,1.4,2.7l-0.1,0.2c-1-0.4-2-1-2.7-2c-0.6-0.9-0.9-2.1-0.9-3.2c0-1.1,0.3-2.2,0.7-3.2c0.4-1,0.9-2,1.5-2.9
						L1012.9,1157.8z"/>
				</g>
				<g>
					<path class="st1" d="M1007.9,1172.8c1.2,0,2.3,0.2,3.3,0.3c1,0.2,1.9,0.4,2.8,0.6c0.9,0.2,1.8,0.5,2.8,0.8
						c1,0.3,1.9,0.6,3.1,1.2l0,0.2c-1,0.2-2.1,0.3-3.2,0.2c-1.1,0-2.1-0.2-3.2-0.4c-1-0.3-2-0.6-3-1.1c-1-0.4-1.9-1-2.7-1.6
						L1007.9,1172.8z"/>
				</g>
				<g>
					<path class="st1" d="M1022.6,1163.3c1.1,0.1,1.9,0.2,2.7,0.4c0.8,0.2,1.4,0.3,2.1,0.5c0.6,0.2,1.2,0.4,1.9,0.6
						c0.7,0.3,1.4,0.4,2.5,0.8l0.1,0.2c-0.8,0.3-1.6,0.6-2.5,0.6c-0.9,0-1.7-0.1-2.6-0.3c-1.6-0.5-3.1-1.4-4.3-2.7L1022.6,1163.3z"
						/>
				</g>
				<g>
					<path class="st1" d="M1026.9,1152.8c0.2,1,0.2,1.8,0.1,2.6c0,0.7-0.2,1.4-0.3,2c-0.2,0.6-0.3,1.2-0.6,1.9
						c-0.2,0.6-0.5,1.3-0.9,2.3l-0.2,0.1c-0.3-0.7-0.5-1.5-0.5-2.3c0-0.8,0.1-1.6,0.2-2.4c0.4-1.5,1.1-3,2-4.3L1026.9,1152.8z"/>
				</g>
				<path class="st3" d="M920.1,1209.9c0,0,2.3,6.2,4.2,7.8"/>
			</g>
		</g>
		<g>
			<g>
				<path class="st1" d="M690.5,613.2c-2.6-2-4.8-4.6-6.5-7.4l-20.7-33.5c1.5-1.5,10-9.7,13.1-14.5c9.5-14.2,7-30.5-7.2-37.5
					c-4.4-2.2-9.3-3.1-14.2-2.8l-38.7,1.8c0,0,2.2,1.7,3.9,5.5c1.2,2.6,1.6,5.5,1.6,8.4c-0.3,12.1-1.4,66.5-1.9,77.4
					c-0.1,1.9-0.4,3.8-1.2,5.6c-0.3,0.7-0.6,1.3-0.9,1.6h21c-1.8-0.5-3-2.1-3.8-3.8c-0.9-1.9-1.2-4-1.2-6.1v-33.1l8.5,0.5
					c2.8,0,5.7,1.6,7.7,3.6c7.1,7.1,13.2,22.2,21.8,32.6c2.5,3,6.1,5,9.9,5.6c3.6,0.5,8.6,0.5,15.1-1.3
					C695,616.2,692.6,614.9,690.5,613.2z M633.8,573.8l0.5-54.5h7c2.9,0,5.7,0.7,8.1,2.2c14.9,8.9,20.1,25.6,17.7,40.8
					c-0.7,4.2-3.4,8-7.4,9.6C652.7,574.6,642.7,573.4,633.8,573.8z"/>
				<path class="st1" d="M745.3,615.3c0,0-7-2-7-6s0-43,0-43l52-3l0.5,41.1c0,3.6-0.7,7.1-2,10.4l0,0h21c-3-0.4-5.3-3.2-6.4-9.7
					c-0.4-2.2-0.6-4.5-0.6-6.8V530c0-2.1,0.1-4.2,0.4-6.3l0.6-5.8h-19c0,0,5,3,5,6s0.5,38.5,0.5,38.5l-51.5,0.5v-39.4
					c0-1.7,0.2-3.5,0.6-5.1l0.4-1.5l-18,2c3.1,4.4,3.9,10.3,5,16c1,22.9,0.2,46.8-1.7,71.3c-0.2,2.5-0.8,4.9-1.7,7.2l-0.6,1.5
					L745.3,615.3z"/>
				<path class="st1" d="M934.5,533.4c-13.3-16.4-35.7-21.4-56.4-17.2c-15.1,3.1-28.4,12.4-35.7,26c-13.5,25.4-7.5,58.7,19.2,72.3
					c5.2,2.6,10.9,4.1,16.6,4.9c36.2,4.8,61.1-18.9,65-55C944.5,553.3,941.5,542.1,934.5,533.4z M918.4,607.9
					c-7,4.9-15.9,6.3-24.2,4.4c-16.4-3.6-30.2-14.1-39-27.1c-6.1-9-9.4-19.6-9.4-30.5c0-3.6,0.4-7.1,1.3-10.5
					c3.8-14.7,17-24.7,32.2-25.1c23.2-0.5,46.5,21.5,49.5,45.5C931.8,590.3,928,601.2,918.4,607.9z"/>
				<path class="st1" d="M1185.5,533.4c-13.3-16.4-35.7-21.4-56.4-17.2c-15.1,3.1-28.4,12.4-35.7,26c-13.5,25.4-7.5,58.7,19.2,72.3
					c5.2,2.6,10.9,4.1,16.6,4.9c36.2,4.8,61.1-18.9,65-55C1195.5,553.3,1192.5,542.1,1185.5,533.4z M1169.4,607.9
					c-7,4.9-15.9,6.3-24.2,4.4c-16.4-3.6-30.2-14.1-39-27.1c-6.1-9-9.4-19.6-9.4-30.5c0-3.6,0.4-7.1,1.3-10.5
					c3.8-14.7,17-24.7,32.2-25.1c23.2-0.5,46.5,21.5,49.5,45.5C1182.8,590.3,1179,601.2,1169.4,607.9z"/>
				<path class="st1" d="M1039.5,522.6c-7.8-4.1-16.7-5.8-25.5-5.5l-45.2,1.7c7,2,6,9,6,9s0,73,0,76s-3,11-3,11l25,2
					c25,2.3,44-4,59-22C1075.2,572,1067.6,537.1,1039.5,522.6z M1042,603.6c-13.1,16-38.4,10.4-52.2,7.2v-92
					c35.3-3.6,57.2,22,60.5,48.7C1051.2,574.7,1049.8,594.8,1042,603.6z"/>
				<path class="st1" d="M1278.3,518.3l-4,16c-2.7-12.6-21.8-17.1-34.1-12.7c-5.8,2.1-9.6,7.5-9.9,13.6
					c-0.4,10.4,5.2,15.3,11.9,18.7c9.6,4.8,35.6,10.8,38.3,27.9c1,6.4-0.7,16-6.2,23.8c-2.9,4.1-6.9,7.2-11.5,9.3
					c-11.4,5.2-26.8,4.8-46.1-1.2l2-16c5,18,35,22,45,13c15-13,4-32-19-40c-9-3-20.2-7.4-24.5-15.6c-4-7.6-2.5-19.4,3.5-25.4
					C1235.8,516.8,1256,515.6,1278.3,518.3z"/>
			</g>
			<g>
				<path class="st1" d="M690.6,1446.8c-0.3,0.3-2.3,0.6-6.1,0.8c-0.3,0-0.8,0-1.5,0.1c-0.7,0.1-1.2,0.1-1.3,0.1
					c-3.1,0-5.5-1-7.5-2.9c-0.9-0.9-2.9-3.7-5.9-8.4c-1.2-2.1-2.5-4.3-3.7-6.4c-1.6-2.5-3.3-4.6-4.9-6.2c-1.3-1.2-3.8-1.7-7.6-1.7
					c-0.6,0-0.9,0.3-0.9,1v15.6c0,5.7,1.5,8.5,4.6,8.5c0.5,0,0.9,0.1,1.2,0.3c-1.8,0.3-2.8,0.4-2.9,0.4c-0.2,0-1.3,0-3.5-0.1
					c-2.2-0.1-3.3-0.1-3.4-0.1c-1.1,0-3.6,0.3-7.5,0.8c0.5-0.3,1.2-1,2.1-2c0.5-0.9,0.8-4,0.8-9.5l0.6-12v-5.7
					c0-0.1,0.1-0.8,0.2-2.2c0.1-1.3,0.2-2,0.2-2.2v-5.8L643,1398c0-2.7-0.6-5.5-1.8-8.5c-0.1-0.3-0.3-0.5-0.9-0.7l-1-0.3
					c0.8-0.3,1.4-0.4,1.9-0.4l4.9-0.2c1.7,0,4-0.1,6.8-0.2l9-0.4c4.6,0,8.5,0.9,11.9,2.8c4.5,2.5,6.8,6.3,6.8,11.4
					c0,3.5-0.9,6.7-2.8,9.7c-1.2,2-3,4-5.3,6.1c-2,1.8-3.1,2.9-3.2,3.2c0,0.1,0.7,1.3,2.2,3.5c2,3.1,3.5,5.4,4.4,6.9
					c1.6,2.6,3.1,5.2,4.7,7.8c1.9,3,3.7,5.1,5.4,6.4c0.6,0.5,1.3,0.8,2.1,1C689.4,1446.4,690.3,1446.6,690.6,1446.8z M671.2,1408.5
					c0-4-1.5-8.2-4.5-12.5c-3.4-4.9-7.3-7.3-11.8-7.3c-2.1,0-3.1,0-2.9,0l-0.4,32.5h5.8c5.7,0,9.3-0.8,11-2.3
					C670.2,1417.5,671.2,1414,671.2,1408.5z"/>
				<path class="st1" d="M745.4,1443.1c-1.3,1-2.5,2.5-3.6,4.7c-0.9,1.7-1.7,3.4-2.5,5c-0.1-0.8-0.3-1.9-0.6-3.3
					c-0.8-1.5-4.2-2.3-10.3-2.3l-24.4,0.6c0.4-0.6,0.8-2.2,1.2-4.7c0.4-2.5,0.6-4.6,0.6-6.2l0.6-10.2V1416c0-0.1,0-0.6-0.1-1.6
					c-0.1-1-0.1-1.6-0.1-1.7v-5.5c0-1.6-0.1-4.3-0.3-8.2c-0.3-5.3-0.6-8.1-1-8.5c-0.8-0.6-1.7-1-2.7-1c-1.7-0.1-2.6-0.2-2.7-0.2
					c0-0.1,0-0.2,0.1-0.3c0.1-0.1,0.1-0.2,0.1-0.3l40.3-1.4c-0.8,1.3-1.7,3.1-2.7,5.5c-0.2,0.4-0.4,1.1-0.8,2.1
					c-0.1,0-0.2,0-0.3-0.1c-0.1-0.1-0.2-0.1-0.3-0.1c0.2-0.3,0.3-0.7,0.3-1c0-1-0.8-1.8-2.4-2.4c-1.3-0.6-2.4-0.9-3.5-0.9
					c-0.3,0-0.6,0.1-0.7,0.3c-1.5-0.8-4.7-1.2-9.7-1.2c-1.8,0-3,0.1-3.5,0.3c-0.5,0.2-0.8,1.1-0.8,2.6c-0.1,1.2-0.1,2.3-0.1,3.5
					c-0.1,3.1-0.3,7.6-0.7,13.7c0,3.1,0,4.8-0.1,5.2c1.8,0.3,4.3,0.4,7.6,0.4c5.4,0,10.6-0.8,15.4-2.5c0.2,0.2,0.3,0.4,0.3,0.6
					c0,0.1-0.4,1.2-1.2,3.2c-0.9,2.3-1.4,3.6-1.6,4.1c-0.3,0-0.6-0.3-0.8-0.9c-0.3-0.6-0.5-1-0.8-1.3c-1.9-1.2-6.4-1.8-13.3-1.8
					c-0.6,0-2.3,0.2-5.3,0.5c-0.3,0.5-0.4,1-0.4,1.6v19.2c0,0.1,0,0.5,0.1,1.4c0.1,0.9,0.1,1.5,0.1,1.9c0,1.1,0.1,2.1,0.3,2.9
					c2.9,0.8,6.8,1.2,11.7,1.2h3.6c1.8,0,4.4-0.4,7.8-1.1c3.4-0.7,5.5-1.4,6.5-2l0.8,0.2L745.4,1443.1z"/>
				<path class="st1" d="M793.2,1429.4c0,6.2-2.3,11.1-7,14.5c-4,2.9-8.9,4.4-14.6,4.4c-0.1,0-1.4-0.1-3.8-0.2
					c-2.4-0.1-3.7-0.2-3.8-0.2c-0.5,0-2.1-0.3-4.9-1c-3.1-0.7-4.6-1.2-4.6-1.4l0.4-2.3c0.4-1.8,0.7-3.7,0.8-5.8
					c-0.1-0.8,0.1-1.7,0.3-2.9c0.1,0.1,0.5,1.3,1.3,3.8c0.7,2.2,3.2,4.1,7.5,5.7c3.5,1.3,6.5,2,9,2c3.2,0,6-0.8,8.3-2.5
					c2.7-1.9,4-4.5,4-7.9c0-4-1.5-7.4-4.6-10.1c-2.1-1.8-5.6-3.8-10.3-5.7c-5.5-2.3-9.1-3.9-10.6-4.9c-1.8-1.2-3.2-2.8-4.3-4.9
					c-1.1-2.1-1.6-4.1-1.6-6c0-5.3,2.7-9.6,8.1-12.9c4.4-2.7,9.1-4,14-4l14.9,0.6v1l-0.8,2.3c-0.6,1.7-0.9,3-1,4s-0.2,2.5-0.4,4.5
					c-0.3-0.2-0.5-0.6-0.6-1.4c-0.1-1-0.2-1.5-0.3-1.6c-2.3-4.9-7-7.3-14-7.3c-7.7,0-11.6,3-11.6,9c0,3.9,1.6,6.9,4.9,9.1
					c2.4,1.6,6.4,3.6,11.9,6c4.6,2,7.8,3.8,9.5,5.5C791.9,1421.5,793.2,1425,793.2,1429.4z"/>
				<path class="st1" d="M860,1386.4c-0.5,1.5-1,3-1.5,4.5c-0.5,1.5-0.7,2.9-0.7,4.2v1c-0.2,0.1-0.3,0.2-0.5,0.2
					c-0.2,0-0.4-0.5-0.8-1.6c-0.4-1.3-0.7-2-0.9-2.3c-1-1.6-5.7-2.4-14.3-2.4c-0.1,0-0.6,0-1.4,0.1c-0.8,0.1-1.4,0.1-1.8,0.2
					c-0.5,1-0.9,3.6-1,8c-0.2,3.1-0.3,6.2-0.4,9.4l-0.3,18.9l0.2,11.3c0.1,0.3,0.1,1.5,0.3,3.7c0.1,1.5,0.5,2.7,1,3.6
					c0.3,0.5,1.1,1,2.3,1.3c1.7,0.5,2.6,0.7,2.7,0.7c-0.3,0.2-0.8,0.4-1.4,0.5l-9-0.4c-0.4,0-2.4,0.1-6.1,0.4c-0.5,0-1,0.1-1.6,0.3
					l-1.7-0.2c0.1-0.3,0.5-0.6,1.1-0.8c0.6-0.2,1.1-0.4,1.4-0.7c0.6-0.9,1.1-2.6,1.3-5.2c0.3-2.5,0.6-6.9,1.1-13.1l0.3-24.6
					c0-8.6-0.5-12.9-1.4-12.9c-1.3,0-4,0.3-8.1,0.9c-3.6,0.6-5.8,1-6.6,1.2c-0.8,0.2-1.8,0.8-2.8,1.7c-1,0.9-1.7,1.9-2,2.9h-0.8
					v-0.6c0-0.1,0.3-0.9,0.9-2.3c0.4-1.4,0.8-2.8,1.2-4.2c0.9-2.4,1.7-3.6,2.5-3.6l21.8,0.7h16.1c3.7,0,7-0.3,9.9-1L860,1386.4z"/>
				<path class="st1" d="M920,1447l-9.8,0.5c-3.4,0-6.4-2.5-8.8-7.5c-1.4-3.4-2.9-6.7-4.3-10c-1.1-2.8-3-6.8-5.7-12h-17.5
					c-0.9,0-2,1.5-3.4,4.5c-0.7,1.8-1.4,3.6-2.1,5.3c-2.3,5.4-3.5,9.4-3.5,11.8c0,2.4,0.9,4,2.8,4.8c2.3,0.8,4.5,1.5,6.8,2.2
					l-11.5,1.3c-0.9,0-2.4-0.1-4.5-0.3c-2.1-0.2-3.7-0.3-4.6-0.3c3.1-2.3,5.7-5.8,8-10.4c2.3-4.6,5.9-12.8,11-24.5
					c5.5-13,8.3-20.2,8.3-21.7c0-0.9-0.3-1.7-1-2.3s-1.5-0.9-2.4-0.9c-0.1,0-0.4,0-0.8,0.1c-0.5,0-0.8,0-0.9,0
					c-0.3,0-0.5-0.1-0.8-0.3c0-0.3,0.3-0.5,1-0.6c0.7-0.1,1.3-0.2,1.9-0.3l9.9-0.3c1.3,0,2.7,1.5,4.2,4.4c0.8,1.8,1.5,3.7,2.3,5.6
					c2.8,7.4,5.6,14.8,8.4,22.2c4.3,10.9,8.4,19.2,12.3,24.9c0.7,1.1,1.7,2,3,2.6C919.3,1446.6,919.9,1446.9,920,1447z
					 M890.9,1416.4v-0.7c0-0.1-2-5.3-5.9-15.6c-0.5-1.3-1.3-3-2.5-4.9l-8.9,21.2H890.9z"/>
				<path class="st1" d="M986.8,1445.9c-1.6,0.3-3.1,0.4-4.6,0.4c0.1,0-0.3,0-1.2,0.1c-0.8,0.1-1.4,0.1-1.8,0l-6.8,1
					c-0.6-0.2-1-1.1-1-2.7c0-1.2,0-2.3,0-3.4c-3.4,1.8-6.2,3.1-8.4,4c-1,0.3-3.1,0.9-6.2,1.6c-3.6,0.8-6,1.2-7.3,1.2h-2.8
					c-6.6,0-11.2-1.4-13.6-4.3c-2.4-2.9-3.6-7.9-3.6-15.1c0-1.6,0-3.5,0.1-5.5l0.3-25.2c-0.2-2.1-0.5-3.7-0.8-4.7
					c-0.5-1.9-1.4-3.1-2.5-3.6v-0.7c4.1-0.3,8.2-0.8,12.2-1.6v1c0,0.1-0.1,0.8-0.3,1.9c-0.2,1.2-0.3,2-0.3,2.5
					c-0.3,4.8-0.4,6.9-0.4,6.3v4.9c0,0.1-0.1,0.7-0.2,1.6c-0.1,1-0.2,1.5-0.2,1.7v16c0,1.8,0.5,4.3,1.4,7.6c0.9,3.5,1.7,5.4,2.3,5.7
					c2,3.1,4.4,5.1,7.2,6.1c1.9,0.7,4.6,1,8,1c4.2,0,7.5-0.7,9.8-2c3.2-1.8,5.2-5.2,5.9-10.1l0.5-20.1l-0.2-14.1
					c-0.1-0.2-0.2-1.9-0.3-5c-0.1-2.7-1.4-4.2-3.9-4.5c0.2-0.5,2.1-0.8,5.8-1c4.4-0.2,6.7-0.4,6.8-0.4c0.3,0.3,0.5,0.6,0.5,0.7
					l-1.7,16.5c0,3.1-0.1,7.8-0.3,14c-0.2,6.2-0.3,10.8-0.3,13.9c0,1.8,0.3,4.1,0.8,6.7c0.4,2.4,0.8,3.8,1.1,4.4
					c0.5,1,1.4,1.7,2.7,2.2C985.5,1445.3,986.6,1445.7,986.8,1445.9z"/>
				<path class="st1" d="M1051.4,1446.8c-0.3,0.3-2.3,0.6-6.1,0.8c-0.3,0-0.8,0-1.5,0.1c-0.7,0.1-1.2,0.1-1.3,0.1
					c-3.1,0-5.5-1-7.5-2.9c-0.9-0.9-2.9-3.7-5.9-8.4c-1.2-2.1-2.5-4.3-3.7-6.4c-1.6-2.5-3.3-4.6-4.9-6.2c-1.3-1.2-3.8-1.7-7.6-1.7
					c-0.6,0-0.9,0.3-0.9,1v15.6c0,5.7,1.5,8.5,4.6,8.5c0.5,0,0.9,0.1,1.2,0.3c-1.8,0.3-2.8,0.4-2.9,0.4c-0.2,0-1.3,0-3.5-0.1
					c-2.2-0.1-3.3-0.1-3.4-0.1c-1.1,0-3.6,0.3-7.5,0.8c0.5-0.3,1.2-1,2.1-2c0.5-0.9,0.8-4,0.8-9.5l0.6-12v-5.7
					c0-0.1,0.1-0.8,0.2-2.2c0.1-1.3,0.2-2,0.2-2.2v-5.8l-0.4-11.4c0-2.7-0.6-5.5-1.8-8.5c-0.1-0.3-0.3-0.5-0.9-0.7l-1-0.3
					c0.8-0.3,1.4-0.4,1.9-0.4l4.9-0.2c1.7,0,4-0.1,6.8-0.2l9-0.4c4.6,0,8.5,0.9,11.9,2.8c4.5,2.5,6.8,6.3,6.8,11.4
					c0,3.5-0.9,6.7-2.8,9.7c-1.2,2-3,4-5.3,6.1c-2,1.8-3.1,2.9-3.2,3.2c0,0.1,0.7,1.3,2.2,3.5c2,3.1,3.5,5.4,4.4,6.9
					c1.6,2.6,3.1,5.2,4.7,7.8c1.9,3,3.7,5.1,5.4,6.4c0.6,0.5,1.3,0.8,2.1,1C1050.2,1446.4,1051.1,1446.6,1051.4,1446.8z
					 M1031.9,1408.5c0-4-1.5-8.2-4.5-12.5c-3.4-4.9-7.3-7.3-11.8-7.3c-2.1,0-3.1,0-2.9,0l-0.4,32.5h5.8c5.7,0,9.3-0.8,11-2.3
					C1031,1417.5,1031.9,1414,1031.9,1408.5z"/>
				<path class="st1" d="M1128.7,1447l-9.8,0.5c-3.4,0-6.4-2.5-8.8-7.5c-1.4-3.4-2.9-6.7-4.3-10c-1.1-2.8-3-6.8-5.7-12h-17.5
					c-0.9,0-2,1.5-3.4,4.5c-0.7,1.8-1.4,3.6-2.1,5.3c-2.3,5.4-3.5,9.4-3.5,11.8c0,2.4,0.9,4,2.8,4.8c2.3,0.8,4.5,1.5,6.8,2.2
					l-11.5,1.3c-0.9,0-2.4-0.1-4.5-0.3c-2.1-0.2-3.7-0.3-4.6-0.3c3.1-2.3,5.7-5.8,8-10.4c2.3-4.6,5.9-12.8,11-24.5
					c5.5-13,8.3-20.2,8.3-21.7c0-0.9-0.3-1.7-1-2.3s-1.5-0.9-2.4-0.9c-0.1,0-0.4,0-0.8,0.1c-0.5,0-0.8,0-0.9,0
					c-0.3,0-0.5-0.1-0.8-0.3c0-0.3,0.3-0.5,1-0.6c0.7-0.1,1.3-0.2,1.9-0.3l9.9-0.3c1.3,0,2.7,1.5,4.2,4.4c0.8,1.8,1.5,3.7,2.3,5.6
					c2.8,7.4,5.6,14.8,8.4,22.2c4.3,10.9,8.4,19.2,12.3,24.9c0.7,1.1,1.7,2,3,2.6C1128,1446.6,1128.6,1446.9,1128.7,1447z
					 M1099.5,1416.4v-0.7c0-0.1-2-5.3-5.9-15.6c-0.5-1.3-1.3-3-2.5-4.9l-8.9,21.2H1099.5z"/>
				<path class="st1" d="M1206.8,1387.5c-0.5,0.4-1.7,0.8-3.6,1.3c-2.1,0.5-3.6,0.9-4.2,1.3c-1.2,12.5-1.8,19.1-1.8,19.8v4.1
					c0,1.4-0.3,7.3-1,17.7c-0.3,5.3-0.7,10.6-1,15.9c-0.1,0.1-0.3,0.2-0.5,0.2c-0.2,0-1.6-1.4-4.4-4.1
					c-10.3-10.2-18.4-18.2-24.2-24.2c-8.9-9.1-15.2-15.5-18.8-19.2c-0.4,7.5-0.4,16.8-0.1,27.9c0,2.3,0.3,6.2,0.9,11.5
					c0.2,1,0.3,1.7,0.4,2c0.2,0.6,0.6,1,1,1.3c1.4,0.8,2.9,1.2,4.4,1.2c1,0,2.5,0.2,4.6,0.5c-0.1,0-2.3,0.5-6.6,1.4
					c-3.2,0.6-5.8,1-8,1c-2.9,0-5.1-0.2-6.6-0.5c0.1-0.1,1-0.8,2.8-2c1.2-0.8,1.9-1.8,2.3-2.9c1.2-4.3,1.8-11.9,1.8-22.7v-4.9
					l0.6-10.6c0-3.9-0.4-6.7-1.3-8.6c-1.3-2.8-4-5.1-8.1-6.9c3.6-0.4,8.8-0.8,15.8-1.3c4.6,7,11.3,15.2,20.2,24.6
					c3.4,3.5,10.7,10.8,21.8,21.8c0.2-0.2,0.3-0.6,0.3-1l-0.4-13.3c-0.3-6.5-0.7-12.9-1-19.1c-0.1-2-0.3-5.1-0.7-9.1
					c-0.1-0.3-0.4-0.5-1.1-0.5c-2.9,0.2-4.7,0.3-5.4,0.3c0.4-0.3,2-0.9,4.7-1.8c3.1-1,5.2-1.6,6.4-1.6L1206.8,1387.5z"/>
				<path class="st1" d="M1273.6,1386.4c-0.5,1.5-1,3-1.5,4.5c-0.5,1.5-0.7,2.9-0.7,4.2v1c-0.2,0.1-0.3,0.2-0.5,0.2
					c-0.2,0-0.4-0.5-0.8-1.6c-0.4-1.3-0.7-2-0.9-2.3c-1-1.6-5.7-2.4-14.3-2.4c-0.1,0-0.6,0-1.4,0.1c-0.8,0.1-1.4,0.1-1.8,0.2
					c-0.5,1-0.9,3.6-1,8c-0.2,3.1-0.3,6.2-0.4,9.4l-0.3,18.9l0.2,11.3c0.1,0.3,0.1,1.5,0.3,3.7c0.1,1.5,0.5,2.7,1,3.6
					c0.3,0.5,1.1,1,2.3,1.3c1.7,0.5,2.6,0.7,2.7,0.7c-0.3,0.2-0.8,0.4-1.4,0.5l-9-0.4c-0.4,0-2.4,0.1-6.1,0.4c-0.5,0-1,0.1-1.6,0.3
					l-1.7-0.2c0.1-0.3,0.5-0.6,1.1-0.8c0.6-0.2,1.1-0.4,1.4-0.7c0.6-0.9,1.1-2.6,1.3-5.2c0.3-2.5,0.6-6.9,1.1-13.1l0.3-24.6
					c0-8.6-0.5-12.9-1.4-12.9c-1.3,0-4,0.3-8.1,0.9c-3.6,0.6-5.8,1-6.6,1.2c-0.8,0.2-1.8,0.8-2.8,1.7c-1,0.9-1.7,1.9-2,2.9h-0.8
					v-0.6c0-0.1,0.3-0.9,0.9-2.3c0.4-1.4,0.8-2.8,1.2-4.2c0.9-2.4,1.7-3.6,2.5-3.6l21.8,0.7h16.1c3.7,0,7-0.3,9.9-1L1273.6,1386.4z"
					/>
			</g>
			<g>
				<path class="st1" d="M682.6,1326c0,5.8-3.9,10.3-11.8,13.7c-5.8,2.5-11.5,3.8-16.9,3.8c-0.1,0-0.5,0-1.2,0.1c-0.6,0-1,0-1.1,0
					c-8.6,0-15.5-3.2-20.7-9.7c-4.6-5.8-6.9-12.6-6.9-20.4c0-7.8,2.5-14.5,7.4-20.1c5.5-6.2,12.8-9.5,21.9-9.8l7.3-0.2
					c2.9,0,6.4,0.4,10.3,1.2c0.1,0,3.5,0.8,10.4,2.5c-0.3,0.6-1.3,1.9-2.9,3.9c-1.6,2-2.7,3.5-3.2,4.5c-0.6,1.3-1.1,2.6-1.4,3.7
					c-0.1,0.3-0.5,0.8-1.2,1.3v-0.7c0-0.1,0.1-0.6,0.4-1.7c0.3-1.1,0.4-1.8,0.4-2.2c0-4-2.9-6.9-8.6-8.6c-3.6-1.2-7.2-1.7-10.9-1.7
					c-0.1,0-0.6,0.1-1.4,0.2c-0.8,0.1-1.3,0.2-1.4,0.2c-0.1,0-0.2,0-0.3-0.1c-0.1-0.1-0.2-0.1-0.3-0.1c-2,0-4.7,0.8-8.3,2.2
					c-7.3,3.1-11,9.4-11,18.9c0,8.9,3.6,16.5,10.8,23c6.9,6.2,14.7,9.3,23.3,9.3c5.1,0,7.6-2.2,7.6-6.6c0-2.5-0.6-4.7-1.7-6.7
					c-0.6-1.2-1.5-2.3-2.9-3.4c-1.4-1.1-2.6-1.9-3.7-2.2c-1-0.1-2.3-0.4-3.9-1c-0.1-0.4,0.2-0.6,0.7-0.7l10.6-0.6
					c2.7,0,5,0.5,6.7,1.5C681.4,1321,682.6,1323.1,682.6,1326z"/>
				<path class="st1" d="M744.5,1342.7c-0.3,0.3-2.3,0.6-6.1,0.8c-0.3,0-0.8,0-1.5,0.1c-0.7,0.1-1.2,0.1-1.3,0.1
					c-3.1,0-5.5-1-7.4-2.9c-0.9-0.9-2.9-3.7-5.9-8.4c-1.2-2.1-2.5-4.3-3.7-6.4c-1.6-2.5-3.3-4.6-4.9-6.1c-1.3-1.2-3.8-1.7-7.6-1.7
					c-0.6,0-0.9,0.3-0.9,1v15.6c0,5.7,1.5,8.5,4.6,8.5c0.5,0,0.9,0.1,1.2,0.3c-1.8,0.3-2.8,0.4-2.9,0.4c-0.2,0-1.3,0-3.5-0.1
					c-2.2-0.1-3.3-0.1-3.4-0.1c-1.1,0-3.6,0.3-7.4,0.8c0.5-0.3,1.2-1,2.1-2c0.5-0.9,0.8-4,0.8-9.5l0.6-11.9v-5.7
					c0-0.1,0.1-0.8,0.2-2.2c0.1-1.3,0.2-2,0.2-2.2v-5.8l-0.4-11.3c0-2.7-0.6-5.5-1.8-8.5c-0.1-0.3-0.3-0.5-0.9-0.7l-1-0.3
					c0.8-0.3,1.4-0.4,1.9-0.4l4.8-0.2c1.7,0,4-0.1,6.8-0.2l9-0.4c4.6,0,8.5,0.9,11.8,2.8c4.5,2.5,6.7,6.3,6.7,11.3
					c0,3.5-0.9,6.7-2.8,9.7c-1.2,2-3,4-5.3,6.1c-2,1.8-3.1,2.9-3.2,3.2c0,0.1,0.7,1.3,2.2,3.5c2,3.1,3.5,5.4,4.4,6.9
					c1.6,2.6,3.1,5.2,4.7,7.8c1.9,3,3.7,5.1,5.4,6.4c0.6,0.5,1.3,0.8,2.1,1C743.4,1342.3,744.2,1342.6,744.5,1342.7z M725.2,1304.6
					c0-4-1.5-8.2-4.5-12.5c-3.4-4.8-7.3-7.3-11.8-7.3c-2.1,0-3.1,0-2.9,0l-0.4,32.4h5.8c5.6,0,9.3-0.7,11-2.2
					C724.2,1313.5,725.2,1310,725.2,1304.6z"/>
				<path class="st1" d="M770,1343c0,0.1-0.1,0.3-0.3,0.7h-13.5l1.6-14.6l0.3-14.1c0-13,0-19.4-0.1-19.4c0-0.5-0.1-1.2-0.2-2.2
					c-0.1-1.8-0.1-3.7-0.2-5.7c-0.1-1.9-0.9-3.6-2.4-5.1c0.6,0,1.5,0,2.9-0.1c1.5,0,2.2,0,2.1,0c2.1,0,4-0.1,5.5-0.4
					c1.5-0.3,2.2-0.4,1.9-0.4h0.7c-0.9,7.7-1.5,16.7-1.7,27.1l-0.2,27.7c0.1,0.9,0.2,1.8,0.3,2.8c0.1,1.2,0.4,2,1,2.7
					C767.7,1342.1,768.5,1342.4,770,1343z"/>
				<path class="st1" d="M830.9,1339.1c-1.3,1-2.5,2.5-3.5,4.7c-0.9,1.7-1.7,3.3-2.5,5c-0.1-0.8-0.3-1.9-0.6-3.3
					c-0.7-1.5-4.2-2.2-10.3-2.2l-24.3,0.6c0.4-0.6,0.8-2.2,1.2-4.7c0.4-2.5,0.6-4.6,0.6-6.2l0.6-10.2V1312c0-0.1,0-0.6-0.1-1.6
					c-0.1-1-0.1-1.6-0.1-1.7v-5.4c0-1.6-0.1-4.3-0.3-8.2c-0.3-5.3-0.6-8.1-1-8.5c-0.8-0.6-1.7-1-2.7-1c-1.7-0.1-2.6-0.2-2.7-0.2
					c0-0.1,0-0.2,0.1-0.3c0.1-0.1,0.1-0.2,0.1-0.3l40.2-1.4c-0.8,1.3-1.7,3.1-2.7,5.4c-0.2,0.4-0.4,1.1-0.8,2.1
					c-0.1,0-0.2,0-0.3-0.1c-0.1-0.1-0.2-0.1-0.3-0.1c0.2-0.3,0.3-0.7,0.3-1c0-1-0.8-1.8-2.4-2.4c-1.3-0.6-2.4-0.9-3.5-0.9
					c-0.3,0-0.6,0.1-0.7,0.3c-1.5-0.8-4.7-1.2-9.7-1.2c-1.8,0-3,0.1-3.5,0.3c-0.5,0.2-0.8,1.1-0.8,2.6c-0.1,1.2-0.1,2.3-0.1,3.5
					c-0.1,3.1-0.3,7.6-0.7,13.7c0,3.1,0,4.8-0.1,5.2c1.8,0.3,4.3,0.4,7.6,0.4c5.4,0,10.5-0.8,15.4-2.5c0.2,0.2,0.3,0.4,0.3,0.6
					c0,0.1-0.4,1.2-1.2,3.2c-0.9,2.2-1.4,3.6-1.6,4.1c-0.3,0-0.6-0.3-0.8-0.9s-0.5-1-0.8-1.3c-1.9-1.2-6.3-1.8-13.3-1.8
					c-0.6,0-2.3,0.2-5.3,0.5c-0.3,0.5-0.4,1-0.4,1.6v19.2c0,0.1,0,0.5,0.1,1.4c0.1,0.9,0.1,1.5,0.1,1.9c0,1.1,0.1,2,0.3,2.9
					c2.9,0.8,6.8,1.2,11.7,1.2h3.6c1.8,0,4.4-0.4,7.7-1.1c3.4-0.7,5.5-1.4,6.4-2l0.8,0.2L830.9,1339.1z"/>
				<path class="st1" d="M895.6,1286.9c-2.8,3-5,7.2-6.5,12.5c-0.1,0-0.2,0-0.3,0.1c-0.1,0.1-0.2,0.1-0.3,0.1
					c0.1-0.6,0.2-1.2,0.2-1.7c0-3.7-2.7-6.7-8-9.2c-4.3-1.9-8.7-2.9-13.1-2.9c-4.2,0-8,0.9-11.2,2.6c-4.3,2.2-6.8,5.6-7.4,10
					c-0.3,0.2-0.6,1-0.8,2.4c-0.3,1.4-0.4,2.5-0.4,3.2c0-0.2,0,0.1,0.1,0.9c0.1,0.8,0.1,1.9,0.1,3.4c0.8,8.4,4.6,15.7,11.2,21.9
					c6.5,6.1,13.4,9.1,20.9,9.1c3.1,0,7.2-0.9,12.3-2.8c0.3,0,0.7,0.2,1,0.6c-0.4,0.6-2.4,1.6-5.9,2.9c-7.1,2.7-11.9,4-14.4,4
					c-0.1,0-0.8,0-2,0.1c-1.2,0.1-1.9,0.1-2.1,0.1c-8.5,0-15.7-3.3-21.4-9.8c-5.4-6.2-8-13.3-8-21.5c0-7,1.2-12.2,3.6-15.6
					c3.2-4.6,7.6-8.2,13.3-10.8c5.1-2.3,10.2-3.5,15.4-3.5c-0.1,0,3,0.1,9.2,0.4l14.6,2.9V1286.9z"/>
				<path class="st1" d="M960.6,1342.9h-14.5v-0.8c0-0.3,0.3-2.4,1-6.4l-0.2-20.6c-0.1-0.5-0.1-1,0-1.6l0.1-1.1c0-0.6-0.5-1-1.6-1
					l-26.7,1.8c-0.9,0-1.5,0.3-1.6,0.9c-0.1,0.1-0.1,1.1-0.1,3v20.9c0,1.3,0.7,2.3,2.2,3c1.3,0.5,2.5,0.9,3.7,1.3
					c0,0.3-0.2,0.5-0.5,0.5h-10.4c-0.1,0-1.8,0.2-5.2,0.5l-1.3-0.3c1.4-0.8,2.3-2.7,2.7-5.7c0.2-2.4,0.3-4.9,0.5-7.3
					c0.2-1.4,0.3-2.3,0.3-2.7v-4.2l0.5-7.6v-13c0-6.2-0.5-11.4-1.5-15.6c-0.2-1.2-0.7-1.9-1.6-2.2c-1.4-0.5-2.1-0.8-2.2-0.8
					c0.4-0.1,2.4-0.1,5.9-0.1c2.7,0,5.2-0.5,7.5-1.5c0.3,0.2,0.4,0.5,0.4,0.8c0,0.1-0.1,0.5-0.2,1.1c-0.1,0.6-0.2,1-0.2,1.1v3.9
					c0,0.1,0,0.3-0.1,0.6c-0.1,0.3-0.1,0.5-0.1,0.6v6.1c0,0.2,0,0.6-0.1,1.4c-0.1,0.7-0.1,1.2-0.1,1.4v10.5c0.1,0.1,0.3,0.2,0.5,0.4
					h22.7c3,0,4.8-0.3,5.5-0.8c0.7-0.5,1-1.9,1-4.1c0-0.1,0-1.5-0.1-4.1c-0.1-2.6-0.1-3.9-0.1-4.1v-7.4c0-0.6-0.2-1.7-0.6-3.1
					c-0.4-1.4-0.8-2.3-1.3-2.6c-0.3-0.1-0.7-0.3-1.1-0.7c0.4-0.3,0.8-0.4,1.2-0.4c0.1,0,0.8,0.1,2,0.2c1.2,0.1,1.9,0.2,2.1,0.2
					c2.1,0,4.5-0.3,7.3-1v0.9c-0.9,5.1-1.3,9-1.3,11.5v30.2c0,1.6,0.2,4.4,0.7,8.5c0.5,4.2,1,6.5,1.3,7c0.3,0.5,1,0.9,1.9,1.2
					C959.8,1342.4,960.4,1342.6,960.6,1342.9z"/>
				<path class="st1" d="M988.3,1343c0,0.1-0.1,0.3-0.3,0.7h-13.5l1.6-14.6l0.3-14.1c0-13,0-19.4-0.1-19.4c0-0.5-0.1-1.2-0.2-2.2
					c-0.1-1.8-0.1-3.7-0.2-5.7c-0.1-1.9-0.9-3.6-2.4-5.1c0.6,0,1.5,0,2.9-0.1c1.5,0,2.2,0,2.1,0c2.1,0,4-0.1,5.5-0.4
					c1.5-0.3,2.2-0.4,1.9-0.4h0.7c-0.9,7.7-1.5,16.7-1.7,27.1l-0.2,27.7c0.1,0.9,0.2,1.8,0.3,2.8c0.1,1.2,0.4,2,1,2.7
					C985.9,1342.1,986.7,1342.4,988.3,1343z"/>
				<path class="st1" d="M1042.1,1325.4c0,6.2-2.3,11-7,14.4c-4,2.9-8.9,4.4-14.6,4.4c-0.1,0-1.4-0.1-3.8-0.2
					c-2.4-0.1-3.7-0.2-3.8-0.2c-0.5,0-2.1-0.3-4.9-1c-3.1-0.7-4.6-1.2-4.6-1.4l0.4-2.3c0.4-1.8,0.7-3.7,0.8-5.8
					c-0.1-0.7,0.1-1.7,0.3-2.9c0.1,0.1,0.5,1.3,1.3,3.8c0.7,2.2,3.2,4.1,7.4,5.7c3.5,1.3,6.5,2,9,2c3.2,0,6-0.8,8.3-2.5
					c2.7-1.9,4-4.5,4-7.9c0-4-1.5-7.4-4.6-10.1c-2.1-1.8-5.6-3.7-10.3-5.7c-5.5-2.3-9-3.9-10.5-4.8c-1.8-1.2-3.2-2.8-4.3-4.8
					c-1.1-2.1-1.6-4.1-1.6-6c0-5.3,2.7-9.6,8.1-12.9c4.4-2.7,9.1-4,14-4l14.9,0.6v1l-0.8,2.2c-0.6,1.7-0.9,3-1,4
					c-0.1,1-0.2,2.5-0.4,4.5c-0.3-0.2-0.5-0.6-0.6-1.4c-0.1-1-0.2-1.5-0.3-1.6c-2.3-4.8-7-7.3-14-7.3c-7.7,0-11.6,3-11.6,9
					c0,3.9,1.6,6.9,4.8,9.1c2.4,1.6,6.4,3.6,11.8,6c4.6,2,7.8,3.8,9.5,5.5C1040.8,1317.5,1042.1,1321,1042.1,1325.4z"/>
				<path class="st1" d="M1111.1,1286.9c-2.8,3-5,7.2-6.5,12.5c-0.1,0-0.2,0-0.3,0.1c-0.1,0.1-0.2,0.1-0.3,0.1
					c0.1-0.6,0.2-1.2,0.2-1.7c0-3.7-2.7-6.7-8-9.2c-4.3-1.9-8.7-2.9-13.1-2.9c-4.2,0-8,0.9-11.2,2.6c-4.3,2.2-6.8,5.6-7.4,10
					c-0.3,0.2-0.6,1-0.8,2.4c-0.3,1.4-0.4,2.5-0.4,3.2c0-0.2,0,0.1,0.1,0.9c0.1,0.8,0.1,1.9,0.1,3.4c0.8,8.4,4.6,15.7,11.2,21.9
					c6.5,6.1,13.4,9.1,20.9,9.1c3.1,0,7.2-0.9,12.3-2.8c0.3,0,0.7,0.2,1,0.6c-0.4,0.6-2.4,1.6-5.9,2.9c-7.1,2.7-11.9,4-14.4,4
					c-0.1,0-0.8,0-2,0.1c-1.2,0.1-1.9,0.1-2.1,0.1c-8.5,0-15.7-3.3-21.4-9.8c-5.4-6.2-8-13.3-8-21.5c0-7,1.2-12.2,3.6-15.6
					c3.2-4.6,7.6-8.2,13.3-10.8c5.1-2.3,10.2-3.5,15.4-3.5c-0.1,0,3,0.1,9.2,0.4l14.6,2.9V1286.9z"/>
				<path class="st1" d="M1176.1,1342.9h-14.5v-0.8c0-0.3,0.3-2.4,1-6.4l-0.2-20.6c-0.1-0.5-0.1-1,0-1.6l0.1-1.1c0-0.6-0.5-1-1.6-1
					l-26.7,1.8c-0.9,0-1.5,0.3-1.6,0.9c-0.1,0.1-0.1,1.1-0.1,3v20.9c0,1.3,0.7,2.3,2.2,3c1.3,0.5,2.5,0.9,3.7,1.3
					c0,0.3-0.2,0.5-0.5,0.5h-10.4c-0.1,0-1.8,0.2-5.2,0.5l-1.3-0.3c1.4-0.8,2.3-2.7,2.7-5.7c0.2-2.4,0.3-4.9,0.5-7.3
					c0.2-1.4,0.3-2.3,0.3-2.7v-4.2l0.5-7.6v-13c0-6.2-0.5-11.4-1.5-15.6c-0.2-1.2-0.8-1.9-1.6-2.2c-1.4-0.5-2.1-0.8-2.2-0.8
					c0.4-0.1,2.4-0.1,5.9-0.1c2.7,0,5.2-0.5,7.5-1.5c0.3,0.2,0.4,0.5,0.4,0.8c0,0.1-0.1,0.5-0.2,1.1c-0.1,0.6-0.2,1-0.2,1.1v3.9
					c0,0.1,0,0.3-0.1,0.6c-0.1,0.3-0.1,0.5-0.1,0.6v6.1c0,0.2,0,0.6-0.1,1.4c-0.1,0.7-0.1,1.2-0.1,1.4v10.5c0.1,0.1,0.3,0.2,0.5,0.4
					h22.7c3,0,4.8-0.3,5.5-0.8c0.7-0.5,1-1.9,1-4.1c0-0.1,0-1.5-0.1-4.1c-0.1-2.6-0.1-3.9-0.1-4.1v-7.4c0-0.6-0.2-1.7-0.6-3.1
					c-0.4-1.4-0.8-2.3-1.3-2.6c-0.3-0.1-0.7-0.3-1.1-0.7c0.4-0.3,0.8-0.4,1.2-0.4c0.1,0,0.8,0.1,2,0.2c1.2,0.1,1.9,0.2,2.1,0.2
					c2.1,0,4.5-0.3,7.3-1v0.9c-0.9,5.1-1.3,9-1.3,11.5v30.2c0,1.6,0.2,4.4,0.7,8.5c0.5,4.2,1,6.5,1.3,7c0.3,0.5,1,0.9,1.9,1.2
					C1175.3,1342.4,1175.8,1342.6,1176.1,1342.9z"/>
				<path class="st1" d="M1234.8,1339.1c-1.3,1-2.5,2.5-3.5,4.7c-0.9,1.7-1.7,3.3-2.5,5c-0.1-0.8-0.3-1.9-0.6-3.3
					c-0.8-1.5-4.2-2.2-10.3-2.2l-24.3,0.6c0.4-0.6,0.8-2.2,1.2-4.7c0.4-2.5,0.6-4.6,0.6-6.2l0.6-10.2V1312c0-0.1,0-0.6-0.1-1.6
					c-0.1-1-0.1-1.6-0.1-1.7v-5.4c0-1.6-0.1-4.3-0.3-8.2c-0.3-5.3-0.6-8.1-1-8.5c-0.8-0.6-1.7-1-2.7-1c-1.7-0.1-2.6-0.2-2.7-0.2
					c0-0.1,0-0.2,0.1-0.3c0.1-0.1,0.1-0.2,0.1-0.3l40.2-1.4c-0.8,1.3-1.7,3.1-2.7,5.4c-0.2,0.4-0.4,1.1-0.8,2.1
					c-0.1,0-0.2,0-0.3-0.1c-0.1-0.1-0.2-0.1-0.3-0.1c0.2-0.3,0.3-0.7,0.3-1c0-1-0.8-1.8-2.4-2.4c-1.3-0.6-2.4-0.9-3.5-0.9
					c-0.3,0-0.6,0.1-0.7,0.3c-1.5-0.8-4.7-1.2-9.7-1.2c-1.8,0-3,0.1-3.5,0.3c-0.5,0.2-0.8,1.1-0.8,2.6c-0.1,1.2-0.1,2.3-0.1,3.5
					c-0.1,3.1-0.3,7.6-0.7,13.7c0,3.1,0,4.8-0.1,5.2c1.8,0.3,4.3,0.4,7.6,0.4c5.4,0,10.5-0.8,15.4-2.5c0.2,0.2,0.3,0.4,0.3,0.6
					c0,0.1-0.4,1.2-1.2,3.2c-0.9,2.2-1.4,3.6-1.6,4.1c-0.3,0-0.6-0.3-0.8-0.9s-0.5-1-0.8-1.3c-1.9-1.2-6.3-1.8-13.3-1.8
					c-0.6,0-2.3,0.2-5.3,0.5c-0.3,0.5-0.4,1-0.4,1.6v19.2c0,0.1,0,0.5,0.1,1.4c0.1,0.9,0.1,1.5,0.1,1.9c0,1.1,0.1,2,0.3,2.9
					c2.9,0.8,6.8,1.2,11.7,1.2h3.6c1.8,0,4.4-0.4,7.7-1.1c3.4-0.7,5.5-1.4,6.4-2l0.8,0.2L1234.8,1339.1z"/>
				<path class="st1" d="M1282.1,1325.4c0,6.2-2.3,11-7,14.4c-4,2.9-8.9,4.4-14.6,4.4c-0.1,0-1.4-0.1-3.8-0.2
					c-2.4-0.1-3.7-0.2-3.8-0.2c-0.5,0-2.1-0.3-4.9-1c-3.1-0.7-4.6-1.2-4.6-1.4l0.4-2.3c0.4-1.8,0.7-3.7,0.8-5.8
					c-0.1-0.7,0.1-1.7,0.3-2.9c0.1,0.1,0.5,1.3,1.3,3.8c0.7,2.2,3.2,4.1,7.4,5.7c3.5,1.3,6.5,2,9,2c3.2,0,6-0.8,8.3-2.5
					c2.7-1.9,4-4.5,4-7.9c0-4-1.5-7.4-4.6-10.1c-2.1-1.8-5.6-3.7-10.3-5.7c-5.5-2.3-9-3.9-10.5-4.8c-1.8-1.2-3.2-2.8-4.3-4.8
					c-1.1-2.1-1.6-4.1-1.6-6c0-5.3,2.7-9.6,8.1-12.9c4.4-2.7,9.1-4,14-4l14.9,0.6v1l-0.8,2.2c-0.6,1.7-0.9,3-1,4
					c-0.1,1-0.2,2.5-0.4,4.5c-0.3-0.2-0.5-0.6-0.6-1.4c-0.1-1-0.2-1.5-0.3-1.6c-2.3-4.8-7-7.3-14-7.3c-7.7,0-11.6,3-11.6,9
					c0,3.9,1.6,6.9,4.8,9.1c2.4,1.6,6.4,3.6,11.8,6c4.6,2,7.8,3.8,9.5,5.5C1280.8,1317.5,1282.1,1321,1282.1,1325.4z"/>
			</g>
		</g>
	</g>
</g>
</svg>
