<?xml version="1.0" encoding="UTF-8"?>
<svg width="1428px" height="1426px" viewBox="0 0 1428 1426" version="1.1" xmlns="http://www.w3.org/2000/svg" xmlns:xlink="http://www.w3.org/1999/xlink">
    <!-- Generator: Sketch 52.6 (67491) - http://www.bohemiancoding.com/sketch -->
    <title>Untitled</title>
    <desc>Created with Sketch.</desc>
    <g id="Page-1" stroke="none" stroke-width="1" fill="none" fill-rule="evenodd">
        <g id="round-frame" fill="#FFFFFF">
            <g id="Frame">
                <path d="M1150.0473,1259.8608 C1195.85811,1222.87305 1236.09459,1182.43987 1270.65541,1135.72383 C1261.12838,1128.02227 1252.41216,1121.03007 1243.59459,1113.93653 C1233.25676,1126.40089 1223.72973,1137.95323 1213.89865,1149.80958 C1210.14865,1146.56682 1207.00676,1143.83073 1203.86486,1141.09465 C1215.82432,1126.09688 1227.68243,1111.50445 1240.0473,1096 C1256.16216,1108.76837 1272.27703,1121.43541 1289,1134.60913 C1248.25676,1188.41871 1202.04054,1235.94543 1149.23649,1278 C1135.65541,1261.68486 1122.37838,1245.77506 1109,1229.66258 C1122.88514,1218.11024 1136.26351,1206.96325 1150.35135,1195.30958 C1153.18919,1198.451 1156.12838,1201.59243 1159.47297,1205.1392 C1148.72973,1214.3608 1138.29054,1223.17706 1127.24324,1232.70267 C1134.84459,1241.82294 1142.24324,1250.6392 1150.0473,1259.8608 Z" id="Path"></path>
                <path d="M149,1148.21384 C165.619154,1134.43782 181.427617,1121.26956 197.337416,1108 C208.889755,1121.87732 220.036748,1135.34947 231.690423,1149.32808 C228.548998,1152.26562 225.407572,1155.10186 221.759465,1158.44457 C212.537862,1147.60608 203.620267,1137.17276 194.297327,1126.23298 C185.278396,1133.83005 176.664811,1141.12324 167.139198,1149.12549 C203.417595,1194.80923 244.256125,1234.82048 291.073497,1269.86832 C298.572383,1260.54924 305.463252,1252.04052 312.962138,1242.72144 C300.801782,1232.59201 289.148107,1222.96905 277.089087,1213.04221 C280.230512,1209.4969 282.865256,1206.35678 285.804009,1203.01407 C300.903118,1215.06809 315.596882,1226.91953 331,1239.17614 C318.231626,1255.28194 305.564588,1271.38773 292.390869,1288 C238.682628,1247.38098 191.358575,1201.19077 149,1148.21384 Z" id="Path"></path>
                <path d="M1114.83519,183.506757 C1127.40089,193.844595 1138.85189,203.168919 1151.01225,213.101351 C1147.87082,216.648649 1145.13474,219.790541 1142.09465,223.236486 C1127.09688,211.175676 1112.30178,199.317568 1097,186.952703 C1109.66704,170.837838 1122.33408,154.824324 1135.5078,138 C1189.31737,178.540541 1236.64143,224.858108 1279,277.763514 C1262.88753,291.141892 1246.97773,304.418919 1230.66258,318 C1219.21158,304.216216 1207.86192,290.736486 1196.30958,276.75 C1199.451,273.912162 1202.49109,271.175676 1206.24053,267.72973 C1215.25947,278.27027 1224.07572,288.608108 1233.70267,299.858108 C1242.41759,292.560811 1250.82851,285.364865 1260.15145,277.560811 C1258.83408,275.331081 1257.82071,272.898649 1256.19933,270.972973 C1237.55345,248.27027 1218.09688,226.175676 1196.20824,206.513514 C1177.6637,189.790541 1158.20713,174.182432 1139.1559,158.067568 C1138.54788,157.560811 1137.83853,157.358108 1136.52116,156.547297 C1129.42762,165.466216 1122.33408,174.182432 1114.83519,183.506757 Z" id="Path"></path>
                <path d="M157.547297,290.355432 C166.466216,297.554318 175.081081,304.550418 184.405405,311.952089 C194.439189,299.784958 204.067568,288.124791 214.202703,275.95766 C217.75,279.100836 220.891892,281.83844 224.135135,284.77883 C211.972973,299.886351 200.114865,314.689694 187.851351,330 C171.635135,317.12312 155.52027,304.449025 139,291.369359 C179.641892,237.631198 225.756757,190.077994 278.763514,148 C292.344595,164.324234 305.621622,180.242897 319,196.262953 C305.114865,207.821727 291.635135,218.97493 277.547297,230.635097 C274.608108,227.491922 271.77027,224.348747 268.527027,220.698607 C279.371622,211.471866 289.608108,202.752089 300.858108,193.22117 C293.358108,184.298607 285.959459,175.477437 278.864865,166.960446 C261.837838,172.63844 173.256757,262.776602 157.547297,290.355432 Z" id="Path"></path>
                <path d="M1308.77498,446.353893 C1312.52411,444.634985 1316.27324,443.017189 1320.83298,440.893832 C1326.20335,453.633974 1331.37107,465.969666 1337.04542,479.619818 C1347.88749,475.373104 1358.42558,471.12639 1368.76101,466.980789 C1368.45702,448.173913 1307.35639,331.490394 1288.71209,313.997978 C1279.59259,319.9636 1270.16911,326.030334 1260.13767,332.602629 C1268.6492,345.949444 1276.75542,358.588473 1285.06429,371.733064 C1280.90985,374.361982 1277.36338,376.586451 1273.81691,378.81092 C1263.1775,362.632963 1252.84207,346.960566 1242,330.479272 C1258.82041,319.255814 1275.84347,307.931244 1293.77848,296 C1332.18169,351.005056 1363.18798,409.447927 1387,472.845298 C1367.24109,480.63094 1348.19147,488.31547 1328.73655,496 C1322.04892,479.215369 1315.46261,463.037412 1308.77498,446.353893 Z" id="Path"></path>
                <path d="M447.050556,118.372905 C445.331648,114.120112 443.814965,110.47486 441.994944,106.12081 C454.633974,100.855447 466.868554,95.6913408 479.912032,90.3247207 C477.687563,78.5789106 471.519717,68.5544693 467.475228,56.9099162 C412.773509,77.4650838 362.419616,103.893156 314.593529,137.510475 C321.064712,147.534916 327.131446,156.951816 333.602629,166.875 C346.848332,158.47067 359.588473,150.370112 372.733064,141.864525 C375.26087,145.813547 377.384226,149.357542 379.81092,153.10405 C363.734075,163.634777 347.960566,174.064246 331.479272,185 C320.053589,167.88757 308.729019,150.876397 297,133.156425 C352.106168,94.577514 410.751264,63.896648 473.845298,40 C481.63094,59.6438547 489.214358,78.7814246 497,98.3240223 C480.114257,105.209497 463.936299,111.689944 447.050556,118.372905 Z" id="Path"></path>
                <path d="M138.477289,1112.6087 C148.407407,1106.13751 157.830887,1100.07078 167.761006,1093.49848 C159.148148,1079.94944 151.244584,1067.51264 142.935709,1054.26694 C146.887491,1051.94135 150.332635,1049.818 154.284416,1047.3913 C164.822502,1063.46815 175.157932,1079.14055 186,1095.52073 C169.078267,1106.74419 152.156534,1118.06876 134.322851,1130 C95.7169811,1075.09606 65.1160028,1016.55207 41,953.356926 C60.5562544,945.571284 79.7071978,937.886754 99.3647799,930 C106.052411,946.481294 112.537386,962.659252 119.427673,979.646107 C115.678546,981.365015 111.828092,983.083923 107.268344,985.005056 C101.897973,972.163802 96.8315863,959.929221 91.3598882,946.784631 C80.011181,949.615774 69.6757512,954.974722 58.1243885,959.42366 C78.2886094,1014.02427 104.937806,1064.17594 138.477289,1112.6087 Z" id="Path"></path>
                <path d="M1374.94782,943.211587 C1364.18871,939.18136 1353.63259,935.151134 1342.46748,930.919395 C1336.68192,945.528967 1331.20086,959.534005 1325.4153,973.942065 C1320.94925,972.128463 1317.39671,970.617128 1313.13367,968.803526 C1319.93424,950.869018 1326.63331,933.337531 1333.53538,915 C1352.92209,922.052897 1372.10579,929.105793 1392,936.460957 C1370.07577,999.634761 1340.64046,1058.87909 1303.38956,1115 C1285.42387,1103.71537 1267.86419,1092.83375 1250,1081.64987 C1259.6426,1066.43577 1269.0822,1051.62469 1278.7248,1036.41058 C1282.48034,1038.6272 1286.03288,1040.64232 1290.19442,1043.06045 C1282.88635,1055.05038 1275.78127,1066.63728 1268.16869,1079.03023 C1278.3188,1085.27708 1288.0629,1091.22166 1297.604,1097.06549 C1313.74267,1082.45592 1366.11723,977.871537 1374.94782,943.211587 Z" id="Path"></path>
                <path d="M512,1332.47571 C504.70932,1352.05143 497.621159,1371.32286 490.330479,1391 C426.840806,1368.68571 367.502771,1339.47429 311,1302.25 C322.239798,1284.39857 333.277078,1266.85143 344.516877,1249 C359.807053,1258.63571 374.590932,1267.96714 389.881108,1277.60286 C387.75466,1281.25429 385.628212,1285.00714 383.197985,1289.16571 C370.945592,1281.76143 359.402015,1274.66143 347.048363,1267.15571 C340.770277,1277.4 334.79597,1287.03571 328.416625,1297.38143 C376.919899,1329.53429 428.055919,1354.79 483.444836,1374.06143 C487.697733,1363.10714 491.748111,1352.35571 496.001008,1341.3 C481.217128,1335.41714 467.243325,1329.94 452.661965,1324.15857 C454.585894,1319.79714 456.206045,1316.04429 458.028715,1312.08857 C475.951637,1318.78286 493.469521,1325.47714 512,1332.47571 Z" id="Path"></path>
                <path d="M54.1816881,483.356171 C64.6437768,487.30529 75.1058655,491.153149 85.6695279,495.001008 C91.5608011,480.01461 97.0457797,466.040806 102.733906,451.661965 C107.203147,453.585894 110.961373,455.206045 114.922747,456.927456 C108.11731,474.951637 101.515021,492.469521 94.5064378,511 C75.2074392,503.911839 56.111588,496.823678 36,489.431738 C57.9399142,425.739547 87.3962804,366.401511 124.67382,310 C142.957082,321.442317 160.32618,332.378338 178,343.516877 C168.350501,358.807053 158.904149,373.692191 149.356223,388.881108 C145.496423,386.653401 141.941345,384.628212 137.878398,382.197985 C145.293276,370.046851 152.30186,358.503275 159.919886,346.048363 C149.559371,339.669018 139.909871,333.69471 130.463519,327.922922 C113.094421,343.719395 53.6738197,464.623174 54.1816881,483.356171 Z" id="Path"></path>
                <path d="M931,1392.18182 C866.696177,1412.00974 801.684608,1422.67857 734.044266,1426 C732.628773,1404.86364 731.314386,1384.63312 730,1363.69805 C747.895875,1362.59091 765.286217,1361.48377 783.384306,1360.27597 C783.687626,1362.18831 783.990946,1364.2013 784.193159,1366.21429 C784.395372,1368.22727 784.496479,1370.24026 784.799799,1373.25974 C770.948189,1374.36688 757.399899,1375.37338 742.739437,1376.58117 C743.649396,1388.35714 744.559356,1399.62987 745.469316,1412.00974 C803.201207,1409.59416 859.214286,1399.73052 915.530684,1383.12338 C912.598592,1371.85065 909.767606,1361.08117 906.6333,1349.30519 C891.467304,1353.23052 876.806841,1356.95455 861.640845,1360.87987 C860.427565,1356.25 859.416499,1352.32468 858.405433,1348.0974 C877.211268,1342.96429 895.410463,1338.03247 914.115191,1333 C919.676056,1352.72727 925.236922,1372.1526 931,1392.18182 Z" id="Path"></path>
                <path d="M699,62.7343413 C681.113122,63.9524838 663.731523,65.0691145 645.440422,66.287257 C645.036199,62.12527 644.631976,58.1663067 644.025641,53.1922246 C657.971342,52.075594 671.310709,50.9589633 685.862745,49.8423326 C685.054299,37.9654428 684.346908,26.3930886 683.538462,13.9071274 C625.229261,16.9524838 569.143288,26.1900648 513.461538,43.4470842 C516.493213,55.0194384 519.322775,65.9827214 522.354449,77.5550756 C537.714932,73.4946004 552.165913,69.7386609 567.223228,65.6781857 C568.334842,70.2462203 569.244344,74.2051836 570.355958,78.5701944 C551.862745,83.7473002 533.874811,88.7213823 514.87632,94 C509.31825,74.3066955 503.760181,54.6133909 498,34.1079914 C561.968326,14.0086393 627.250377,3.45140389 694.856712,0 C696.170437,21.2159827 697.585219,41.7213823 699,62.7343413 Z" id="Path"></path>
                <path d="M931,1327.49301 C947.894284,1320.6993 964.080425,1314.20979 980.873546,1307.51748 C982.49216,1311.26923 984.211937,1315.02098 986.235205,1319.68531 C973.286292,1325.05944 960.742033,1330.33217 947.186141,1336.01049 C951.637329,1346.96154 955.987355,1357.60839 960.135053,1367.95105 C980.064239,1366.83566 1095.79514,1305.9965 1112.99292,1287.74476 C1107.02428,1278.51748 1100.85331,1269.08741 1094.37886,1259.15035 C1081.12645,1267.56643 1068.5822,1275.67832 1055.12747,1284.1958 C1052.69954,1280.03846 1050.57511,1276.38811 1048.45068,1272.73776 C1064.63682,1261.98951 1080.21598,1251.74825 1096.50329,1241 C1107.83359,1257.93357 1119.26505,1275.17133 1131,1292.81469 C1075.7648,1331.44755 1017.29236,1362.27273 954.06525,1386 C946.376834,1366.12587 938.78958,1347.06294 931,1327.49301 Z" id="Path"></path>
                <path d="M1362.2203,565.460262 C1357.55076,566.572435 1353.49028,567.583501 1349.42981,568.493461 C1344.2527,549.788732 1339.17711,531.690644 1334,512.985915 C1353.89633,507.323944 1373.58963,501.763078 1393.99352,496 C1413.99136,560.303823 1424.75162,625.618712 1428,693.056841 C1406.68251,694.371227 1386.27862,695.685614 1365.16415,697 C1364.04752,679.306338 1362.93089,661.915996 1361.81425,643.615694 C1365.87473,643.110161 1369.93521,642.604628 1374.90929,642.099095 C1376.02592,656.152918 1377.04104,669.498994 1378.05616,683.957243 C1390.23758,683.14839 1401.70842,682.440644 1412.87473,681.732897 C1416.93521,657.770624 1396.42981,537.049296 1383.94384,511.570423 C1373.08207,514.401408 1362.01728,517.333501 1350.54644,520.3667 C1354.5054,535.937123 1358.26134,550.395372 1362.2203,565.460262 Z" id="Path"></path>
                <path d="M931.796474,84.6340243 C946.479093,90.4195854 960.554156,96.0021444 975.135516,101.787706 C973.211587,106.355254 971.591436,110.110793 969.971285,113.967834 C951.744584,107.065761 934.2267,100.36669 916,93.4646176 C923.088161,74.2809149 930.075063,55.1987134 937.467003,35 C1001.05793,57.0257327 1060.49723,86.3595425 1117,123.711937 C1105.7602,141.576126 1094.72292,159.03431 1083.38186,177 C1068.19295,167.357398 1053.30781,157.917798 1038.01763,148.173695 C1040.14408,144.519657 1042.16927,140.967119 1044.5995,136.704074 C1056.75063,144.113653 1068.49673,151.320229 1080.74912,158.729807 C1087.22972,148.275197 1093.10277,138.632595 1099.48212,128.380986 C1050.5738,96.1036455 999.539043,70.8298785 944.352645,51.7476769 C940.099748,62.9127949 936.04937,73.4689064 931.796474,84.6340243 Z" id="Path"></path>
                <path d="M34.1079914,930 C14.2116631,865.392857 3.45140389,800.280181 0,732.943159 C21.2159827,731.628773 41.7213823,730.314386 62.8358531,729 C64.0539957,747.199195 65.1706263,764.488431 66.3887689,782.384306 C62.2267819,782.889839 58.3693305,783.395372 53.4967603,784.002012 C52.2786177,769.948189 51.0604752,756.197686 49.8423326,741.63833 C37.9654428,742.54829 26.6976242,743.458249 14.2116631,744.368209 C16.74946,802.100101 26.6976242,858.113179 43.4470842,914.328471 C55.0194384,911.396378 65.8812095,908.565392 77.5550756,905.532193 C73.5961123,890.265091 69.8401728,875.705734 65.9827214,860.539738 C70.5507559,859.326459 74.5097192,858.416499 78.7732181,857.304326 C83.8488121,875.907948 88.8228942,893.90493 94,912.912978 C74.4082073,918.57495 54.7149028,924.236922 34.1079914,930 Z" id="Path"></path>
                <path d="M1,709.673242 C2.10872027,642.197269 11.7848245,577.048053 29.3227633,512 C49.783692,517.159332 69.6398641,522.116338 90,527.174507 C85.5651189,544.574608 81.3318233,561.468892 76.7961495,579.172484 C72.5628539,578.363177 68.4303511,577.553869 63.7938845,576.643399 C67.1200453,562.88518 70.3454134,549.835104 73.7723669,535.469904 C62.5843715,532.738493 51.396376,530.007081 39.200453,527.073343 C24.0815402,583.421345 15.3125708,639.567021 14.6070215,698.039454 C26.3997735,698.646434 37.3861835,699.152251 49.4813137,699.759231 C49.9852775,691.868488 50.3884485,684.382398 50.8924122,676.896308 C51.396376,669.309054 51.9003398,661.721801 52.5050963,653.426404 C56.9399773,653.729894 60.7701019,654.033384 65.4065685,654.438037 C64.4994337,673.456753 63.4915062,692.374305 62.4835787,712 C42.1234428,711.291856 21.9648924,710.482549 1,709.673242 Z" id="Path"></path>
                <path d="M1354.3544,890.643074 C1366.34086,893.474216 1377.41309,896.103134 1389.19639,898.934277 C1404.33183,842.715875 1413.06772,786.497472 1413.98194,728.054601 C1402.19865,727.447927 1390.92325,726.841254 1378.83521,726.133468 C1377.81941,741.906977 1376.90519,756.9727 1375.88939,772.746208 C1371.01354,772.240647 1367.1535,771.836198 1362.88713,771.330637 C1363.80135,752.119312 1364.614,733.615774 1365.52822,714 C1386.0474,714.808898 1406.56659,715.617796 1428,716.527806 C1426.27314,783.565217 1417.33409,848.984833 1399.15124,914 C1378.53047,908.843276 1358.51919,903.888777 1338,898.732053 C1342.46953,881.44186 1346.73589,864.556117 1351.307,846.760364 C1355.3702,847.569262 1359.43341,848.479272 1364.30926,849.490394 C1360.95711,863.34277 1357.70655,876.487361 1354.3544,890.643074 Z" id="Path"></path>
                <path d="M717.43038,0.678474793 C748.924051,-3.95412516 888.063291,16.1876138 915,29.1790354 C910.037975,48.7165221 905.075949,68.4554263 900.012658,89 C882.594937,84.5688174 865.683544,80.2383436 847.962025,75.7064523 C848.873418,71.4766871 849.683544,67.3476307 850.696203,62.7150307 C864.468354,66.0384176 877.531646,69.2610958 891.708861,72.6851915 C894.544304,61.4058177 897.278481,50.2271526 900.417722,38.0414005 C844.113924,23.035805 787.810127,14.1734399 729.177215,13.3677703 C728.468354,25.1506876 727.860759,36.4300614 727.151899,48.2129787 C742.746835,49.2200656 757.632911,50.2271526 773.632911,51.2342395 C773.227848,55.7661308 772.924051,59.8951872 772.518987,64.2256611 C753.177215,63.2185742 734.544304,62.2114872 715,61.2044003 C715.810127,41.0626613 716.620253,20.9209224 717.43038,0.678474793 Z" id="Path"></path>
                <path d="M187.670051,293.063602 C183.913706,289.730091 180.766497,286.901657 176.908629,283.46713 C190.715736,267.809727 204.116751,252.556387 217.822335,237 C233.152284,251.041154 247.771574,264.3752 263,278.315339 C220.766497,322.661144 185.335025,371.45163 156.705584,426 C138.736041,416.100481 121.375635,406.504009 103,396.402459 C112.543147,379.936932 121.781726,364.077499 131.121827,347.814003 C135.588832,350.440406 139.243655,352.561732 143.203046,354.986104 C136.096447,367.309995 129.091371,379.330839 121.680203,392.058792 C132.238579,397.71566 141.477157,402.66542 151.324873,408.019241 C177.517766,360.845003 208.076142,318.418493 244.42132,278.820417 C235.893401,271.143239 228.076142,264.072154 219.548223,256.394976 C213.659898,262.960983 208.380711,268.617851 203.304569,274.47675 C198.228426,280.234634 193.35533,286.295564 187.670051,293.063602 Z" id="Path"></path>
                <path d="M1272.79096,400.330632 C1282.89768,394.471097 1292.09479,389.21772 1302.10044,383.459211 C1293.50973,369.214479 1285.32329,355.777958 1277.03578,341.937331 C1280.87633,339.714749 1284.51475,337.593193 1289.26491,334.764452 C1299.97803,352.646137 1310.28688,369.921664 1321,387.80335 C1302.70684,398.10805 1285.52542,407.705565 1269.15254,417 C1252.37539,391.541329 1236.30571,365.981632 1219.12429,341.331172 C1201.84181,316.47866 1181.83051,293.84873 1160,271.622907 C1174.65474,257.883306 1189.20841,244.345759 1204.57062,230 C1217.30508,243.941653 1229.53421,257.580227 1242.36974,271.622907 C1238.42812,275.057807 1235.09291,277.987574 1231.65662,281.018368 C1222.15631,270.410589 1213.06026,260.206915 1203.25675,249.296056 C1194.86817,257.075095 1187.18707,264.045921 1178.59636,271.925986 C1214.87947,311.124257 1246.5135,353.454349 1272.79096,400.330632 Z" id="Path"></path>
                <path d="M1306.88351,1034.14324 C1296.76257,1028.58739 1287.3501,1023.4356 1278.34246,1018.38482 C1263.36346,1041.41635 1249.8014,1064.14484 1234.41757,1085.56013 C1219.13495,1106.77338 1202.13176,1126.67344 1185.331,1147.88669 C1192.92171,1154.95778 1200.61362,1162.02886 1209.21642,1170.00909 C1220.04583,1157.48316 1230.36919,1145.46232 1241.09739,1132.9364 C1244.4373,1135.96686 1247.676,1138.89631 1251.72438,1142.43185 C1238.16232,1157.88723 1224.90388,1173.14057 1210.93698,1189 C1195.55315,1174.85783 1180.97899,1161.42277 1166,1147.48263 C1208.20433,1103.23784 1243.324,1054.54837 1271.86505,1000 C1289.5767,1009.7985 1306.7823,1019.29396 1325,1029.29449 C1316.49841,1046.06307 1307.28835,1062.02352 1297.0662,1077.88295 C1293.01782,1075.45858 1289.37428,1073.43827 1285.32591,1071.0139 C1292.41057,1058.99305 1299.39402,1047.07322 1306.88351,1034.14324 Z" id="Path"></path>
                <path d="M513,1397.50792 C518.159332,1377.17081 523.116338,1357.43778 528.27567,1337 C545.574608,1341.32919 562.367729,1345.55769 580.07132,1349.98756 C579.262013,1354.01471 578.553869,1358.14253 577.643399,1363.07579 C563.986343,1359.75339 550.936267,1356.63235 536.672231,1353.1086 C533.839656,1364.38462 531.007081,1375.45928 528.27567,1386.13122 C542.236216,1396.70249 675.771877,1416.33484 699.140617,1411.3009 C699.747597,1400.52828 700.253414,1389.45362 700.860395,1377.47285 C685.281234,1376.46606 670.106727,1375.55995 654.32524,1374.55317 C654.831057,1369.92195 655.134547,1366.19683 655.640364,1361.66629 C674.659079,1362.47172 693.475468,1363.27715 713,1364.18326 C712.190693,1384.62104 711.381386,1404.75679 710.572079,1426 C643.399595,1424.5905 578.250379,1415.32805 513,1397.50792 Z" id="Path"></path>
                <path d="M250.113502,223.844319 C258.102743,232.435028 265.080689,240.116133 272.159763,247.696171 C293.093599,230.716886 313.016138,213.333333 334.253362,197.768989 C355.490586,182.103578 378.042496,168.257376 400.796665,153.097301 C395.841313,144.405524 390.481442,135.107345 384.615923,124.798493 C370.558903,133.288136 357.20979,141.474576 343.051641,149.964218 C340.826789,146.123666 338.703066,142.485248 335.972566,137.735091 C353.872512,127.021971 371.16568,116.71312 389.065627,106 C399.27972,124.091023 408.887036,141.272442 419,159.262398 C365.300161,188.369743 316.757934,223.945386 272.665412,267 C258.810651,252.244193 245.360409,237.892655 231,222.530446 C244.753631,209.998117 258.305003,197.667922 272.463152,184.832392 C275.80043,188.47081 278.73319,191.603892 282.070468,195.24231 C271.451856,204.641557 261.136633,213.939736 250.113502,223.844319 Z" id="Path"></path>
                <path d="M1038.93437,1320 C1028.72028,1301.80791 1019.01183,1284.62649 1009,1266.7376 C1062.80097,1237.73132 1111.24207,1201.95355 1155.33459,1159 C1169.18935,1173.75581 1182.74072,1188.30948 1197,1203.67169 C1182.84185,1216.40615 1169.29048,1228.73635 1155.33459,1241.36974 C1151.79505,1237.42812 1148.96342,1234.19397 1145.92953,1230.75769 C1156.54814,1221.25738 1166.86337,1212.16133 1177.78537,1202.35782 C1169.99839,1193.86817 1162.91931,1186.086 1155.0312,1177.49529 C1115.99516,1213.98054 1073.8241,1245.31136 1026.69769,1271.79096 C1032.15869,1281.49341 1037.3163,1290.69052 1043.18182,1301.20151 C1057.33997,1292.71186 1070.99247,1284.52542 1084.84723,1276.23792 C1087.07208,1279.9774 1089.29693,1283.61582 1092.12856,1288.26491 C1074.53201,1298.77589 1057.13771,1309.18581 1038.93437,1320 Z" id="Path"></path>
                <path d="M94.8768956,612 C74.514719,608.050382 55.1605709,604.303308 35,600.454962 C39.0321142,581.618321 42.7618198,563.69313 46.5923283,545.36285 C51.8340767,546.578117 55.8661909,547.489567 60.2007136,548.50229 C57.2774309,562.275318 54.4549509,575.744529 51.3300624,590.226463 C62.4183764,592.454453 72.8010705,594.479898 84.191793,596.707888 C94.3728814,543.843766 110.098127,493.410178 132.274755,444.596947 C121.690455,439.83715 112.214987,435.583715 101.630687,430.823919 C95.1793042,446.014758 89.1311329,460.496692 82.7805531,475.383715 C78.7484389,473.662087 74.8171276,472.04173 69.8777877,469.915013 C78.0428189,450.774555 85.9054416,432.140458 94.0704728,413 C112.920607,421.709415 130.964318,429.912468 148,437.811705 C137.214095,466.573028 126.024978,494.625445 116.045495,523.184224 C106.469224,551.844275 100.118644,581.415776 94.8768956,612 Z" id="Path"></path>
                <path d="M279.034225,1183.50476 C272.060428,1191.2254 265.086631,1198.94603 257.203209,1207.58095 C269.634759,1218.45079 281.459893,1228.8127 293.891444,1239.58095 C290.859358,1242.93333 288.029412,1246.18413 284.390909,1250.14603 C268.826203,1236.43175 253.665775,1223.02222 238,1209.20635 C252.048663,1193.86667 265.28877,1179.2381 279.236364,1164 C323.605882,1206.05714 372.220321,1241.81587 427,1270.26032 C417.196257,1288.13968 407.594652,1305.51111 397.386631,1324 C381.013369,1314.55238 365.145455,1305.30794 348.772193,1295.86032 C351.4,1291.39048 353.52246,1287.63175 355.847059,1283.56825 C368.17754,1290.88254 380.103743,1297.79048 392.838503,1305.30794 C398.397326,1295.35238 403.652941,1286.00635 408.807487,1276.7619 C386.167914,1262.03175 363.528342,1248.41905 342.101604,1233.07937 C320.674866,1217.73968 300.562032,1200.57143 279.034225,1183.50476 Z" id="Path"></path>
                <path d="M1035.94121,120.587039 C1030.38536,130.587675 1025.13255,139.881194 1020.18279,148.972681 C1043.21432,163.923126 1065.94281,177.459339 1087.3581,192.81385 C1108.57135,207.966328 1128.57242,225.038119 1149.88669,241.806861 C1156.95778,234.129606 1164.02886,226.452351 1171.80706,217.865947 C1159.38215,207.158196 1147.56334,196.955527 1135.13843,186.14676 C1137.96686,182.914231 1140.69428,179.782719 1144.43185,175.540025 C1160.08926,189.177255 1175.24158,202.410419 1191,216.148666 C1176.95885,231.40216 1163.6248,245.847522 1149.68466,261 C1105.43987,218.977128 1056.54837,183.722363 1002,155.235705 C1011.89952,137.456798 1021.39498,120.182973 1031.59754,102 C1047.76002,111.192503 1063.72047,120.28399 1080.186,129.779543 C1077.66061,134.123253 1075.43827,137.860864 1073.0139,142.002541 C1060.58899,134.931385 1048.66916,127.961245 1035.94121,120.587039 Z" id="Path"></path>
                <path d="M601.35369,1392 C582.618321,1388.05194 564.794402,1384.30634 546.160305,1380.35827 C547.375573,1375.49912 548.388295,1371.34859 549.50229,1366.79313 C563.37659,1369.72887 576.643257,1372.56338 591.125191,1375.60035 C593.353181,1364.46479 595.479898,1353.83539 597.707888,1342.69982 C544.742494,1332.27289 494.51145,1316.48063 445.698219,1294.31074 C440.938422,1304.83891 436.583715,1314.45599 431.722646,1324.98415 C446.913486,1331.46303 461.39542,1337.53697 476.484987,1344.01585 C474.763359,1348.06514 473.04173,1351.91197 470.81374,1356.87236 C451.774555,1348.67254 433.140458,1340.77641 414,1332.57658 C422.709415,1313.54489 431.01374,1295.52553 439.520611,1277 C494.815267,1303.52289 552.439186,1321.84595 613,1332.07042 C609.050382,1352.0132 605.303308,1371.34859 601.35369,1392 Z" id="Path"></path>
                <path d="M158.815307,1008 C175.918406,1033.97784 191.503479,1059.95568 209.416192,1084.21514 C227.227704,1108.37351 247.366856,1130.71243 267,1154.56757 C253.438963,1167.2027 239.068311,1180.64649 223.58444,1195 C211.035421,1181.25297 198.688805,1167.70811 185.937381,1153.55676 C189.580645,1150.22108 192.7179,1147.28973 196.259962,1144.05514 C205.772929,1154.56757 214.98229,1164.77676 224.900063,1175.79459 C233.198608,1168.11243 240.991145,1161.03676 249.593295,1153.15243 C212.958254,1113.83189 181.585705,1071.58 155.070841,1024.88054 C145.153068,1030.54108 135.943707,1035.69622 125.823529,1041.45784 C134.223276,1055.40703 142.42062,1068.85081 150.820367,1082.90108 C147.075901,1085.12486 143.432638,1087.34865 138.676154,1090.17892 C128.15117,1072.59081 117.82859,1055.40703 107,1037.21243 C125.013915,1027.10432 142.319418,1017.40054 158.815307,1008 Z" id="Path"></path>
                <path d="M801.358063,1381.56991 C800.045337,1370.06383 798.732612,1359.37234 797.419887,1347.86626 C744.10304,1354.58663 691.493045,1355.19757 638.075219,1348.78267 C636.863472,1360.28875 635.853684,1370.7766 634.641937,1382.68997 C651.000515,1384.1155 666.551262,1385.54103 682.606904,1386.96657 C682.303967,1391.34498 682.102009,1395.31611 681.799073,1399.79635 C660.997424,1400.20365 641.205564,1397.55623 620,1394.70517 C622.322514,1374.6459 624.645028,1354.79027 626.967543,1334.32371 C687.756826,1342.36778 747.940237,1342.16413 808.527563,1333 C811.052035,1353.46657 813.475528,1373.22036 816,1393.9924 C797.11695,1396.02888 779.041731,1398.06535 760.562597,1400 C759.855744,1395.11246 759.249871,1391.03951 758.543019,1386.05015 C772.680062,1384.62462 786.31221,1383.19909 801.358063,1381.56991 Z" id="Path"></path>
                <path d="M957.241344,69.0264085 C976.39613,77.2262324 994.845214,85.1223592 1014,93.4234155 C1005.43075,112.252641 997.163951,130.272007 988.695519,149 C933.650713,122.78081 876.589613,104.052817 816,94.1320423 C819.830957,73.9867958 823.5611,54.3477113 827.492872,34 C845.841141,37.846831 863.584521,41.693662 882.235234,45.6417254 C881.126273,50.7033451 880.218941,55.056338 879.210794,59.3080986 C865.096741,56.3723592 851.89002,53.5378521 837.574338,50.6021127 C835.356415,61.8389085 833.239308,72.0633803 830.92057,83.5026408 C883.344196,93.7271127 933.650713,109.519366 982.44501,131.891725 C987.183299,121.363556 991.417515,111.948944 996.256619,101.21831 C981.436864,94.840669 967.020367,88.7667254 951.797352,82.1866197 C953.410387,77.9348592 955.124236,74.0880282 957.241344,69.0264085 Z" id="Path"></path>
                <path d="M1322.01034,423.559633 C1311.31897,428.504587 1301.73707,432.944954 1291.55,437.688073 C1314.34483,486.12844 1330.78534,535.880734 1341.67845,588.559633 C1352.67241,586.33945 1362.85948,584.321101 1374.55948,582 C1370.82759,565.853211 1367.29741,550.614679 1363.66638,534.669725 C1367.70086,533.761468 1371.83621,532.853211 1377.1819,531.642202 C1381.72069,551.522936 1386.25948,571 1391,591.688073 C1371.02931,595.825688 1351.66379,599.761468 1331.18879,604 C1320.29569,544.055046 1301.33362,487.036697 1274,431.834862 C1292.15517,423.357798 1310.00776,414.981651 1329.07069,406 C1336.73621,423.055046 1344.2,439.706422 1351.86552,456.862385 C1347.42759,458.981651 1343.59483,460.899083 1339.1569,463.018349 C1333.50862,449.798165 1327.96121,437.183486 1322.01034,423.559633 Z" id="Path"></path>
                <path d="M838.137615,1340.51938 C840.458716,1351.60465 842.477064,1361.68217 844.697248,1372.56589 C860.944954,1370.95349 876.082569,1365.91473 892.027523,1362.28682 C893.036697,1366.72093 893.844037,1370.75194 895.055046,1376.09302 C875.073394,1380.72868 855.495413,1385.26357 835.110092,1390 C830.972477,1369.64341 827.137615,1350.29457 823,1330.13953 C883.348624,1319.15504 940.366972,1300.10853 995.165138,1273 C1003.74312,1291.24031 1012.01835,1309.07752 1021,1328.02326 C1003.94495,1335.68217 987.293578,1343.13953 969.93578,1350.89922 C967.917431,1346.46512 966.100917,1342.53488 964.082569,1338 C977,1332.35659 989.715596,1326.81395 1003.33945,1320.76744 C998.495413,1310.48837 993.954128,1300.81395 989.009174,1290.33333 C940.669725,1313.2093 890.816514,1329.53488 838.137615,1340.51938 Z" id="Path"></path>
                <path d="M1332.96919,814 C1353.21567,817.848346 1372.55106,821.59542 1393,825.545038 C1389.15317,843.97659 1385.40757,861.699237 1381.56074,880.333333 C1376.70158,879.421883 1372.75352,878.712977 1367.79313,877.801527 C1370.72887,863.825954 1373.56338,850.356743 1376.70158,835.874809 C1365.66725,833.646819 1355.03785,831.520102 1343.69982,829.292112 C1333.27289,881.95369 1317.78433,932.286005 1295.31074,981.301781 C1305.63644,985.960305 1315.25352,990.416285 1325.98415,995.277354 C1332.3618,980.289059 1338.53697,965.807125 1345.01585,950.515013 C1348.96391,952.236641 1352.81074,953.95827 1357.77113,956.084987 C1349.5713,975.225445 1341.67518,993.859542 1333.57658,1013 C1314.64613,1004.29059 1296.72799,996.087532 1278,987.580662 C1304.21919,932.184733 1322.84595,874.864631 1332.96919,814 Z" id="Path"></path>
                <path d="M37,834.116267 C57.6945643,829.976543 77.0767903,826.038756 96.8628128,822 C107.866264,882.783274 126.945643,939.628761 154,994.252932 C135.728214,1002.83529 117.961173,1011.11474 98.8817947,1020 C91.2096635,1002.83529 83.7394305,986.175421 75.9663503,968.90974 C80.6100086,966.890362 84.4460742,965.072922 88.7868852,963.154513 C94.5409836,976.1795 100.093184,988.800612 106.150129,1002.33044 C116.446937,997.584906 125.936152,993.142274 136.535807,988.194799 C114.125108,939.72973 97.064711,890.053034 86.5660052,837.145334 C75.5625539,839.36665 65.1647972,841.386028 53.4547023,843.708312 C57.0888697,859.762366 60.622088,875.008669 64.3572045,890.961754 C60.3192407,891.870474 56.1803279,892.880163 50.7290768,894.09179 C46.0854185,874.301887 41.6436583,854.713921 37,834.116267 Z" id="Path"></path>
                <path d="M592.788991,36 C596.926606,56.5936152 600.862385,75.8748921 605,95.8628128 C544.853211,106.765315 487.93578,125.743745 432.834862,153 C424.357798,134.829163 415.880734,116.860224 407,97.8817947 C424.155963,90.2096635 440.807339,82.7394305 458.06422,75.0672994 C460.284404,79.8119068 462.100917,83.7489215 464.018349,87.8878343 C451.100917,93.5409836 438.788991,98.7903365 425.266055,104.746333 C428.697248,115.14409 433.844037,124.431406 438.385321,134.627265 C463.211009,125.037101 487.330275,114.538395 512.256881,106.361519 C537.183486,98.0836928 562.917431,91.9257981 589.458716,84.4555651 C587.541284,74.5625539 585.522936,64.1647972 583.201835,52.4547023 C567.155963,56.1898188 551.816514,59.7230371 535.972477,63.4581536 C534.963303,59.2182916 534.055046,55.1803279 532.844037,49.8300259 C552.724771,45.2873167 572.302752,40.7446074 592.788991,36 Z" id="Path"></path>
                <path d="M1335.52924,799.927835 C1343.37931,739.208247 1343.58321,679.195876 1334,618.375258 C1354.28786,615.950515 1374.06597,613.525773 1395.16942,611 C1397.2084,629.48866 1399.14543,647.674227 1401.28636,666.465979 C1396.18891,667.072165 1392.11094,667.57732 1387.31934,668.082474 C1385.7901,653.837113 1384.26087,640.096907 1382.73163,625.548454 C1371.51724,626.861856 1360.81259,628.175258 1349.08846,629.48866 C1355.61319,682.428866 1356.53073,735.065979 1349.90405,788.612371 C1361.32234,789.925773 1372.02699,791.239175 1383.85307,792.552577 C1385.28036,776.185567 1386.70765,760.525773 1388.13493,744.158763 C1392.51874,744.562887 1396.5967,744.96701 1402,745.472165 C1400.16492,765.981443 1398.43178,786.187629 1396.5967,807 C1375.69715,804.676289 1355.91904,802.352577 1335.52924,799.927835 Z" id="Path"></path>
                <path d="M808,30.5052474 C805.576507,51.2008996 803.253993,70.8770615 800.729521,91.7766117 C740.142195,83.4167916 679.958784,83.8245877 619.371458,93 C616.846986,72.4062969 614.524472,52.7301349 612,31.9325337 C630.580113,29.9955022 648.756311,28.0584708 667.538382,26.0194903 C668.144256,31.3208396 668.548171,35.3988006 669.053065,39.8845577 C655.017002,41.4137931 641.68779,42.8410795 627.449768,44.2683658 C626.843895,55.4827586 629.772282,65.9835082 630.580113,78.0134933 C683.594024,71.4887556 736.405976,70.9790105 789.924781,76.994003 C791.136528,65.4737631 792.348274,54.8710645 793.560021,43.2488756 C777.302421,41.8215892 761.751674,40.3943028 745.393096,38.9670165 C745.797012,34.6851574 746.099948,30.6071964 746.604843,25 C767.002576,26.9370315 786.895415,28.6701649 808,30.5052474 Z" id="Path"></path>
                <path d="M94,807.519856 C73.4003044,810.046931 53.718417,812.472924 33.0167428,815 C30.9771689,796.198556 29.0395738,778.104693 27,759.404332 C32.0989346,758.797834 36.3820396,758.292419 40.9710807,757.787004 C42.3987823,771.938628 43.826484,785.483755 45.3561644,800.140794 C56.6757991,798.927798 67.3835616,797.714801 79.1111111,796.501805 C72.4824962,743.231047 71.9726027,690.566787 78.0913242,637.093863 C66.6697108,635.779783 56.0639269,634.66787 44.1324201,633.353791 C42.7047184,649.628159 41.3789954,665.194946 39.9512938,681.67148 C35.8721461,681.368231 31.7929985,680.963899 27.9178082,680.66065 C25.7762557,674.494585 28.0197869,641.945848 32.3028919,619 C52.086758,621.32491 71.870624,623.548736 92.674277,625.974729 C84.5159817,686.624549 84.7199391,746.66787 94,807.519856 Z" id="Path"></path>
            </g>
        </g>
    </g>
</svg>