<svg xmlns="http://www.w3.org/2000/svg" width="146.743" height="152.847" viewBox="0 0 146.743 152.847"><g transform="translate(1.378 1)"><path d="M59.869,22.554A19.8,19.8,0,0,0,40.315,3,19.8,19.8,0,0,0,20.761,22.554a8.592,8.592,0,0,0-8.38-8.38A8.592,8.592,0,0,0,4,22.554V53.282a22.348,22.348,0,0,0,44.7,0V36.522H59.869Z" transform="translate(-4 -3)" fill="none" stroke="#fff" stroke-linecap="round" stroke-linejoin="round" stroke-miterlimit="10" stroke-width="2"/><line x1="73" transform="translate(71.365 94)" fill="none" stroke="#fff" stroke-linecap="round" stroke-linejoin="round" stroke-miterlimit="10" stroke-width="2"/><path d="M18,47.522C18,29.085,31.967,14,48.728,14S79.456,29.085,79.456,47.522" transform="translate(60.217 47.456)" fill="none" stroke="#fff" stroke-linecap="round" stroke-linejoin="round" stroke-miterlimit="10" stroke-width="2"/><path d="M48.7,46.935,4,19V46.935L48.7,19V46.935L4,19" transform="translate(-4 70.391)" fill="none" stroke="#fff" stroke-linecap="round" stroke-linejoin="round" stroke-miterlimit="10" stroke-width="2"/><path d="M62.282,76.328V42.806L90.217,20.459H60.048A11.91,11.91,0,0,0,48.874,29.4L39.935,70.741,36.024,42.806A23.121,23.121,0,0,0,24.291,26.046L12,19.9" transform="translate(32.695 74.519)" fill="none" stroke="#fff" stroke-linecap="round" stroke-linejoin="round" stroke-miterlimit="10" stroke-width="2"/><ellipse cx="9" cy="8.5" rx="9" ry="8.5" transform="translate(99.365 45)" fill="none" stroke="#fff" stroke-linecap="round" stroke-linejoin="round" stroke-miterlimit="10" stroke-width="2"/></g></svg>